<?xml version="1.0" encoding="UTF-8" standalone="no"?>
<svg
   xmlns:dc="http://purl.org/dc/elements/1.1/"
   xmlns:cc="http://creativecommons.org/ns#"
   xmlns:rdf="http://www.w3.org/1999/02/22-rdf-syntax-ns#"
   xmlns:svg="http://www.w3.org/2000/svg"
   xmlns="http://www.w3.org/2000/svg"
   xmlns:sodipodi="http://sodipodi.sourceforge.net/DTD/sodipodi-0.dtd"
   xmlns:inkscape="http://www.inkscape.org/namespaces/inkscape"
   id="svg"
   version="1.1"
   width="400"
   height="266.6327050433011"
   viewBox="0, 0, 400,266.6327050433011"
   sodipodi:docname="map-border-horizontal.svg"
   inkscape:version="0.92.5 (2060ec1f9f, 2020-04-08)">
  <metadata
     id="metadata3785">
    <rdf:RDF>
      <cc:Work
         rdf:about="">
        <dc:format>image/svg+xml</dc:format>
        <dc:type
           rdf:resource="http://purl.org/dc/dcmitype/StillImage" />
      </cc:Work>
    </rdf:RDF>
  </metadata>
  <defs
     id="defs3783" />
  <sodipodi:namedview
     pagecolor="#ffffff"
     bordercolor="#666666"
     borderopacity="1"
     objecttolerance="10"
     gridtolerance="10"
     guidetolerance="10"
     inkscape:pageopacity="0"
     inkscape:pageshadow="2"
     inkscape:window-width="1366"
     inkscape:window-height="705"
     id="namedview3781"
     showgrid="false"
     inkscape:zoom="2.0081833"
     inkscape:cx="200"
     inkscape:cy="133.31635"
     inkscape:window-x="-8"
     inkscape:window-y="-8"
     inkscape:window-maximized="1"
     inkscape:current-layer="svg" />
  <g
     id="svgg">
    <path
       id="path0"
       d="M0.000 133.250 L 0.000 266.500 200.000 266.500 L 400.000 266.500 400.000 133.250 L 400.000 0.000 200.000 0.000 L 0.000 0.000 0.000 133.250 M14.833 2.917 C 17.019 3.158,19.382 3.508,21.083 3.843 C 21.542 3.934,23.042 4.229,24.417 4.499 C 27.999 5.204,30.253 5.695,34.417 6.677 C 36.433 7.153,38.346 7.600,38.667 7.670 C 39.255 7.798,42.999 8.764,46.083 9.582 C 48.972 10.349,56.693 12.493,58.083 12.915 C 66.456 15.452,70.478 16.766,75.583 18.632 C 83.194 21.413,89.018 24.249,91.387 26.330 C 91.999 26.867,92.034 26.876,92.716 26.675 C 94.245 26.223,97.216 24.545,98.500 23.407 C 99.275 22.720,99.461 22.755,101.835 24.053 L 104.069 25.275 104.586 23.994 C 107.490 16.791,111.918 17.059,123.583 25.142 C 124.653 25.883,128.047 27.022,128.844 26.907 C 141.635 25.064,166.296 14.824,174.991 7.748 L 176.263 6.712 177.316 7.348 C 179.059 8.402,180.249 8.424,182.847 7.448 C 185.045 6.623,186.386 6.427,188.138 6.675 C 189.702 6.896,189.863 7.052,189.440 7.937 C 188.446 10.023,190.425 16.989,192.964 20.338 C 194.785 22.741,196.306 23.253,199.174 22.428 C 199.949 22.205,201.258 21.867,202.083 21.676 C 202.908 21.485,203.883 21.257,204.250 21.169 C 212.012 19.312,226.858 17.927,241.000 17.741 C 244.529 17.694,248.617 17.585,250.083 17.497 C 282.290 15.569,305.278 18.092,322.583 25.455 C 327.366 27.490,333.833 30.877,333.833 31.347 C 333.833 32.243,335.383 32.013,337.421 30.814 C 342.410 27.880,344.419 27.329,347.020 28.182 C 347.992 28.501,348.277 28.519,350.333 28.392 C 355.558 28.068,356.854 28.266,358.570 29.648 L 359.223 30.175 360.217 28.379 C 363.124 23.131,363.005 23.320,363.301 23.485 C 363.455 23.571,363.581 23.770,363.582 23.927 C 363.588 25.194,367.691 25.478,374.000 24.649 C 379.992 23.861,387.227 22.386,388.770 21.638 C 389.581 21.245,391.727 21.982,392.362 22.872 C 393.307 24.197,392.768 26.142,389.640 32.710 C 385.185 42.062,383.240 47.066,381.685 53.180 C 381.085 55.542,380.913 56.354,380.248 60.000 C 379.597 63.572,379.426 66.031,379.421 71.917 C 379.415 79.661,379.528 80.562,380.826 83.153 C 381.672 84.843,382.265 86.109,383.837 89.583 C 388.684 100.296,392.942 114.227,394.816 125.500 C 396.487 135.550,396.903 140.790,396.902 151.750 C 396.901 161.086,396.591 166.240,395.567 173.917 C 395.432 174.925,395.248 176.350,395.157 177.083 C 395.067 177.817,394.924 178.792,394.841 179.250 C 394.757 179.708,394.568 180.871,394.420 181.833 C 394.273 182.796,394.048 184.146,393.921 184.833 C 393.794 185.521,393.567 186.758,393.416 187.583 C 393.053 189.564,391.874 195.405,391.666 196.250 C 391.576 196.617,391.119 198.642,390.651 200.750 C 389.484 206.011,389.197 207.254,387.978 212.333 C 382.392 235.602,382.327 245.543,387.723 251.291 C 388.494 252.112,387.997 252.443,386.831 251.885 C 385.318 251.161,378.988 249.528,374.591 248.729 C 362.820 246.587,356.035 246.419,357.267 248.299 C 357.614 248.829,357.510 248.925,354.583 250.770 C 340.478 259.661,324.695 258.302,319.296 247.730 C 318.438 246.049,318.458 246.054,318.079 247.458 C 313.937 262.810,290.886 267.875,260.348 260.142 C 253.711 258.462,243.281 254.921,239.933 253.212 C 238.576 252.520,227.244 251.057,218.917 250.500 C 217.542 250.408,216.079 250.298,215.667 250.255 C 215.254 250.212,213.829 250.134,212.500 250.080 C 211.171 250.027,209.896 249.954,209.667 249.917 C 209.438 249.881,208.237 249.809,207.000 249.756 C 205.762 249.704,203.175 249.589,201.250 249.499 C 199.325 249.410,196.813 249.298,195.667 249.250 C 194.521 249.201,192.871 249.124,192.000 249.077 C 191.129 249.030,187.942 248.881,184.917 248.745 C 176.150 248.353,166.415 247.751,162.083 247.334 C 152.121 246.376,147.825 245.812,141.250 244.601 C 135.224 243.490,129.281 241.817,124.816 239.973 L 123.216 239.312 123.482 238.572 C 123.969 237.218,123.236 236.843,120.696 237.151 C 117.165 237.578,108.904 240.310,103.257 242.919 C 102.565 243.238,101.957 243.500,101.906 243.500 C 101.754 243.500,97.911 245.425,97.261 245.827 C 96.444 246.331,96.503 246.378,92.531 242.046 C 89.524 238.765,88.257 237.314,86.746 235.418 L 86.242 234.786 85.696 235.068 C 84.037 235.926,78.991 235.701,74.240 234.556 C 73.965 234.490,73.834 234.611,73.584 235.165 C 71.377 240.060,49.913 249.889,46.423 247.603 C 45.992 247.320,45.734 247.300,43.847 247.401 C 31.249 248.077,19.855 249.476,14.957 250.948 C 13.401 251.416,13.362 251.413,13.251 250.838 C 13.211 250.632,12.808 249.740,12.356 248.857 C 7.416 239.216,4.628 226.533,3.300 207.667 C 3.008 203.514,3.008 184.371,3.300 179.583 C 4.110 166.299,5.009 156.445,6.262 147.108 C 6.399 146.086,6.586 144.650,6.677 143.917 C 7.227 139.501,8.840 129.215,9.919 123.250 C 10.068 122.425,10.255 121.375,10.334 120.917 C 10.413 120.458,10.832 118.396,11.264 116.333 C 11.696 114.271,12.083 112.227,12.124 111.791 C 12.178 111.223,12.306 110.914,12.579 110.700 C 16.134 107.903,18.236 76.810,17.246 41.667 C 16.732 23.421,15.425 9.711,14.168 9.382 C 13.863 9.302,10.833 3.954,10.833 3.494 C 10.833 3.121,11.054 2.972,11.828 2.820 C 12.152 2.757,12.454 2.697,12.500 2.687 C 12.546 2.678,13.596 2.781,14.833 2.917 M268.715 17.624 C 269.338 17.656,270.313 17.656,270.882 17.623 C 271.451 17.591,270.942 17.564,269.750 17.565 C 268.558 17.565,268.093 17.592,268.715 17.624 M95.667 244.417 C 95.978 244.737,96.270 245.000,96.315 245.000 C 96.361 245.000,96.144 244.737,95.833 244.417 C 95.522 244.096,95.230 243.833,95.185 243.833 C 95.139 243.833,95.356 244.096,95.667 244.417 "
       stroke="none"
       fill="#fbfbfb"
       fill-rule="evenodd"
       style="fill:#ffffff" />
    <path
       id="path1"
       d="M11.208 3.024 C 11.002 3.131,10.833 3.303,10.833 3.407 C 10.833 3.878,13.971 9.336,14.214 9.288 C 14.810 9.171,15.854 15.046,16.251 20.750 C 16.308 21.575,16.385 22.512,16.422 22.833 C 16.460 23.154,16.570 24.804,16.667 26.500 C 16.765 28.196,16.877 30.108,16.916 30.750 C 17.912 47.198,17.560 80.447,16.240 94.667 C 15.431 103.373,14.065 109.686,12.796 110.574 C 12.464 110.807,12.346 111.276,11.251 116.750 C 9.539 125.309,7.578 137.311,6.499 145.833 C 5.202 156.084,4.175 166.510,3.748 173.750 C 3.694 174.667,3.615 175.867,3.572 176.417 C 1.330 205.291,4.893 233.998,12.604 249.186 C 13.005 249.976,13.333 250.741,13.333 250.885 C 13.333 251.273,13.581 251.358,14.111 251.151 C 17.812 249.701,28.984 248.206,41.947 247.424 C 45.728 247.196,45.824 247.198,46.447 247.526 C 50.489 249.653,71.513 239.896,73.588 234.931 C 73.787 234.454,73.918 234.330,74.133 234.413 C 77.112 235.564,84.136 235.831,85.944 234.863 C 86.252 234.699,86.371 234.784,87.048 235.656 C 88.276 237.237,92.326 241.787,94.553 244.089 L 96.617 246.221 97.184 245.793 C 99.408 244.111,111.761 239.182,117.583 237.654 C 119.749 237.085,122.729 236.843,123.366 237.184 C 123.704 237.365,123.742 238.339,123.437 239.015 C 123.343 239.225,123.572 239.386,124.534 239.787 C 132.032 242.912,142.429 245.178,156.083 246.662 C 162.300 247.338,173.737 248.169,181.333 248.497 C 183.487 248.590,185.700 248.702,186.250 248.747 C 186.800 248.792,188.487 248.870,190.000 248.920 C 191.512 248.971,193.313 249.044,194.000 249.084 C 194.688 249.124,197.162 249.234,199.500 249.329 C 201.838 249.424,204.275 249.536,204.917 249.578 C 205.558 249.620,207.058 249.701,208.250 249.757 C 218.972 250.265,228.777 251.156,235.667 252.249 C 239.185 252.807,238.878 252.726,241.450 253.774 C 262.017 262.150,282.713 265.447,297.667 262.729 C 308.366 260.785,315.663 255.277,318.009 247.376 C 318.494 245.743,318.475 245.751,318.990 246.961 C 320.907 251.470,326.070 255.246,331.667 256.232 C 331.987 256.288,332.438 256.374,332.667 256.422 C 336.469 257.217,343.090 256.178,348.333 253.962 C 352.402 252.243,357.497 249.129,357.237 248.520 C 356.707 247.280,357.288 247.082,361.417 247.090 C 368.075 247.103,383.410 249.990,387.227 251.950 C 388.023 252.358,388.133 251.970,387.458 251.137 C 384.788 247.847,383.792 244.462,383.767 238.583 C 383.735 231.194,384.404 227.145,388.649 209.068 C 391.772 195.771,393.186 188.964,394.479 181.000 C 394.801 179.021,395.567 173.443,395.750 171.750 C 395.809 171.200,395.887 170.525,395.923 170.250 C 397.212 160.363,397.208 142.969,395.914 133.583 C 395.876 133.308,395.688 131.921,395.495 130.500 C 395.210 128.394,394.664 125.103,394.077 121.948 C 392.626 114.149,388.093 99.259,385.342 93.250 C 385.258 93.067,384.651 91.679,383.993 90.167 C 383.336 88.654,382.107 85.990,381.263 84.247 L 379.729 81.077 379.493 78.830 C 377.980 64.425,380.905 50.818,389.291 33.250 C 392.875 25.742,393.352 23.847,391.979 22.587 C 391.184 21.859,389.784 21.516,388.776 21.804 C 383.815 23.219,376.535 24.573,371.520 25.012 C 366.683 25.436,363.752 25.069,363.502 24.007 C 363.306 23.176,362.978 23.577,361.152 26.884 L 359.274 30.286 358.512 29.701 C 357.198 28.692,354.903 27.997,353.682 28.237 C 351.550 28.656,347.988 28.651,346.891 28.228 C 344.631 27.356,342.608 27.929,337.417 30.910 C 335.362 32.089,334.170 32.299,333.925 31.526 C 333.734 30.924,326.940 27.372,322.229 25.411 C 311.041 20.752,300.019 18.490,282.500 17.259 C 278.807 16.999,258.579 17.043,254.917 17.318 C 253.633 17.415,249.283 17.568,245.250 17.659 C 241.217 17.749,236.979 17.862,235.833 17.910 C 230.663 18.125,229.368 18.186,228.667 18.250 C 228.254 18.287,227.204 18.363,226.333 18.417 C 215.886 19.070,205.607 20.633,198.938 22.583 C 195.728 23.521,193.500 22.134,191.415 17.897 C 189.614 14.237,188.593 9.360,189.342 7.993 C 189.793 7.172,189.727 7.058,188.669 6.834 C 187.198 6.522,185.170 6.687,183.667 7.242 C 180.125 8.548,179.180 8.572,177.236 7.401 L 176.267 6.818 175.842 7.165 C 168.152 13.446,152.742 20.558,136.667 25.246 C 128.760 27.551,126.655 27.424,122.330 24.382 C 112.134 17.207,107.388 17.161,104.580 24.208 C 104.024 25.602,104.623 25.737,100.202 23.222 L 99.488 22.816 98.388 23.640 C 94.932 26.228,92.176 27.314,91.335 26.419 C 87.074 21.883,61.670 13.141,33.750 6.602 C 32.742 6.366,31.252 6.017,30.439 5.827 C 21.754 3.795,12.366 2.427,11.208 3.024 M15.167 3.582 C 15.487 3.603,16.004 3.676,16.314 3.745 C 16.624 3.813,17.074 3.890,17.314 3.916 C 18.697 4.063,19.593 4.212,19.667 4.308 C 19.712 4.368,19.975 4.425,20.250 4.435 C 20.956 4.462,22.351 4.658,22.503 4.752 C 22.573 4.795,22.883 4.866,23.190 4.910 C 23.771 4.991,24.229 5.080,25.083 5.276 C 25.358 5.338,25.696 5.407,25.833 5.428 C 26.067 5.463,27.218 5.704,28.167 5.916 C 28.396 5.967,29.129 6.116,29.796 6.247 C 30.463 6.378,31.069 6.523,31.143 6.569 C 31.217 6.615,31.497 6.692,31.764 6.741 C 32.560 6.887,32.846 6.951,34.417 7.334 C 35.242 7.535,36.099 7.734,36.322 7.775 C 36.544 7.817,36.791 7.890,36.869 7.939 C 36.947 7.987,37.266 8.058,37.577 8.097 C 37.889 8.135,38.843 8.358,39.697 8.592 C 40.551 8.826,41.387 9.048,41.555 9.085 C 41.723 9.122,42.023 9.207,42.222 9.272 C 42.421 9.338,42.696 9.410,42.833 9.431 C 42.971 9.453,43.233 9.508,43.417 9.554 C 44.177 9.747,45.272 10.015,45.583 10.086 C 45.767 10.127,46.442 10.314,47.083 10.502 C 47.725 10.689,48.429 10.881,48.648 10.928 C 48.866 10.976,50.104 11.315,51.398 11.683 C 52.691 12.051,53.930 12.388,54.151 12.434 C 54.371 12.479,54.690 12.590,54.859 12.680 C 55.028 12.771,55.167 12.802,55.167 12.750 C 55.167 12.698,55.322 12.738,55.511 12.839 C 55.700 12.940,56.000 13.056,56.177 13.095 C 56.355 13.134,56.656 13.201,56.847 13.243 C 57.336 13.351,57.536 13.410,59.500 14.024 C 60.462 14.325,61.288 14.580,61.333 14.589 C 61.379 14.599,61.717 14.693,62.083 14.798 C 62.450 14.904,62.825 15.000,62.917 15.012 C 63.008 15.023,63.219 15.106,63.386 15.195 C 63.552 15.284,63.815 15.383,63.969 15.414 C 64.124 15.446,64.887 15.680,65.667 15.934 C 66.446 16.188,67.121 16.407,67.167 16.420 C 67.212 16.433,67.475 16.504,67.750 16.578 C 68.025 16.652,68.344 16.786,68.458 16.877 C 68.573 16.967,68.667 17.001,68.667 16.953 C 68.667 16.904,69.623 17.201,70.792 17.613 C 71.960 18.024,73.179 18.438,73.500 18.532 C 73.821 18.626,74.233 18.785,74.417 18.885 C 74.600 18.985,74.829 19.081,74.925 19.097 C 75.188 19.143,80.307 21.095,81.167 21.478 C 81.579 21.662,81.992 21.823,82.083 21.837 C 82.175 21.851,82.351 21.946,82.475 22.049 C 82.599 22.151,82.804 22.251,82.931 22.269 C 83.953 22.419,89.630 25.616,90.864 26.736 C 91.633 27.435,92.389 27.583,93.138 27.182 C 93.337 27.075,93.500 27.022,93.500 27.063 C 93.500 27.104,93.951 26.919,94.503 26.652 C 95.054 26.385,95.535 26.167,95.571 26.167 C 95.638 26.167,98.272 24.467,98.590 24.219 C 98.686 24.144,98.916 23.952,99.102 23.793 C 99.477 23.470,100.052 23.666,101.582 24.637 C 102.128 24.984,104.329 26.167,104.428 26.167 C 104.443 26.167,104.584 25.810,104.743 25.375 C 104.902 24.940,105.153 24.321,105.301 24.000 C 105.449 23.679,105.574 23.379,105.578 23.333 C 105.741 21.471,108.681 19.472,111.104 19.578 C 112.918 19.657,117.500 21.409,117.500 22.024 C 117.500 22.113,117.566 22.146,117.647 22.096 C 117.823 21.987,122.228 24.870,122.755 25.438 C 123.344 26.074,125.266 26.994,126.165 27.070 C 126.608 27.108,127.126 27.223,127.318 27.325 C 127.510 27.428,127.667 27.475,127.667 27.431 C 127.667 27.387,127.881 27.425,128.143 27.517 C 128.500 27.641,129.052 27.594,130.351 27.328 C 131.304 27.132,132.233 26.954,132.417 26.932 C 132.600 26.910,133.012 26.808,133.333 26.705 C 133.654 26.602,134.142 26.479,134.417 26.432 C 134.692 26.385,135.535 26.165,136.292 25.944 C 137.048 25.722,137.667 25.571,137.667 25.608 C 137.667 25.645,137.891 25.559,138.165 25.418 C 138.439 25.276,138.683 25.169,138.707 25.181 C 138.730 25.192,139.050 25.121,139.417 25.022 C 139.783 24.924,140.121 24.845,140.167 24.847 C 140.212 24.849,140.550 24.724,140.917 24.569 C 141.283 24.414,141.921 24.191,142.333 24.074 C 142.746 23.956,143.796 23.603,144.667 23.288 C 145.537 22.974,146.325 22.694,146.417 22.666 C 146.508 22.638,146.825 22.514,147.120 22.391 C 147.415 22.268,147.758 22.167,147.884 22.167 C 148.009 22.167,148.167 22.110,148.236 22.042 C 148.305 21.973,148.411 21.913,148.472 21.910 C 148.654 21.898,149.872 21.467,150.500 21.192 C 150.821 21.052,151.121 20.930,151.167 20.921 C 151.212 20.912,151.419 20.811,151.625 20.697 C 151.831 20.582,152.000 20.538,152.000 20.598 C 152.000 20.658,152.112 20.614,152.250 20.500 C 152.387 20.386,152.500 20.348,152.500 20.417 C 152.500 20.485,152.594 20.464,152.708 20.370 C 152.823 20.276,153.854 19.807,155.000 19.328 C 156.146 18.848,157.633 18.203,158.304 17.894 C 158.975 17.586,159.559 17.333,159.600 17.333 C 159.989 17.333,168.482 12.924,170.333 11.761 C 171.976 10.729,174.125 9.245,174.875 8.624 C 175.310 8.264,175.667 8.022,175.667 8.086 C 175.667 8.151,175.801 8.038,175.965 7.835 L 176.263 7.467 177.166 8.000 C 178.780 8.951,180.760 9.041,182.583 8.245 C 183.777 7.724,183.911 7.674,184.333 7.602 C 184.563 7.563,184.946 7.454,185.187 7.361 C 185.731 7.149,188.459 7.225,188.692 7.459 C 188.805 7.571,188.809 7.738,188.704 7.940 C 188.617 8.111,188.571 8.962,188.602 9.833 C 188.663 11.499,188.689 11.727,188.921 12.667 C 189.000 12.987,189.071 13.287,189.080 13.333 C 189.334 14.714,191.103 18.779,192.046 20.151 C 192.618 20.982,194.259 22.819,194.459 22.853 C 194.527 22.864,194.771 22.946,195.000 23.035 C 195.817 23.353,196.269 23.417,197.714 23.417 C 198.721 23.417,199.220 23.350,199.310 23.204 C 199.382 23.088,199.586 22.959,199.762 22.918 C 199.939 22.877,200.365 22.774,200.708 22.689 C 201.052 22.604,201.334 22.583,201.336 22.643 C 201.337 22.702,201.395 22.662,201.463 22.554 C 201.532 22.446,201.887 22.322,202.252 22.278 C 202.618 22.234,203.133 22.114,203.398 22.011 C 203.663 21.908,203.917 21.861,203.962 21.906 C 204.007 21.951,204.168 21.922,204.319 21.841 C 204.554 21.715,205.354 21.549,206.333 21.422 C 206.471 21.405,206.833 21.332,207.138 21.262 C 207.715 21.129,208.210 21.046,209.119 20.929 C 209.414 20.891,209.789 20.818,209.953 20.768 C 210.290 20.664,211.429 20.502,212.417 20.417 C 212.783 20.385,213.444 20.277,213.886 20.177 C 214.327 20.076,214.744 20.028,214.811 20.070 C 214.879 20.112,215.231 20.081,215.592 20.002 C 216.301 19.847,217.503 19.710,219.292 19.580 C 219.910 19.535,220.604 19.461,220.833 19.415 C 221.269 19.329,222.875 19.201,225.000 19.085 C 225.688 19.047,226.813 18.972,227.500 18.918 C 229.704 18.745,231.189 18.670,233.917 18.595 C 235.383 18.555,236.715 18.472,236.875 18.410 C 237.035 18.348,237.167 18.371,237.167 18.461 C 237.167 18.565,237.451 18.570,237.958 18.473 C 238.394 18.391,239.275 18.323,239.917 18.324 C 243.272 18.328,249.928 18.191,251.167 18.093 C 259.725 17.414,279.372 17.418,286.333 18.100 C 287.021 18.167,287.846 18.238,288.167 18.258 C 288.487 18.277,289.162 18.337,289.667 18.390 C 290.171 18.443,290.958 18.524,291.417 18.570 C 293.305 18.759,293.939 18.836,294.363 18.926 C 294.609 18.978,295.171 19.053,295.613 19.091 C 296.587 19.175,297.421 19.291,298.064 19.431 C 298.328 19.489,298.741 19.555,298.981 19.579 C 299.753 19.654,301.080 19.867,301.191 19.934 C 301.251 19.970,301.618 20.039,302.007 20.088 C 302.396 20.137,302.771 20.212,302.840 20.254 C 302.910 20.297,303.293 20.373,303.691 20.422 C 304.090 20.472,304.717 20.596,305.083 20.699 C 305.450 20.801,305.862 20.902,306.000 20.922 C 306.778 21.037,307.419 21.199,307.496 21.301 C 307.544 21.364,307.771 21.429,308.000 21.445 C 308.564 21.483,310.398 21.917,310.650 22.073 C 310.761 22.142,311.017 22.223,311.218 22.253 C 311.809 22.341,312.322 22.474,312.503 22.585 C 312.596 22.643,312.877 22.725,313.128 22.769 C 313.534 22.840,316.694 23.850,317.333 24.114 C 317.471 24.171,317.658 24.235,317.750 24.257 C 317.950 24.306,319.882 25.047,320.583 25.344 C 320.858 25.460,321.121 25.568,321.167 25.583 C 321.212 25.599,321.461 25.699,321.719 25.806 C 321.977 25.913,322.226 26.000,322.271 26.000 C 323.134 26.000,333.138 31.324,333.482 31.966 C 333.898 32.743,335.658 32.726,336.651 31.936 C 336.779 31.834,336.892 31.782,336.901 31.820 C 336.909 31.859,337.248 31.681,337.653 31.425 C 338.058 31.169,338.583 30.874,338.820 30.770 C 339.056 30.665,339.550 30.389,339.917 30.156 C 342.707 28.385,344.676 28.071,347.333 28.974 C 347.471 29.020,348.558 29.041,349.750 29.019 C 356.338 28.898,355.823 28.871,356.894 29.389 C 357.431 29.648,358.205 30.169,358.614 30.546 C 359.220 31.105,359.387 31.187,359.519 30.991 C 359.720 30.690,360.621 29.039,361.141 28.018 C 361.355 27.596,361.652 27.115,361.799 26.950 C 361.946 26.786,362.081 26.550,362.099 26.426 C 362.117 26.303,362.330 25.863,362.573 25.450 L 363.014 24.698 363.757 25.113 C 365.035 25.828,370.534 26.008,373.214 25.423 C 373.531 25.354,374.493 25.227,375.750 25.089 C 375.933 25.069,376.402 24.997,376.792 24.928 C 377.678 24.773,378.241 24.687,379.054 24.585 C 379.405 24.540,379.750 24.468,379.822 24.424 C 379.894 24.379,380.282 24.297,380.684 24.239 C 381.844 24.075,382.020 24.042,383.167 23.772 C 384.440 23.472,385.112 23.330,385.615 23.254 C 385.816 23.223,386.048 23.157,386.130 23.106 C 386.211 23.056,386.497 22.975,386.764 22.926 C 387.789 22.738,387.989 22.684,388.323 22.506 C 388.512 22.404,388.667 22.371,388.667 22.431 C 388.667 22.491,388.778 22.448,388.915 22.335 C 389.083 22.195,389.366 22.171,389.790 22.258 C 390.135 22.329,390.522 22.407,390.650 22.432 C 390.778 22.457,390.946 22.577,391.022 22.697 C 391.099 22.818,391.163 22.858,391.164 22.786 C 391.171 22.437,391.831 23.070,392.002 23.590 C 392.215 24.234,391.994 26.064,391.623 26.738 C 391.519 26.928,391.411 27.213,391.385 27.372 C 391.358 27.531,390.971 28.431,390.525 29.372 C 390.079 30.313,389.578 31.383,389.412 31.750 C 389.246 32.117,389.032 32.518,388.937 32.642 C 388.842 32.766,388.749 32.953,388.731 33.058 C 388.712 33.164,388.190 34.300,387.570 35.583 C 386.950 36.867,386.425 37.992,386.404 38.083 C 386.370 38.225,385.925 39.257,384.751 41.917 C 384.630 42.192,384.252 43.167,383.912 44.083 C 383.571 45.000,383.231 45.774,383.156 45.802 C 383.080 45.831,383.058 45.957,383.106 46.081 C 383.153 46.205,383.096 46.482,382.979 46.695 C 382.862 46.909,382.752 47.158,382.734 47.250 C 382.717 47.342,382.389 48.429,382.005 49.667 C 381.621 50.904,381.278 52.054,381.244 52.222 C 381.209 52.389,381.127 52.689,381.061 52.888 C 380.995 53.087,380.923 53.362,380.901 53.500 C 380.823 53.990,380.652 54.755,380.547 55.083 C 380.489 55.267,380.425 55.529,380.405 55.667 C 380.385 55.804,380.281 56.329,380.174 56.833 C 380.066 57.337,379.949 57.964,379.912 58.226 C 379.875 58.487,379.799 58.846,379.743 59.023 C 379.686 59.200,379.614 59.586,379.582 59.881 C 379.479 60.831,379.332 61.906,379.247 62.333 C 378.732 64.912,378.403 74.080,378.749 76.250 C 378.792 76.525,378.870 77.425,378.922 78.250 C 379.096 81.018,379.137 81.299,379.421 81.734 C 379.577 81.972,379.647 82.167,379.577 82.167 C 379.506 82.167,379.561 82.298,379.699 82.458 C 379.837 82.619,380.341 83.575,380.818 84.583 C 381.296 85.592,381.836 86.696,382.018 87.037 C 382.200 87.378,382.339 87.678,382.327 87.704 C 382.314 87.729,382.610 88.411,382.985 89.218 C 383.360 90.026,383.667 90.726,383.667 90.775 C 383.667 90.823,383.898 91.362,384.180 91.972 C 384.462 92.582,384.703 93.213,384.716 93.374 C 384.728 93.535,384.797 93.667,384.869 93.667 C 384.941 93.667,385.000 93.737,385.000 93.822 C 385.000 93.908,385.087 94.189,385.194 94.447 C 385.301 94.706,385.400 94.954,385.415 95.000 C 385.429 95.046,385.526 95.271,385.631 95.500 C 385.883 96.050,387.341 99.909,387.911 101.535 C 388.158 102.242,388.313 102.898,388.254 102.994 C 388.195 103.089,388.218 103.167,388.305 103.167 C 388.446 103.167,388.524 103.356,388.786 104.333 C 388.823 104.471,388.861 104.677,388.871 104.792 C 388.881 104.906,388.964 105.000,389.056 105.000 C 389.147 105.000,389.173 105.049,389.113 105.110 C 389.052 105.170,389.072 105.303,389.157 105.405 C 389.242 105.507,389.460 106.114,389.643 106.754 C 389.825 107.393,390.089 108.292,390.229 108.750 C 390.369 109.208,390.521 109.771,390.568 110.000 C 390.614 110.229,390.765 110.729,390.903 111.110 C 391.136 111.752,391.303 112.386,391.401 113.000 C 391.423 113.138,391.495 113.413,391.561 113.612 C 391.681 113.973,391.801 114.456,391.927 115.083 C 391.963 115.267,392.110 115.829,392.252 116.333 C 392.394 116.837,392.478 117.378,392.439 117.534 C 392.400 117.690,392.432 117.840,392.509 117.867 C 392.586 117.894,392.694 118.173,392.748 118.486 C 392.803 118.799,392.875 119.099,392.907 119.153 C 392.964 119.246,393.144 120.183,393.250 120.942 C 393.278 121.139,393.353 121.465,393.417 121.667 C 393.481 121.868,393.557 122.194,393.587 122.392 C 393.617 122.589,393.685 123.039,393.739 123.393 C 393.792 123.747,393.871 124.092,393.913 124.161 C 393.955 124.229,394.031 124.615,394.081 125.018 C 394.131 125.420,394.204 125.862,394.243 126.000 C 394.337 126.331,394.506 127.429,394.583 128.209 C 394.617 128.553,394.685 128.965,394.734 129.125 C 394.834 129.450,394.985 130.537,395.084 131.647 C 395.120 132.048,395.190 132.573,395.239 132.813 C 395.367 133.436,395.522 135.066,395.576 136.355 C 395.601 136.962,395.667 137.533,395.723 137.623 C 395.778 137.712,395.864 138.453,395.914 139.268 C 395.963 140.083,396.056 141.612,396.120 142.667 C 396.273 145.171,396.272 158.179,396.120 160.750 C 396.054 161.850,395.964 163.387,395.918 164.167 C 395.872 164.946,395.797 165.771,395.751 166.000 C 395.704 166.229,395.630 166.942,395.584 167.583 C 395.432 169.758,395.337 170.749,395.238 171.209 C 395.184 171.462,395.114 171.987,395.082 172.376 C 394.989 173.525,394.830 174.889,394.743 175.288 C 394.699 175.492,394.626 176.017,394.581 176.454 C 394.537 176.892,394.460 177.438,394.410 177.667 C 394.299 178.179,394.142 179.328,394.137 179.667 C 394.135 179.804,394.065 180.190,393.982 180.524 C 393.898 180.857,393.796 181.420,393.755 181.774 C 393.639 182.764,393.518 183.535,393.392 184.083 C 393.328 184.358,393.262 184.696,393.244 184.833 C 393.141 185.634,392.971 186.625,392.892 186.892 C 392.842 187.061,392.776 187.361,392.746 187.558 C 392.717 187.755,392.605 188.367,392.498 188.917 C 392.390 189.467,392.305 190.048,392.308 190.208 C 392.310 190.369,392.258 190.500,392.192 190.500 C 392.126 190.500,392.064 190.631,392.056 190.792 C 392.030 191.271,391.829 192.397,391.558 193.583 C 391.495 193.858,391.427 194.196,391.407 194.333 C 391.274 195.241,391.113 195.954,390.989 196.186 C 390.910 196.335,390.882 196.493,390.927 196.538 C 390.972 196.583,390.929 196.831,390.831 197.088 C 390.734 197.345,390.619 197.787,390.576 198.070 C 390.463 198.811,390.396 199.148,390.172 200.083 C 390.062 200.542,389.947 201.029,389.917 201.167 C 389.886 201.304,389.773 201.792,389.666 202.250 C 389.559 202.708,389.436 203.266,389.394 203.488 C 389.351 203.711,389.286 203.942,389.249 204.002 C 389.211 204.062,389.134 204.368,389.075 204.681 C 388.932 205.450,388.864 205.750,388.832 205.750 C 388.818 205.750,388.781 205.900,388.751 206.083 C 388.679 206.527,388.538 207.117,388.407 207.530 C 388.348 207.715,388.276 208.028,388.247 208.225 C 388.217 208.422,388.156 208.733,388.110 208.917 C 387.901 209.761,387.631 210.955,387.564 211.333 C 387.524 211.563,387.448 211.862,387.397 212.000 C 387.346 212.137,387.266 212.438,387.219 212.667 C 387.073 213.388,387.026 213.583,386.999 213.583 C 386.984 213.583,386.947 213.733,386.917 213.917 C 386.812 214.544,386.649 215.227,386.575 215.346 C 386.534 215.412,386.463 215.773,386.415 216.149 C 386.368 216.524,386.217 217.263,386.078 217.790 C 385.940 218.318,385.788 218.975,385.741 219.250 C 385.694 219.525,385.540 220.200,385.399 220.750 C 385.153 221.706,385.088 222.035,384.922 223.170 C 384.881 223.448,384.806 223.742,384.755 223.825 C 384.704 223.907,384.630 224.262,384.590 224.612 C 384.513 225.286,384.393 225.978,384.234 226.667 C 384.181 226.896,384.109 227.346,384.073 227.667 C 384.038 227.987,383.966 228.438,383.913 228.667 C 383.809 229.123,383.740 229.619,383.590 230.982 C 383.536 231.476,383.458 231.934,383.417 231.999 C 383.051 232.591,383.052 242.577,383.418 243.169 C 383.501 243.304,383.680 244.378,383.722 245.000 C 383.737 245.229,383.808 245.460,383.879 245.512 C 383.950 245.565,384.037 245.752,384.074 245.929 C 384.110 246.106,384.247 246.512,384.379 246.833 C 384.824 247.921,384.888 248.083,384.903 248.167 C 384.912 248.213,385.087 248.521,385.293 248.853 C 385.498 249.185,385.667 249.532,385.667 249.624 C 385.667 249.717,385.781 249.887,385.921 250.003 C 386.060 250.119,386.137 250.252,386.090 250.299 C 386.043 250.346,386.135 250.479,386.294 250.595 C 386.714 250.902,386.459 251.042,385.898 250.812 C 385.324 250.577,385.222 250.546,384.617 250.421 C 384.360 250.367,383.835 250.222,383.450 250.097 C 382.753 249.871,381.992 249.677,381.833 249.686 C 381.787 249.688,381.542 249.611,381.287 249.514 C 380.846 249.347,380.553 249.278,379.417 249.077 C 379.142 249.028,378.767 248.940,378.583 248.881 C 378.400 248.823,378.137 248.759,378.000 248.741 C 377.527 248.678,376.583 248.488,376.275 248.394 C 376.106 248.343,375.806 248.278,375.608 248.250 C 374.806 248.138,373.899 247.976,373.620 247.894 C 373.457 247.847,373.093 247.779,372.811 247.743 C 372.529 247.707,372.175 247.639,372.024 247.592 C 371.873 247.545,371.412 247.461,371.000 247.406 C 369.721 247.237,369.604 247.219,368.855 247.090 C 368.069 246.954,367.888 246.933,366.001 246.754 C 365.314 246.689,364.687 246.596,364.608 246.547 C 364.529 246.498,363.141 246.439,361.524 246.416 C 357.383 246.357,355.958 246.915,356.571 248.355 C 356.658 248.559,356.430 248.795,355.635 249.317 C 355.057 249.697,354.402 250.137,354.180 250.296 C 353.958 250.454,353.715 250.565,353.639 250.542 C 353.562 250.519,353.500 250.575,353.500 250.667 C 353.500 250.758,353.426 250.833,353.337 250.833 C 353.247 250.833,352.778 251.084,352.295 251.390 C 351.419 251.945,348.719 253.285,348.303 253.371 C 348.182 253.396,348.046 253.458,348.000 253.509 C 347.912 253.606,346.467 254.168,346.121 254.240 C 346.009 254.263,345.720 254.363,345.479 254.462 C 344.907 254.698,343.317 255.131,342.583 255.251 C 342.400 255.281,342.250 255.318,342.250 255.332 C 342.250 255.376,341.630 255.499,340.926 255.596 C 340.564 255.646,340.211 255.722,340.142 255.765 C 339.523 256.148,333.896 256.140,332.082 255.754 C 328.532 254.999,326.202 253.995,323.887 252.222 C 322.205 250.933,319.961 248.261,320.287 247.935 C 320.343 247.879,320.303 247.833,320.197 247.833 C 320.092 247.833,319.816 247.458,319.583 247.000 C 319.351 246.542,319.202 246.167,319.251 246.167 C 319.301 246.167,319.218 245.979,319.068 245.750 C 318.918 245.521,318.850 245.333,318.918 245.333 C 318.986 245.333,318.967 245.240,318.877 245.125 C 318.786 245.010,318.663 244.710,318.603 244.458 C 318.435 243.755,318.047 243.949,318.141 244.690 C 318.148 244.748,318.078 245.048,317.984 245.356 C 317.891 245.664,317.776 246.104,317.730 246.333 C 316.672 251.582,312.066 256.863,306.236 259.513 C 304.621 260.247,302.125 261.121,301.785 261.071 C 301.628 261.048,301.500 261.090,301.500 261.163 C 301.500 261.275,300.867 261.454,300.250 261.516 C 300.158 261.525,299.971 261.593,299.833 261.666 C 299.607 261.787,298.856 261.949,297.892 262.084 C 297.694 262.111,297.394 262.176,297.225 262.229 C 296.913 262.325,295.904 262.477,294.833 262.589 C 294.512 262.623,294.025 262.690,293.750 262.738 C 291.334 263.159,281.936 263.163,278.667 262.743 C 277.951 262.651,276.869 262.538,275.702 262.432 C 275.218 262.388,274.693 262.313,274.536 262.265 C 274.379 262.217,273.875 262.138,273.417 262.090 C 272.109 261.953,271.275 261.832,270.954 261.733 C 270.791 261.682,270.453 261.612,270.204 261.577 C 268.999 261.405,266.423 260.926,266.167 260.826 C 266.121 260.808,266.034 260.800,265.974 260.808 C 265.913 260.817,265.426 260.707,264.890 260.564 C 264.355 260.422,263.767 260.280,263.583 260.249 C 263.126 260.172,262.534 260.033,262.167 259.917 C 261.998 259.863,261.723 259.791,261.555 259.757 C 261.387 259.723,260.912 259.611,260.500 259.509 C 259.698 259.311,259.351 259.230,258.625 259.073 C 258.373 259.018,258.167 258.911,258.167 258.835 C 258.167 258.759,258.039 258.715,257.882 258.738 C 257.725 258.761,257.256 258.674,256.840 258.545 C 256.424 258.416,255.952 258.283,255.791 258.248 C 255.630 258.214,255.424 258.140,255.333 258.083 C 255.242 258.027,255.018 257.948,254.834 257.907 C 254.650 257.867,254.355 257.801,254.177 257.762 C 254.000 257.722,253.700 257.607,253.511 257.506 C 253.322 257.404,253.167 257.354,253.167 257.395 C 253.167 257.435,252.660 257.284,252.042 257.060 C 251.423 256.836,250.842 256.631,250.750 256.605 C 249.867 256.354,248.599 255.941,247.917 255.682 C 246.629 255.192,246.423 255.114,246.333 255.083 C 246.287 255.067,246.119 255.005,245.958 254.944 C 245.264 254.681,245.073 254.614,244.909 254.578 C 244.814 254.557,244.398 254.386,243.987 254.199 C 243.575 254.011,243.035 253.807,242.786 253.744 C 242.537 253.682,242.333 253.564,242.333 253.482 C 242.333 253.400,242.277 253.342,242.208 253.353 C 242.140 253.364,242.046 253.358,242.000 253.340 C 241.954 253.322,241.804 253.285,241.667 253.256 C 241.529 253.228,240.975 253.002,240.435 252.754 C 239.896 252.505,239.191 252.270,238.871 252.230 C 238.550 252.190,238.229 252.122,238.158 252.078 C 238.088 252.035,237.704 251.962,237.307 251.917 C 236.578 251.834,235.917 251.714,235.917 251.666 C 235.917 251.651,235.729 251.619,235.500 251.593 C 235.271 251.567,234.642 251.497,234.103 251.436 C 233.564 251.376,233.063 251.289,232.990 251.244 C 232.917 251.198,232.382 251.118,231.803 251.065 C 231.224 251.013,230.563 250.944,230.333 250.913 C 229.480 250.797,228.062 250.640,227.417 250.589 C 225.867 250.467,224.378 250.323,223.833 250.243 C 223.512 250.196,222.762 250.127,222.167 250.089 C 221.571 250.051,220.573 249.974,219.950 249.917 C 218.385 249.776,217.257 249.702,214.840 249.580 C 213.699 249.522,212.630 249.403,212.465 249.315 C 212.263 249.206,212.167 249.214,212.167 249.337 C 212.167 249.438,212.088 249.471,211.992 249.412 C 211.896 249.352,211.164 249.280,210.367 249.251 C 205.065 249.058,203.959 249.008,202.917 248.914 C 202.275 248.856,200.925 248.784,199.917 248.753 C 194.550 248.592,192.041 248.490,191.667 248.418 C 191.438 248.373,189.900 248.292,188.250 248.239 C 186.600 248.185,184.762 248.113,184.167 248.078 C 182.999 248.011,180.514 247.889,177.583 247.754 C 176.575 247.708,175.338 247.633,174.833 247.587 C 173.736 247.487,170.420 247.289,169.833 247.289 C 169.604 247.288,168.779 247.225,168.000 247.147 C 167.221 247.070,165.983 246.969,165.250 246.924 C 163.053 246.787,161.617 246.672,161.000 246.584 C 160.679 246.537,159.929 246.461,159.333 246.413 C 158.737 246.366,157.912 246.290,157.500 246.244 C 157.087 246.198,156.412 246.123,156.000 246.077 C 155.587 246.031,154.883 245.961,154.434 245.922 C 153.986 245.882,153.423 245.807,153.184 245.756 C 152.945 245.705,152.375 245.630,151.917 245.589 C 150.201 245.434,149.247 245.297,149.167 245.192 C 149.121 245.132,148.783 245.076,148.417 245.068 C 147.691 245.051,146.233 244.871,145.833 244.749 C 145.696 244.707,145.321 244.637,145.000 244.592 C 144.679 244.548,143.967 244.428,143.417 244.326 C 142.867 244.224,142.254 244.116,142.055 244.087 C 141.856 244.057,141.443 243.975,141.138 243.904 C 140.833 243.834,140.471 243.760,140.333 243.740 C 139.410 243.605,138.738 243.451,138.667 243.358 C 138.621 243.299,138.396 243.241,138.167 243.231 C 137.635 243.206,136.456 242.991,136.289 242.889 C 136.147 242.801,135.364 242.632,135.042 242.619 C 134.927 242.615,134.833 242.565,134.833 242.508 C 134.833 242.451,134.702 242.395,134.542 242.382 C 133.948 242.336,133.379 242.215,133.182 242.093 C 133.071 242.024,132.755 241.932,132.481 241.889 C 131.026 241.660,124.632 239.358,124.781 239.117 C 124.838 239.024,124.805 238.998,124.707 239.058 C 124.279 239.323,124.032 238.998,124.213 238.408 C 124.689 236.855,122.554 235.901,120.041 236.544 C 119.743 236.620,119.293 236.712,119.041 236.748 C 118.789 236.784,117.983 236.974,117.250 237.172 C 116.517 237.369,115.767 237.566,115.583 237.609 C 115.084 237.725,114.957 237.766,114.479 237.962 C 114.238 238.062,113.713 238.237,113.312 238.351 C 112.911 238.466,112.546 238.572,112.500 238.586 C 112.454 238.600,112.204 238.699,111.944 238.807 C 111.685 238.914,111.403 238.960,111.319 238.908 C 111.235 238.856,111.167 238.879,111.167 238.959 C 111.167 239.075,109.339 239.824,108.792 239.933 C 108.723 239.947,108.629 239.977,108.583 240.000 C 108.537 240.023,108.444 240.058,108.375 240.078 C 108.306 240.097,107.971 240.238,107.630 240.390 C 107.290 240.542,106.970 240.667,106.920 240.667 C 106.870 240.667,106.512 240.810,106.123 240.986 C 104.698 241.631,103.833 241.980,103.833 241.910 C 103.833 241.871,103.566 241.989,103.239 242.173 C 102.913 242.356,102.575 242.463,102.489 242.410 C 102.403 242.357,102.333 242.380,102.333 242.462 C 102.333 242.578,100.555 243.497,100.167 243.582 C 99.909 243.638,97.206 245.075,96.975 245.279 C 96.682 245.538,94.167 243.237,94.167 242.709 C 94.167 242.583,94.104 242.519,94.028 242.566 C 93.865 242.667,90.398 238.861,90.458 238.647 C 90.481 238.566,90.406 238.497,90.292 238.494 C 90.107 238.489,87.129 235.014,86.779 234.394 C 86.696 234.249,86.722 234.051,86.841 233.908 C 87.101 233.594,86.632 233.565,86.303 233.875 C 85.401 234.725,84.291 234.954,81.333 234.899 C 80.096 234.875,78.896 234.808,78.667 234.749 C 78.438 234.690,78.025 234.614,77.750 234.581 C 76.537 234.436,75.981 234.341,75.842 234.255 C 75.760 234.205,75.481 234.133,75.221 234.096 C 74.388 233.976,73.635 233.687,73.431 233.408 C 73.250 233.160,73.213 233.160,73.012 233.402 C 72.839 233.610,72.836 233.719,72.994 233.910 C 73.460 234.470,71.045 237.833,70.177 237.833 C 70.093 237.833,69.915 237.942,69.782 238.075 C 69.478 238.379,66.418 240.370,65.627 240.779 C 61.893 242.707,59.640 243.822,59.389 243.865 C 59.221 243.893,58.984 244.011,58.862 244.127 C 58.740 244.242,58.571 244.294,58.487 244.242 C 58.402 244.190,58.333 244.226,58.333 244.323 C 58.333 244.421,58.240 244.500,58.125 244.501 C 58.010 244.502,57.729 244.599,57.500 244.717 C 57.271 244.836,56.596 245.105,56.000 245.317 C 55.404 245.528,54.804 245.743,54.667 245.794 C 54.529 245.846,54.379 245.900,54.333 245.914 C 53.950 246.033,52.733 246.397,52.667 246.412 C 52.621 246.422,52.314 246.523,51.985 246.636 C 51.467 246.814,50.832 246.941,49.830 247.067 C 49.691 247.085,49.504 247.145,49.414 247.200 C 49.097 247.396,47.079 247.224,46.574 246.959 C 46.152 246.737,45.678 246.706,43.824 246.779 C 40.487 246.909,39.845 246.944,38.479 247.072 C 37.238 247.188,36.690 247.230,34.000 247.410 C 33.221 247.463,32.471 247.539,32.333 247.580 C 32.196 247.620,31.483 247.701,30.750 247.759 C 29.468 247.859,28.555 247.954,27.667 248.078 C 27.438 248.110,26.767 248.180,26.176 248.234 C 25.586 248.287,24.986 248.367,24.843 248.411 C 24.567 248.496,23.605 248.627,22.264 248.764 C 21.813 248.810,21.393 248.880,21.330 248.919 C 21.266 248.958,20.923 249.029,20.566 249.076 C 19.025 249.281,18.828 249.312,18.546 249.397 C 18.383 249.447,18.063 249.521,17.833 249.562 C 17.480 249.626,16.463 249.856,15.500 250.088 C 15.362 250.121,14.988 250.228,14.667 250.324 C 14.148 250.481,14.054 250.460,13.797 250.125 C 13.379 249.581,11.626 245.938,11.250 244.833 C 11.235 244.787,11.141 244.563,11.043 244.333 C 10.104 242.149,8.514 237.528,8.262 236.250 C 8.244 236.158,8.109 235.671,7.962 235.167 C 7.727 234.360,7.326 232.565,7.302 232.211 C 7.297 232.141,7.228 231.911,7.148 231.700 C 7.003 231.321,6.841 230.587,6.748 229.892 C 6.721 229.694,6.657 229.394,6.606 229.225 C 6.506 228.896,6.348 228.039,6.251 227.296 C 6.219 227.047,6.146 226.698,6.090 226.522 C 5.980 226.175,5.877 225.516,5.747 224.329 C 5.702 223.915,5.593 223.323,5.504 223.014 C 5.415 222.705,5.376 222.400,5.415 222.336 C 5.455 222.271,5.421 221.963,5.339 221.651 C 5.196 221.100,5.008 219.689,4.919 218.500 C 4.895 218.179,4.826 217.579,4.766 217.167 C 4.619 216.168,4.518 215.059,4.412 213.268 C 4.363 212.453,4.293 211.736,4.256 211.676 C 4.179 211.551,3.976 208.263,3.916 206.167 C 3.894 205.387,3.817 203.287,3.745 201.500 C 3.578 197.359,3.581 191.068,3.750 186.583 C 3.823 184.658,3.900 182.408,3.921 181.583 C 3.993 178.709,4.166 175.097,4.243 174.841 C 4.286 174.699,4.371 173.646,4.432 172.500 C 4.564 170.004,4.589 169.638,4.738 167.917 C 4.802 167.183,4.881 166.208,4.914 165.750 C 5.101 163.166,5.211 162.005,5.334 161.336 C 5.410 160.925,5.438 160.535,5.398 160.470 C 5.357 160.404,5.399 159.878,5.490 159.300 C 5.643 158.330,5.718 157.614,5.924 155.172 C 5.966 154.671,6.038 154.141,6.085 153.994 C 6.132 153.848,6.202 153.320,6.242 152.822 C 6.360 151.343,6.514 149.934,6.588 149.667 C 6.625 149.529,6.698 148.967,6.750 148.417 C 6.802 147.867,6.873 147.229,6.909 147.000 C 7.110 145.710,7.224 144.732,7.189 144.600 C 7.168 144.518,7.201 144.330,7.263 144.183 C 7.325 144.037,7.396 143.767,7.419 143.583 C 7.522 142.796,7.689 141.230,7.696 141.000 C 7.700 140.862,7.772 140.426,7.855 140.030 C 7.938 139.634,8.045 138.997,8.091 138.613 C 8.206 137.664,8.284 137.120,8.417 136.333 C 8.479 135.966,8.550 135.497,8.576 135.291 C 8.752 133.873,8.874 133.070,8.925 132.987 C 8.958 132.934,9.030 132.487,9.087 131.995 C 9.143 131.502,9.222 131.046,9.262 130.981 C 9.302 130.916,9.370 130.538,9.413 130.140 C 9.456 129.742,9.522 129.267,9.560 129.083 C 9.651 128.632,9.881 127.309,9.922 127.000 C 10.030 126.176,10.196 125.208,10.275 124.942 C 10.325 124.772,10.388 124.472,10.414 124.275 C 10.585 122.999,10.711 122.236,10.767 122.142 C 10.803 122.082,10.872 121.715,10.921 121.326 C 10.970 120.937,11.045 120.563,11.087 120.494 C 11.129 120.425,11.200 120.117,11.243 119.810 C 11.286 119.502,11.362 119.063,11.410 118.833 C 11.496 118.428,11.768 116.975,11.932 116.043 C 11.977 115.790,12.061 115.433,12.119 115.250 C 12.178 115.067,12.242 114.804,12.262 114.667 C 12.283 114.529,12.383 114.042,12.486 113.583 C 12.589 113.125,12.697 112.600,12.727 112.417 C 12.824 111.819,13.035 111.255,13.257 111.000 C 13.491 110.730,14.383 109.023,14.432 108.750 C 14.449 108.658,14.594 108.133,14.755 107.583 C 14.916 107.033,15.042 106.566,15.035 106.545 C 15.027 106.524,15.096 106.261,15.188 105.961 C 15.279 105.662,15.377 105.267,15.406 105.083 C 15.435 104.900,15.511 104.412,15.577 104.000 C 15.642 103.587,15.749 103.175,15.816 103.083 C 15.882 102.992,15.919 102.729,15.898 102.500 C 15.877 102.271,15.926 101.821,16.006 101.500 C 16.087 101.179,16.195 100.504,16.246 100.000 C 16.459 97.875,16.495 97.556,16.582 97.000 C 16.675 96.414,16.763 95.418,16.914 93.250 C 16.959 92.608,17.037 91.821,17.087 91.500 C 17.178 90.922,17.222 90.194,17.406 86.167 C 17.459 85.021,17.542 83.671,17.590 83.167 C 17.638 82.662,17.709 81.162,17.747 79.833 C 17.784 78.504,17.872 76.067,17.941 74.417 C 18.105 70.535,18.104 46.844,17.940 42.833 C 17.871 41.137,17.784 38.475,17.746 36.917 C 17.709 35.358,17.639 33.746,17.591 33.333 C 17.544 32.921,17.462 31.533,17.410 30.250 C 17.229 25.815,17.182 24.913,17.084 24.000 C 17.029 23.496,16.955 22.633,16.919 22.083 C 16.742 19.412,16.644 18.228,16.581 18.000 C 16.478 17.628,16.277 15.526,16.263 14.667 C 16.256 14.254,16.200 13.878,16.138 13.832 C 16.076 13.785,15.986 13.406,15.937 12.989 C 15.888 12.572,15.809 12.123,15.762 11.991 C 15.715 11.858,15.645 11.563,15.606 11.333 C 15.367 9.909,14.819 8.684,14.415 8.672 C 14.323 8.669,13.976 8.160,13.644 7.542 C 13.313 6.923,12.695 5.806,12.271 5.059 C 11.251 3.263,11.232 3.292,13.333 3.450 C 14.021 3.502,14.846 3.561,15.167 3.582 "
       stroke="none"
       fill="#0b0b0b"
       fill-rule="evenodd" />
    <path
       id="path2"
       d="M265.042 16.956 C 265.477 16.990,266.190 16.990,266.625 16.956 C 267.060 16.922,266.704 16.893,265.833 16.893 C 264.962 16.893,264.606 16.922,265.042 16.956 M273.047 16.956 C 273.485 16.990,274.160 16.990,274.547 16.955 C 274.934 16.920,274.575 16.892,273.750 16.892 C 272.925 16.893,272.609 16.922,273.047 16.956 M251.542 17.448 C 251.702 17.490,251.965 17.490,252.125 17.448 C 252.285 17.406,252.154 17.372,251.833 17.372 C 251.512 17.372,251.381 17.406,251.542 17.448 M266.125 17.621 C 266.423 17.658,266.910 17.658,267.208 17.621 C 267.506 17.584,267.262 17.553,266.667 17.553 C 266.071 17.553,265.827 17.584,266.125 17.621 M272.288 17.620 C 272.584 17.657,273.109 17.658,273.455 17.622 C 273.800 17.586,273.558 17.555,272.917 17.555 C 272.275 17.554,271.992 17.583,272.288 17.620 M238.627 17.785 C 238.834 17.824,239.134 17.823,239.294 17.781 C 239.453 17.739,239.283 17.707,238.917 17.709 C 238.550 17.711,238.420 17.745,238.627 17.785 M261.208 17.782 C 261.369 17.823,261.631 17.823,261.792 17.782 C 261.952 17.740,261.821 17.705,261.500 17.705 C 261.179 17.705,261.048 17.740,261.208 17.782 M233.711 17.953 C 233.964 17.991,234.339 17.990,234.544 17.951 C 234.749 17.911,234.542 17.880,234.083 17.881 C 233.625 17.882,233.457 17.915,233.711 17.953 M239.708 18.448 C 239.869 18.490,240.131 18.490,240.292 18.448 C 240.452 18.406,240.321 18.372,240.000 18.372 C 239.679 18.372,239.548 18.406,239.708 18.448 M392.705 24.333 C 392.705 24.654,392.740 24.785,392.782 24.625 C 392.823 24.465,392.823 24.202,392.782 24.042 C 392.740 23.881,392.705 24.012,392.705 24.333 M367.121 25.954 C 367.417 25.990,367.942 25.991,368.288 25.955 C 368.634 25.919,368.392 25.889,367.750 25.888 C 367.108 25.887,366.825 25.917,367.121 25.954 M16.875 32.417 C 16.877 32.783,16.911 32.914,16.951 32.706 C 16.991 32.499,16.990 32.199,16.948 32.040 C 16.906 31.880,16.874 32.050,16.875 32.417 M17.039 35.833 C 17.039 36.154,17.073 36.285,17.115 36.125 C 17.157 35.965,17.157 35.702,17.115 35.542 C 17.073 35.381,17.039 35.512,17.039 35.833 M17.212 41.333 C 17.212 41.746,17.245 41.915,17.284 41.708 C 17.324 41.502,17.324 41.165,17.284 40.958 C 17.245 40.752,17.212 40.921,17.212 41.333 M18.039 44.167 C 18.039 44.487,18.073 44.619,18.115 44.458 C 18.157 44.298,18.157 44.035,18.115 43.875 C 18.073 43.715,18.039 43.846,18.039 44.167 M17.398 49.583 C 17.398 50.775,17.425 51.241,17.457 50.618 C 17.489 49.996,17.489 49.021,17.457 48.451 C 17.424 47.882,17.398 48.392,17.398 49.583 M18.052 49.417 C 18.053 49.967,18.084 50.172,18.121 49.872 C 18.158 49.572,18.157 49.122,18.119 48.872 C 18.081 48.622,18.051 48.867,18.052 49.417 M17.398 68.000 C 17.398 69.146,17.424 69.615,17.457 69.042 C 17.489 68.469,17.489 67.531,17.457 66.958 C 17.424 66.385,17.398 66.854,17.398 68.000 M18.052 68.083 C 18.053 68.633,18.084 68.838,18.121 68.539 C 18.158 68.239,18.157 67.789,18.119 67.539 C 18.081 67.288,18.051 67.533,18.052 68.083 M379.228 71.917 C 379.228 72.833,379.256 73.187,379.290 72.703 C 379.324 72.218,379.323 71.468,379.289 71.036 C 379.255 70.604,379.227 71.000,379.228 71.917 M18.039 73.167 C 18.039 73.487,18.073 73.619,18.115 73.458 C 18.157 73.298,18.157 73.035,18.115 72.875 C 18.073 72.715,18.039 72.846,18.039 73.167 M17.209 75.750 C 17.211 76.117,17.245 76.247,17.285 76.040 C 17.324 75.832,17.323 75.532,17.281 75.373 C 17.239 75.214,17.207 75.383,17.209 75.750 M396.705 142.500 C 396.705 142.821,396.740 142.952,396.782 142.792 C 396.823 142.631,396.823 142.369,396.782 142.208 C 396.740 142.048,396.705 142.179,396.705 142.500 M396.872 146.167 C 396.872 146.487,396.906 146.619,396.948 146.458 C 396.990 146.298,396.990 146.035,396.948 145.875 C 396.906 145.715,396.872 145.846,396.872 146.167 M396.872 157.167 C 396.872 157.487,396.906 157.619,396.948 157.458 C 396.990 157.298,396.990 157.035,396.948 156.875 C 396.906 156.715,396.872 156.846,396.872 157.167 M396.709 160.917 C 396.711 161.283,396.745 161.414,396.785 161.206 C 396.824 160.999,396.823 160.699,396.781 160.540 C 396.739 160.380,396.707 160.550,396.709 160.917 M3.212 181.667 C 3.212 182.079,3.245 182.248,3.284 182.042 C 3.324 181.835,3.324 181.498,3.284 181.292 C 3.245 181.085,3.212 181.254,3.212 181.667 M3.045 186.500 C 3.045 186.912,3.078 187.081,3.118 186.875 C 3.157 186.669,3.157 186.331,3.118 186.125 C 3.078 185.919,3.045 186.088,3.045 186.500 M3.705 187.500 C 3.705 187.821,3.740 187.952,3.782 187.792 C 3.823 187.631,3.823 187.369,3.782 187.208 C 3.740 187.048,3.705 187.179,3.705 187.500 M3.042 201.583 C 3.044 201.950,3.078 202.080,3.118 201.873 C 3.158 201.666,3.156 201.366,3.115 201.206 C 3.073 201.047,3.040 201.217,3.042 201.583 M3.205 206.000 C 3.205 206.321,3.240 206.452,3.282 206.292 C 3.323 206.131,3.323 205.869,3.282 205.708 C 3.240 205.548,3.205 205.679,3.205 206.000 M81.708 235.619 C 81.960 235.658,82.373 235.658,82.625 235.619 C 82.877 235.581,82.671 235.550,82.167 235.550 C 81.662 235.550,81.456 235.581,81.708 235.619 M95.167 244.917 C 95.757 245.512,96.278 246.000,96.324 246.000 C 96.370 246.000,95.924 245.512,95.333 244.917 C 94.743 244.321,94.222 243.833,94.176 243.833 C 94.130 243.833,94.576 244.321,95.167 244.917 M47.794 247.951 C 48.001 247.991,48.301 247.990,48.460 247.948 C 48.620 247.906,48.450 247.874,48.083 247.875 C 47.717 247.877,47.586 247.911,47.794 247.951 M172.208 248.115 C 172.369 248.157,172.631 248.157,172.792 248.115 C 172.952 248.073,172.821 248.039,172.500 248.039 C 172.179 248.039,172.048 248.073,172.208 248.115 M181.042 248.615 C 181.202 248.657,181.465 248.657,181.625 248.615 C 181.785 248.573,181.654 248.539,181.333 248.539 C 181.012 248.539,180.881 248.573,181.042 248.615 M192.042 249.115 C 192.202 249.157,192.465 249.157,192.625 249.115 C 192.785 249.073,192.654 249.039,192.333 249.039 C 192.012 249.039,191.881 249.073,192.042 249.115 M199.542 249.448 C 199.702 249.490,199.965 249.490,200.125 249.448 C 200.285 249.406,200.154 249.372,199.833 249.372 C 199.512 249.372,199.381 249.406,199.542 249.448 M203.208 249.615 C 203.369 249.657,203.631 249.657,203.792 249.615 C 203.952 249.573,203.821 249.539,203.500 249.539 C 203.179 249.539,203.048 249.573,203.208 249.615 M209.875 249.948 C 210.035 249.990,210.298 249.990,210.458 249.948 C 210.619 249.906,210.487 249.872,210.167 249.872 C 209.846 249.872,209.715 249.906,209.875 249.948 M286.125 263.121 C 286.423 263.158,286.910 263.158,287.208 263.121 C 287.506 263.084,287.262 263.053,286.667 263.053 C 286.071 263.053,285.827 263.084,286.125 263.121 M285.458 263.790 C 286.031 263.823,286.969 263.823,287.542 263.790 C 288.115 263.758,287.646 263.731,286.500 263.731 C 285.354 263.731,284.885 263.758,285.458 263.790 "
       stroke="none"
       fill="#9e9e9e"
       fill-rule="evenodd" />
    <path
       id="path3"
       d="M268.542 16.957 C 269.252 16.988,270.415 16.988,271.125 16.957 C 271.835 16.926,271.254 16.900,269.833 16.900 C 268.412 16.900,267.831 16.926,268.542 16.957 M245.708 18.286 C 245.960 18.324,246.373 18.324,246.625 18.286 C 246.877 18.248,246.671 18.217,246.167 18.217 C 245.662 18.217,245.456 18.248,245.708 18.286 "
       stroke="none"
       fill="#7c7c7c"
       fill-rule="evenodd" />
    <path
       id="path4"
       d="M12.292 3.451 C 12.498 3.491,12.835 3.491,13.042 3.451 C 13.248 3.411,13.079 3.379,12.667 3.379 C 12.254 3.379,12.085 3.411,12.292 3.451 M186.542 7.282 C 186.702 7.323,186.965 7.323,187.125 7.282 C 187.285 7.240,187.154 7.205,186.833 7.205 C 186.512 7.205,186.381 7.240,186.542 7.282 M260.542 17.115 C 260.702 17.157,260.965 17.157,261.125 17.115 C 261.285 17.073,261.154 17.039,260.833 17.039 C 260.512 17.039,260.381 17.073,260.542 17.115 M264.125 17.618 C 264.331 17.657,264.669 17.657,264.875 17.618 C 265.081 17.578,264.912 17.545,264.500 17.545 C 264.087 17.545,263.919 17.578,264.125 17.618 M274.875 17.615 C 275.035 17.657,275.298 17.657,275.458 17.615 C 275.619 17.573,275.487 17.539,275.167 17.539 C 274.846 17.539,274.715 17.573,274.875 17.615 M240.294 17.785 C 240.501 17.824,240.801 17.823,240.960 17.781 C 241.120 17.739,240.950 17.707,240.583 17.709 C 240.217 17.711,240.086 17.745,240.294 17.785 M235.375 17.948 C 235.535 17.990,235.798 17.990,235.958 17.948 C 236.119 17.906,235.987 17.872,235.667 17.872 C 235.346 17.872,235.215 17.906,235.375 17.948 M243.792 18.287 C 244.090 18.324,244.577 18.324,244.875 18.287 C 245.173 18.250,244.929 18.220,244.333 18.220 C 243.737 18.220,243.494 18.250,243.792 18.287 M110.375 19.615 C 110.535 19.657,110.798 19.657,110.958 19.615 C 111.119 19.573,110.987 19.539,110.667 19.539 C 110.346 19.539,110.215 19.573,110.375 19.615 M344.627 28.451 C 344.834 28.491,345.134 28.490,345.294 28.448 C 345.453 28.406,345.283 28.374,344.917 28.375 C 344.550 28.377,344.420 28.411,344.627 28.451 M358.167 30.219 C 358.167 30.248,358.410 30.491,358.708 30.760 L 359.250 31.250 358.760 30.708 C 358.304 30.203,358.167 30.090,358.167 30.219 M17.705 37.833 C 17.705 38.154,17.740 38.285,17.782 38.125 C 17.823 37.965,17.823 37.702,17.782 37.542 C 17.740 37.381,17.705 37.512,17.705 37.833 M17.205 39.833 C 17.205 40.154,17.240 40.285,17.282 40.125 C 17.323 39.965,17.323 39.702,17.282 39.542 C 17.240 39.381,17.205 39.512,17.205 39.833 M17.387 45.833 C 17.387 46.429,17.417 46.673,17.454 46.375 C 17.491 46.077,17.491 45.590,17.454 45.292 C 17.417 44.994,17.387 45.237,17.387 45.833 M18.039 45.500 C 18.039 45.821,18.073 45.952,18.115 45.792 C 18.157 45.631,18.157 45.369,18.115 45.208 C 18.073 45.048,18.039 45.179,18.039 45.500 M18.055 52.250 C 18.055 52.892,18.086 53.134,18.122 52.788 C 18.158 52.442,18.157 51.917,18.120 51.621 C 18.083 51.325,18.054 51.608,18.055 52.250 M18.053 65.500 C 18.053 66.096,18.084 66.340,18.121 66.042 C 18.158 65.744,18.158 65.256,18.121 64.958 C 18.084 64.660,18.053 64.904,18.053 65.500 M379.205 69.500 C 379.205 69.821,379.240 69.952,379.282 69.792 C 379.323 69.631,379.323 69.369,379.282 69.208 C 379.240 69.048,379.205 69.179,379.205 69.500 M17.385 71.583 C 17.386 72.133,17.417 72.338,17.454 72.039 C 17.491 71.739,17.490 71.289,17.452 71.039 C 17.414 70.788,17.384 71.033,17.385 71.583 M18.039 71.833 C 18.039 72.154,18.073 72.285,18.115 72.125 C 18.157 71.965,18.157 71.702,18.115 71.542 C 18.073 71.381,18.039 71.512,18.039 71.833 M378.542 73.750 C 378.544 74.117,378.578 74.247,378.618 74.040 C 378.658 73.832,378.656 73.532,378.615 73.373 C 378.573 73.214,378.540 73.383,378.542 73.750 M17.205 77.167 C 17.205 77.487,17.240 77.619,17.282 77.458 C 17.323 77.298,17.323 77.035,17.282 76.875 C 17.240 76.715,17.205 76.846,17.205 77.167 M16.872 85.167 C 16.872 85.487,16.906 85.619,16.948 85.458 C 16.990 85.298,16.990 85.035,16.948 84.875 C 16.906 84.715,16.872 84.846,16.872 85.167 M396.872 147.500 C 396.872 147.821,396.906 147.952,396.948 147.792 C 396.990 147.631,396.990 147.369,396.948 147.208 C 396.906 147.048,396.872 147.179,396.872 147.500 M396.872 155.833 C 396.872 156.154,396.906 156.285,396.948 156.125 C 396.990 155.965,396.990 155.702,396.948 155.542 C 396.906 155.381,396.872 155.512,396.872 155.833 M3.205 183.333 C 3.205 183.654,3.240 183.785,3.282 183.625 C 3.323 183.465,3.323 183.202,3.282 183.042 C 3.240 182.881,3.205 183.012,3.205 183.333 M3.048 188.417 C 3.049 188.875,3.081 189.043,3.120 188.789 C 3.158 188.536,3.157 188.161,3.117 187.956 C 3.078 187.751,3.046 187.958,3.048 188.417 M3.562 194.250 C 3.563 195.258,3.590 195.649,3.623 195.119 C 3.657 194.588,3.656 193.763,3.623 193.286 C 3.589 192.808,3.562 193.242,3.562 194.250 M3.048 199.917 C 3.049 200.375,3.081 200.543,3.120 200.289 C 3.158 200.036,3.157 199.661,3.117 199.456 C 3.078 199.251,3.046 199.458,3.048 199.917 M3.205 204.500 C 3.205 204.821,3.240 204.952,3.282 204.792 C 3.323 204.631,3.323 204.369,3.282 204.208 C 3.240 204.048,3.205 204.179,3.205 204.500 M383.050 237.167 C 383.050 237.671,383.081 237.877,383.119 237.625 C 383.158 237.373,383.158 236.960,383.119 236.708 C 383.081 236.456,383.050 236.662,383.050 237.167 M383.048 239.083 C 383.049 239.542,383.081 239.709,383.120 239.456 C 383.158 239.203,383.157 238.828,383.117 238.623 C 383.078 238.418,383.046 238.625,383.048 239.083 M92.500 242.052 C 92.500 242.081,92.744 242.325,93.042 242.594 L 93.583 243.083 93.094 242.542 C 92.638 242.037,92.500 241.923,92.500 242.052 M44.042 246.782 C 44.202 246.823,44.465 246.823,44.625 246.782 C 44.785 246.740,44.654 246.705,44.333 246.705 C 44.012 246.705,43.881 246.740,44.042 246.782 M45.208 247.282 C 45.369 247.323,45.631 247.323,45.792 247.282 C 45.952 247.240,45.821 247.205,45.500 247.205 C 45.179 247.205,45.048 247.240,45.208 247.282 M194.708 248.615 C 194.869 248.657,195.131 248.657,195.292 248.615 C 195.452 248.573,195.321 248.539,195.000 248.539 C 194.679 248.539,194.548 248.573,194.708 248.615 M205.708 249.115 C 205.869 249.157,206.131 249.157,206.292 249.115 C 206.452 249.073,206.321 249.039,206.000 249.039 C 205.679 249.039,205.548 249.073,205.708 249.115 M322.000 251.417 C 322.311 251.737,322.603 252.000,322.649 252.000 C 322.695 252.000,322.478 251.737,322.167 251.417 C 321.856 251.096,321.564 250.833,321.518 250.833 C 321.472 250.833,321.689 251.096,322.000 251.417 M335.628 256.121 C 335.928 256.158,336.378 256.157,336.628 256.119 C 336.878 256.081,336.633 256.051,336.083 256.052 C 335.533 256.053,335.328 256.084,335.628 256.121 M284.375 263.115 C 284.535 263.157,284.798 263.157,284.958 263.115 C 285.119 263.073,284.987 263.039,284.667 263.039 C 284.346 263.039,284.215 263.073,284.375 263.115 M288.208 263.115 C 288.369 263.157,288.631 263.157,288.792 263.115 C 288.952 263.073,288.821 263.039,288.500 263.039 C 288.179 263.039,288.048 263.073,288.208 263.115 "
       stroke="none"
       fill="#747474"
       fill-rule="evenodd" />
  </g>
</svg>
