<?xml version="1.0" encoding="UTF-8" standalone="no"?>
<!-- Created with Inkscape (http://www.inkscape.org/) -->

<svg
   xmlns:dc="http://purl.org/dc/elements/1.1/"
   xmlns:cc="http://creativecommons.org/ns#"
   xmlns:rdf="http://www.w3.org/1999/02/22-rdf-syntax-ns#"
   xmlns:svg="http://www.w3.org/2000/svg"
   xmlns="http://www.w3.org/2000/svg"
   xmlns:sodipodi="http://sodipodi.sourceforge.net/DTD/sodipodi-0.dtd"
   xmlns:inkscape="http://www.inkscape.org/namespaces/inkscape"
   width="800px"
   height="800px"
   viewBox="0 0 800 800"
   version="1.1"
   id="SVGRoot"
   inkscape:version="0.92.5 (2060ec1f9f, 2020-04-08)"
   sodipodi:docname="map1.svg">
  <defs
     id="defs90" />
  <sodipodi:namedview
     id="base"
     pagecolor="#ffffff"
     bordercolor="#666666"
     borderopacity="1.0"
     inkscape:pageopacity="0.0"
     inkscape:pageshadow="2"
     inkscape:zoom="0.64"
     inkscape:cx="211.71875"
     inkscape:cy="400"
     inkscape:document-units="px"
     inkscape:current-layer="layer1"
     showgrid="false"
     inkscape:window-width="1366"
     inkscape:window-height="705"
     inkscape:window-x="-8"
     inkscape:window-y="-8"
     inkscape:window-maximized="1"
     showguides="true"
     inkscape:guide-bbox="true"
     inkscape:snap-grids="true">
    <sodipodi:guide
       position="400,562.5"
       orientation="1,0"
       id="guide133"
       inkscape:locked="false" />
    <sodipodi:guide
       position="325,350"
       orientation="0,1"
       inkscape:locked="false"
       id="guide135" />
  </sodipodi:namedview>
  <metadata
     id="metadata93">
    <rdf:RDF>
      <cc:Work
         rdf:about="">
        <dc:format>image/svg+xml</dc:format>
        <dc:type
           rdf:resource="http://purl.org/dc/dcmitype/StillImage" />
        <dc:title></dc:title>
      </cc:Work>
    </rdf:RDF>
  </metadata>
  <g
     inkscape:label="Layer 1"
     inkscape:groupmode="layer"
     id="layer1">
    <g
       id="svgg"
       transform="matrix(2,0,0,2.9992964,0.5,0)">
      <path
         inkscape:connector-curvature="0"
         id="path0"
         d="M 0,133.25 V 266.5 H 200 400 V 133.25 0 H 200 0 V 133.25 M 14.833,2.917 c 2.186,0.241 4.549,0.591 6.25,0.926 0.459,0.091 1.959,0.386 3.334,0.656 3.582,0.705 5.836,1.196 10,2.178 2.016,0.476 3.929,0.923 4.25,0.993 0.588,0.128 4.332,1.094 7.416,1.912 2.889,0.767 10.61,2.911 12,3.333 8.373,2.537 12.395,3.851 17.5,5.717 7.611,2.781 13.435,5.617 15.804,7.698 0.612,0.537 0.647,0.546 1.329,0.345 1.529,-0.452 4.5,-2.13 5.784,-3.268 0.775,-0.687 0.961,-0.652 3.335,0.646 l 2.234,1.222 0.517,-1.281 c 2.904,-7.203 7.332,-6.935 18.997,1.148 1.07,0.741 4.464,1.88 5.261,1.765 12.791,-1.843 37.452,-12.083 46.147,-19.159 l 1.272,-1.036 1.053,0.636 c 1.743,1.054 2.933,1.076 5.531,0.1 2.198,-0.825 3.539,-1.021 5.291,-0.773 1.564,0.221 1.725,0.377 1.302,1.262 -0.994,2.086 0.985,9.052 3.524,12.401 1.821,2.403 3.342,2.915 6.21,2.09 0.775,-0.223 2.084,-0.561 2.909,-0.752 0.825,-0.191 1.8,-0.419 2.167,-0.507 7.762,-1.857 22.608,-3.242 36.75,-3.428 3.529,-0.047 7.617,-0.156 9.083,-0.244 32.207,-1.928 55.195,0.595 72.5,7.958 4.783,2.035 11.25,5.422 11.25,5.892 0,0.896 1.55,0.666 3.588,-0.533 4.989,-2.934 6.998,-3.485 9.599,-2.632 0.972,0.319 1.257,0.337 3.313,0.21 5.225,-0.324 6.521,-0.126 8.237,1.256 l 0.653,0.527 0.994,-1.796 c 2.907,-5.248 2.788,-5.059 3.084,-4.894 0.154,0.086 0.28,0.285 0.281,0.442 0.006,1.267 4.109,1.551 10.418,0.722 5.992,-0.788 13.227,-2.263 14.77,-3.011 0.811,-0.393 2.957,0.344 3.592,1.234 0.945,1.325 0.406,3.27 -2.722,9.838 -4.455,9.352 -6.4,14.356 -7.955,20.47 -0.6,2.362 -0.772,3.174 -1.437,6.82 -0.651,3.572 -0.822,6.031 -0.827,11.917 -0.006,7.744 0.107,8.645 1.405,11.236 0.846,1.69 1.439,2.956 3.011,6.43 4.847,10.713 9.105,24.644 10.979,35.917 1.671,10.05 2.087,15.29 2.086,26.25 -10e-4,9.336 -0.311,14.49 -1.335,22.167 -0.135,1.008 -0.319,2.433 -0.41,3.166 -0.09,0.734 -0.233,1.709 -0.316,2.167 -0.084,0.458 -0.273,1.621 -0.421,2.583 -0.147,0.963 -0.372,2.313 -0.499,3 -0.127,0.688 -0.354,1.925 -0.505,2.75 -0.363,1.981 -1.542,7.822 -1.75,8.667 -0.09,0.367 -0.547,2.392 -1.015,4.5 -1.167,5.261 -1.454,6.504 -2.673,11.583 -5.586,23.269 -5.651,33.21 -0.255,38.958 0.771,0.821 0.274,1.152 -0.892,0.594 -1.513,-0.724 -7.843,-2.357 -12.24,-3.156 -11.771,-2.142 -18.556,-2.31 -17.324,-0.43 0.347,0.53 0.243,0.626 -2.684,2.471 -14.105,8.891 -29.888,7.532 -35.287,-3.04 -0.858,-1.681 -0.838,-1.676 -1.217,-0.272 -4.142,15.352 -27.193,20.417 -57.731,12.684 -6.637,-1.68 -17.067,-5.221 -20.415,-6.93 -1.357,-0.692 -12.689,-2.155 -21.016,-2.712 -1.375,-0.092 -2.838,-0.202 -3.25,-0.245 -0.413,-0.043 -1.838,-0.121 -3.167,-0.175 -1.329,-0.053 -2.604,-0.126 -2.833,-0.163 -0.229,-0.036 -1.43,-0.108 -2.667,-0.161 -1.238,-0.052 -3.825,-0.167 -5.75,-0.257 -1.925,-0.089 -4.437,-0.201 -5.583,-0.249 -1.146,-0.049 -2.796,-0.126 -3.667,-0.173 -0.871,-0.047 -4.058,-0.196 -7.083,-0.332 -8.767,-0.392 -18.502,-0.994 -22.834,-1.411 -9.962,-0.958 -14.258,-1.522 -20.833,-2.733 -6.026,-1.111 -11.969,-2.784 -16.434,-4.628 l -1.6,-0.661 0.266,-0.74 c 0.487,-1.354 -0.246,-1.729 -2.786,-1.421 -3.531,0.427 -11.792,3.159 -17.439,5.768 -0.692,0.319 -1.3,0.581 -1.351,0.581 -0.152,0 -3.995,1.925 -4.645,2.327 -0.817,0.504 -0.758,0.551 -4.73,-3.781 -3.007,-3.281 -4.274,-4.732 -5.785,-6.628 l -0.504,-0.632 -0.546,0.282 c -1.659,0.858 -6.705,0.633 -11.456,-0.512 -0.275,-0.066 -0.406,0.055 -0.656,0.609 -2.207,4.895 -23.671,14.724 -27.161,12.438 -0.431,-0.283 -0.689,-0.303 -2.576,-0.202 -12.598,0.676 -23.992,2.075 -28.89,3.547 -1.556,0.468 -1.595,0.465 -1.706,-0.11 -0.04,-0.206 -0.443,-1.098 -0.895,-1.981 -4.94,-9.641 -7.728,-22.324 -9.056,-41.19 -0.292,-4.153 -0.292,-23.296 0,-28.084 0.81,-13.284 1.709,-23.138 2.962,-32.475 0.137,-1.022 0.324,-2.458 0.415,-3.191 0.55,-4.416 2.163,-14.702 3.242,-20.667 0.149,-0.825 0.336,-1.875 0.415,-2.333 0.079,-0.459 0.498,-2.521 0.93,-4.584 0.432,-2.062 0.819,-4.106 0.86,-4.542 0.054,-0.568 0.182,-0.877 0.455,-1.091 3.555,-2.797 5.657,-33.89 4.667,-69.033 C 16.732,23.421 15.425,9.711 14.168,9.382 13.863,9.302 10.833,3.954 10.833,3.494 c 0,-0.373 0.221,-0.522 0.995,-0.674 0.324,-0.063 0.626,-0.123 0.672,-0.133 0.046,-0.009 1.096,0.094 2.333,0.23 m 253.882,14.707 c 0.623,0.032 1.598,0.032 2.167,-10e-4 0.569,-0.032 0.06,-0.059 -1.132,-0.058 -1.192,0 -1.657,0.027 -1.035,0.059 M 95.667,244.417 c 0.311,0.32 0.603,0.583 0.648,0.583 0.046,0 -0.171,-0.263 -0.482,-0.583 -0.311,-0.321 -0.603,-0.584 -0.648,-0.584 -0.046,0 0.171,0.263 0.482,0.584"
         style="fill:#ffffff;fill-rule:evenodd;stroke:none" />
      <path
         style="fill:#0b0b0b;fill-rule:evenodd;stroke:none"
         inkscape:connector-curvature="0"
         id="path1"
         d="m 11.208,3.024 c -0.206,0.107 -0.375,0.279 -0.375,0.383 0,0.471 3.138,5.929 3.381,5.881 0.596,-0.117 1.64,5.758 2.037,11.462 0.057,0.825 0.134,1.762 0.171,2.083 0.038,0.321 0.148,1.971 0.245,3.667 0.098,1.696 0.21,3.608 0.249,4.25 0.996,16.448 0.644,49.697 -0.676,63.917 -0.809,8.706 -2.175,15.019 -3.444,15.907 -0.332,0.233 -0.45,0.702 -1.545,6.176 -1.712,8.559 -3.673,20.561 -4.752,29.083 -1.297,10.251 -2.324,20.677 -2.751,27.917 -0.054,0.917 -0.133,2.117 -0.176,2.667 -2.242,28.874 1.321,57.581 9.032,72.769 0.401,0.79 0.729,1.555 0.729,1.699 0,0.388 0.248,0.473 0.778,0.266 3.701,-1.45 14.873,-2.945 27.836,-3.727 3.781,-0.228 3.877,-0.226 4.5,0.102 4.042,2.127 25.066,-7.63 27.141,-12.595 0.199,-0.477 0.33,-0.601 0.545,-0.518 2.979,1.151 10.003,1.418 11.811,0.45 0.308,-0.164 0.427,-0.079 1.104,0.793 1.228,1.581 5.278,6.131 7.505,8.433 l 2.064,2.132 0.567,-0.428 c 2.224,-1.682 14.577,-6.611 20.399,-8.139 2.166,-0.569 5.146,-0.811 5.783,-0.47 0.338,0.181 0.376,1.155 0.071,1.831 -0.094,0.21 0.135,0.371 1.097,0.772 7.498,3.125 17.895,5.391 31.549,6.875 6.217,0.676 17.654,1.507 25.25,1.835 2.154,0.093 4.367,0.205 4.917,0.25 0.55,0.045 2.237,0.123 3.75,0.173 1.512,0.051 3.313,0.124 4,0.164 0.688,0.04 3.162,0.15 5.5,0.245 2.338,0.095 4.775,0.207 5.417,0.249 0.641,0.042 2.141,0.123 3.333,0.179 10.722,0.508 20.527,1.399 27.417,2.492 3.518,0.558 3.211,0.477 5.783,1.525 20.567,8.376 41.263,11.673 56.217,8.955 10.699,-1.944 17.996,-7.452 20.342,-15.353 0.485,-1.633 0.466,-1.625 0.981,-0.415 1.917,4.509 7.08,8.285 12.677,9.271 0.32,0.056 0.771,0.142 1,0.19 3.802,0.795 10.423,-0.244 15.666,-2.46 4.069,-1.719 9.164,-4.833 8.904,-5.442 -0.53,-1.24 0.051,-1.438 4.18,-1.43 6.658,0.013 21.993,2.9 25.81,4.86 0.796,0.408 0.906,0.02 0.231,-0.813 -2.67,-3.29 -3.666,-6.675 -3.691,-12.554 -0.032,-7.389 0.637,-11.438 4.882,-29.515 3.123,-13.297 4.537,-20.104 5.83,-28.068 0.322,-1.979 1.088,-7.557 1.271,-9.25 0.059,-0.55 0.137,-1.225 0.173,-1.5 1.289,-9.887 1.285,-27.281 -0.009,-36.667 -0.038,-0.275 -0.226,-1.662 -0.419,-3.083 -0.285,-2.106 -0.831,-5.397 -1.418,-8.552 -1.451,-7.799 -5.984,-22.689 -8.735,-28.698 -0.084,-0.183 -0.691,-1.571 -1.349,-3.083 -0.657,-1.513 -1.886,-4.177 -2.73,-5.92 l -1.534,-3.17 -0.236,-2.247 c -1.513,-14.405 1.412,-28.012 9.798,-45.58 3.584,-7.508 4.061,-9.403 2.688,-10.663 -0.795,-0.728 -2.195,-1.071 -3.203,-0.783 -4.961,1.415 -12.241,2.769 -17.256,3.208 -4.837,0.424 -7.768,0.057 -8.018,-1.005 -0.196,-0.831 -0.524,-0.43 -2.35,2.877 l -1.878,3.402 -0.762,-0.585 c -1.314,-1.009 -3.609,-1.704 -4.83,-1.464 -2.132,0.419 -5.694,0.414 -6.791,-0.009 -2.26,-0.872 -4.283,-0.299 -9.474,2.682 -2.055,1.179 -3.247,1.389 -3.492,0.616 -0.191,-0.602 -6.985,-4.154 -11.696,-6.115 -11.188,-4.659 -22.21,-6.921 -39.729,-8.152 -3.693,-0.26 -23.921,-0.216 -27.583,0.059 -1.284,0.097 -5.634,0.25 -9.667,0.341 -4.033,0.09 -8.271,0.203 -9.417,0.251 -5.17,0.215 -6.465,0.276 -7.166,0.34 -0.413,0.037 -1.463,0.113 -2.334,0.167 -10.447,0.653 -20.726,2.216 -27.395,4.166 -3.21,0.938 -5.438,-0.449 -7.523,-4.686 -1.801,-3.66 -2.822,-8.537 -2.073,-9.904 0.451,-0.821 0.385,-0.935 -0.673,-1.159 -1.471,-0.312 -3.499,-0.147 -5.002,0.408 -3.542,1.306 -4.487,1.33 -6.431,0.159 l -0.969,-0.583 -0.425,0.347 c -7.69,6.281 -23.1,13.393 -39.175,18.081 -7.907,2.305 -10.012,2.178 -14.337,-0.864 -10.196,-7.175 -14.942,-7.221 -17.75,-0.174 -0.556,1.394 0.043,1.529 -4.378,-0.986 l -0.714,-0.406 -1.1,0.824 c -3.456,2.588 -6.212,3.674 -7.053,2.779 C 87.074,21.883 61.67,13.141 33.75,6.602 32.742,6.366 31.252,6.017 30.439,5.827 21.754,3.795 12.366,2.427 11.208,3.024 m 3.959,0.558 c 0.32,0.021 0.837,0.094 1.147,0.163 0.31,0.068 0.76,0.145 1,0.171 1.383,0.147 2.279,0.296 2.353,0.392 0.045,0.06 0.308,0.117 0.583,0.127 0.706,0.027 2.101,0.223 2.253,0.317 0.07,0.043 0.38,0.114 0.687,0.158 0.581,0.081 1.039,0.17 1.893,0.366 0.275,0.062 0.613,0.131 0.75,0.152 0.234,0.035 1.385,0.276 2.334,0.488 0.229,0.051 0.962,0.2 1.629,0.331 0.667,0.131 1.273,0.276 1.347,0.322 0.074,0.046 0.354,0.123 0.621,0.172 0.796,0.146 1.082,0.21 2.653,0.593 0.825,0.201 1.682,0.4 1.905,0.441 0.222,0.042 0.469,0.115 0.547,0.164 0.078,0.048 0.397,0.119 0.708,0.158 0.312,0.038 1.266,0.261 2.12,0.495 0.854,0.234 1.69,0.456 1.858,0.493 0.168,0.037 0.468,0.122 0.667,0.187 0.199,0.066 0.474,0.138 0.611,0.159 0.138,0.022 0.4,0.077 0.584,0.123 0.76,0.193 1.855,0.461 2.166,0.532 0.184,0.041 0.859,0.228 1.5,0.416 0.642,0.187 1.346,0.379 1.565,0.426 0.218,0.048 1.456,0.387 2.75,0.755 1.293,0.368 2.532,0.705 2.753,0.751 0.22,0.045 0.539,0.156 0.708,0.246 0.169,0.091 0.308,0.122 0.308,0.07 0,-0.052 0.155,-0.012 0.344,0.089 0.189,0.101 0.489,0.217 0.666,0.256 0.178,0.039 0.479,0.106 0.67,0.148 0.489,0.108 0.689,0.167 2.653,0.781 0.962,0.301 1.788,0.556 1.833,0.565 0.046,0.01 0.384,0.104 0.75,0.209 0.367,0.106 0.742,0.202 0.834,0.214 0.091,0.011 0.302,0.094 0.469,0.183 0.166,0.089 0.429,0.188 0.583,0.219 0.155,0.032 0.918,0.266 1.698,0.52 0.779,0.254 1.454,0.473 1.5,0.486 0.045,0.013 0.308,0.084 0.583,0.158 0.275,0.074 0.594,0.208 0.708,0.299 0.115,0.09 0.209,0.124 0.209,0.076 0,-0.049 0.956,0.248 2.125,0.66 1.168,0.411 2.387,0.825 2.708,0.919 0.321,0.094 0.733,0.253 0.917,0.353 0.183,0.1 0.412,0.196 0.508,0.212 0.263,0.046 5.382,1.998 6.242,2.381 0.412,0.184 0.825,0.345 0.916,0.359 0.092,0.014 0.268,0.109 0.392,0.212 0.124,0.102 0.329,0.202 0.456,0.22 1.022,0.15 6.699,3.347 7.933,4.467 0.769,0.699 1.525,0.847 2.274,0.446 0.199,-0.107 0.362,-0.16 0.362,-0.119 0,0.041 0.451,-0.144 1.003,-0.411 0.551,-0.267 1.032,-0.485 1.068,-0.485 0.067,0 2.701,-1.7 3.019,-1.948 0.096,-0.075 0.326,-0.267 0.512,-0.426 0.375,-0.323 0.95,-0.127 2.48,0.844 0.546,0.347 2.747,1.53 2.846,1.53 0.015,0 0.156,-0.357 0.315,-0.792 0.159,-0.435 0.41,-1.054 0.558,-1.375 0.148,-0.321 0.273,-0.621 0.277,-0.667 0.163,-1.862 3.103,-3.861 5.526,-3.755 1.814,0.079 6.396,1.831 6.396,2.446 0,0.089 0.066,0.122 0.147,0.072 0.176,-0.109 4.581,2.774 5.108,3.342 0.589,0.636 2.511,1.556 3.41,1.632 0.443,0.038 0.961,0.153 1.153,0.255 0.192,0.103 0.349,0.15 0.349,0.106 0,-0.044 0.214,-0.006 0.476,0.086 0.357,0.124 0.909,0.077 2.208,-0.189 0.953,-0.196 1.882,-0.374 2.066,-0.396 0.183,-0.022 0.595,-0.124 0.916,-0.227 0.321,-0.103 0.809,-0.226 1.084,-0.273 0.275,-0.047 1.118,-0.267 1.875,-0.488 0.756,-0.222 1.375,-0.373 1.375,-0.336 0,0.037 0.224,-0.049 0.498,-0.19 0.274,-0.142 0.518,-0.249 0.542,-0.237 0.023,0.011 0.343,-0.06 0.71,-0.159 0.366,-0.098 0.704,-0.177 0.75,-0.175 0.045,0.002 0.383,-0.123 0.75,-0.278 0.366,-0.155 1.004,-0.378 1.416,-0.495 0.413,-0.118 1.463,-0.471 2.334,-0.786 0.87,-0.314 1.658,-0.594 1.75,-0.622 0.091,-0.028 0.408,-0.152 0.703,-0.275 0.295,-0.123 0.638,-0.224 0.764,-0.224 0.125,0 0.283,-0.057 0.352,-0.125 0.069,-0.069 0.175,-0.129 0.236,-0.132 0.182,-0.012 1.4,-0.443 2.028,-0.718 0.321,-0.14 0.621,-0.262 0.667,-0.271 0.045,-0.009 0.252,-0.11 0.458,-0.224 0.206,-0.115 0.375,-0.159 0.375,-0.099 0,0.06 0.112,0.016 0.25,-0.098 0.137,-0.114 0.25,-0.152 0.25,-0.083 0,0.068 0.094,0.047 0.208,-0.047 0.115,-0.094 1.146,-0.563 2.292,-1.042 1.146,-0.48 2.633,-1.125 3.304,-1.434 0.671,-0.308 1.255,-0.561 1.296,-0.561 0.389,0 8.882,-4.409 10.733,-5.572 1.643,-1.032 3.792,-2.516 4.542,-3.137 0.435,-0.36 0.792,-0.602 0.792,-0.538 0,0.065 0.134,-0.048 0.298,-0.251 L 176.263,7.467 177.166,8 c 1.614,0.951 3.594,1.041 5.417,0.245 1.194,-0.521 1.328,-0.571 1.75,-0.643 0.23,-0.039 0.613,-0.148 0.854,-0.241 0.544,-0.212 3.272,-0.136 3.505,0.098 0.113,0.112 0.117,0.279 0.012,0.481 -0.087,0.171 -0.133,1.022 -0.102,1.893 0.061,1.666 0.087,1.894 0.319,2.834 0.079,0.32 0.15,0.62 0.159,0.666 0.254,1.381 2.023,5.446 2.966,6.818 0.572,0.831 2.213,2.668 2.413,2.702 0.068,0.011 0.312,0.093 0.541,0.182 0.817,0.318 1.269,0.382 2.714,0.382 1.007,0 1.506,-0.067 1.596,-0.213 0.072,-0.116 0.276,-0.245 0.452,-0.286 0.177,-0.041 0.603,-0.144 0.946,-0.229 0.344,-0.085 0.626,-0.106 0.628,-0.046 10e-4,0.059 0.059,0.019 0.127,-0.089 0.069,-0.108 0.424,-0.232 0.789,-0.276 0.366,-0.044 0.881,-0.164 1.146,-0.267 0.265,-0.103 0.519,-0.15 0.564,-0.105 0.045,0.045 0.206,0.016 0.357,-0.065 0.235,-0.126 1.035,-0.292 2.014,-0.419 0.138,-0.017 0.5,-0.09 0.805,-0.16 0.577,-0.133 1.072,-0.216 1.981,-0.333 0.295,-0.038 0.67,-0.111 0.834,-0.161 0.337,-0.104 1.476,-0.266 2.464,-0.351 0.366,-0.032 1.027,-0.14 1.469,-0.24 0.441,-0.101 0.858,-0.149 0.925,-0.107 0.068,0.042 0.42,0.011 0.781,-0.068 0.709,-0.155 1.911,-0.292 3.7,-0.422 0.618,-0.045 1.312,-0.119 1.541,-0.165 0.436,-0.086 2.042,-0.214 4.167,-0.33 0.688,-0.038 1.813,-0.113 2.5,-0.167 2.204,-0.173 3.689,-0.248 6.417,-0.323 1.466,-0.04 2.798,-0.123 2.958,-0.185 0.16,-0.062 0.292,-0.039 0.292,0.051 0,0.104 0.284,0.109 0.791,0.012 0.436,-0.082 1.317,-0.15 1.959,-0.149 3.355,0.004 10.011,-0.133 11.25,-0.231 8.558,-0.679 28.205,-0.675 35.166,0.007 0.688,0.067 1.513,0.138 1.834,0.158 0.32,0.019 0.995,0.079 1.5,0.132 0.504,0.053 1.291,0.134 1.75,0.18 1.888,0.189 2.522,0.266 2.946,0.356 0.246,0.052 0.808,0.127 1.25,0.165 0.974,0.084 1.808,0.2 2.451,0.34 0.264,0.058 0.677,0.124 0.917,0.148 0.772,0.075 2.099,0.288 2.21,0.355 0.06,0.036 0.427,0.105 0.816,0.154 0.389,0.049 0.764,0.124 0.833,0.166 0.07,0.043 0.453,0.119 0.851,0.168 0.399,0.05 1.026,0.174 1.392,0.277 0.367,0.102 0.779,0.203 0.917,0.223 0.778,0.115 1.419,0.277 1.496,0.379 0.048,0.063 0.275,0.128 0.504,0.144 0.564,0.038 2.398,0.472 2.65,0.628 0.111,0.069 0.367,0.15 0.568,0.18 0.591,0.088 1.104,0.221 1.285,0.332 0.093,0.058 0.374,0.14 0.625,0.184 0.406,0.071 3.566,1.081 4.205,1.345 0.138,0.057 0.325,0.121 0.417,0.143 0.2,0.049 2.132,0.79 2.833,1.087 0.275,0.116 0.538,0.224 0.584,0.239 0.045,0.016 0.294,0.116 0.552,0.223 0.258,0.107 0.507,0.194 0.552,0.194 0.863,0 10.867,5.324 11.211,5.966 0.416,0.777 2.176,0.76 3.169,-0.03 0.128,-0.102 0.241,-0.154 0.25,-0.116 0.008,0.039 0.347,-0.139 0.752,-0.395 0.405,-0.256 0.93,-0.551 1.167,-0.655 0.236,-0.105 0.73,-0.381 1.097,-0.614 2.79,-1.771 4.759,-2.085 7.416,-1.182 0.138,0.046 1.225,0.067 2.417,0.045 6.588,-0.121 6.073,-0.148 7.144,0.37 0.537,0.259 1.311,0.78 1.72,1.157 0.606,0.559 0.773,0.641 0.905,0.445 0.201,-0.301 1.102,-1.952 1.622,-2.973 0.214,-0.422 0.511,-0.903 0.658,-1.068 0.147,-0.164 0.282,-0.4 0.3,-0.524 0.018,-0.123 0.231,-0.563 0.474,-0.976 l 0.441,-0.752 0.743,0.415 c 1.278,0.715 6.777,0.895 9.457,0.31 0.317,-0.069 1.279,-0.196 2.536,-0.334 0.183,-0.02 0.652,-0.092 1.042,-0.161 0.886,-0.155 1.449,-0.241 2.262,-0.343 0.351,-0.045 0.696,-0.117 0.768,-0.161 0.072,-0.045 0.46,-0.127 0.862,-0.185 1.16,-0.164 1.336,-0.197 2.483,-0.467 1.273,-0.3 1.945,-0.442 2.448,-0.518 0.201,-0.031 0.433,-0.097 0.515,-0.148 0.081,-0.05 0.367,-0.131 0.634,-0.18 1.025,-0.188 1.225,-0.242 1.559,-0.42 0.189,-0.102 0.344,-0.135 0.344,-0.075 0,0.06 0.111,0.017 0.248,-0.096 0.168,-0.14 0.451,-0.164 0.875,-0.077 0.345,0.071 0.732,0.149 0.86,0.174 0.128,0.025 0.296,0.145 0.372,0.265 0.077,0.121 0.141,0.161 0.142,0.089 0.007,-0.349 0.667,0.284 0.838,0.804 0.213,0.644 -0.008,2.474 -0.379,3.148 -0.104,0.19 -0.212,0.475 -0.238,0.634 -0.027,0.159 -0.414,1.059 -0.86,2 -0.446,0.941 -0.947,2.011 -1.113,2.378 -0.166,0.367 -0.38,0.768 -0.475,0.892 -0.095,0.124 -0.188,0.311 -0.206,0.416 -0.019,0.106 -0.541,1.242 -1.161,2.525 -0.62,1.284 -1.145,2.409 -1.166,2.5 -0.034,0.142 -0.479,1.174 -1.653,3.834 -0.121,0.275 -0.499,1.25 -0.839,2.166 -0.341,0.917 -0.681,1.691 -0.756,1.719 -0.076,0.029 -0.098,0.155 -0.05,0.279 0.047,0.124 -0.01,0.401 -0.127,0.614 -0.117,0.214 -0.227,0.463 -0.245,0.555 -0.017,0.092 -0.345,1.179 -0.729,2.417 -0.384,1.237 -0.727,2.387 -0.761,2.555 -0.035,0.167 -0.117,0.467 -0.183,0.666 -0.066,0.199 -0.138,0.474 -0.16,0.612 -0.078,0.49 -0.249,1.255 -0.354,1.583 -0.058,0.184 -0.122,0.446 -0.142,0.584 -0.02,0.137 -0.124,0.662 -0.231,1.166 -0.108,0.504 -0.225,1.131 -0.262,1.393 -0.037,0.261 -0.113,0.62 -0.169,0.797 -0.057,0.177 -0.129,0.563 -0.161,0.858 -0.103,0.95 -0.25,2.025 -0.335,2.452 -0.515,2.579 -0.844,11.747 -0.498,13.917 0.043,0.275 0.121,1.175 0.173,2 0.174,2.768 0.215,3.049 0.499,3.484 0.156,0.238 0.226,0.433 0.156,0.433 -0.071,0 -0.016,0.131 0.122,0.291 0.138,0.161 0.642,1.117 1.119,2.125 0.478,1.009 1.018,2.113 1.2,2.454 0.182,0.341 0.321,0.641 0.309,0.667 -0.013,0.025 0.283,0.707 0.658,1.514 0.375,0.808 0.682,1.508 0.682,1.557 0,0.048 0.231,0.587 0.513,1.197 0.282,0.61 0.523,1.241 0.536,1.402 0.012,0.161 0.081,0.293 0.153,0.293 0.072,0 0.131,0.07 0.131,0.155 0,0.086 0.087,0.367 0.194,0.625 0.107,0.259 0.206,0.507 0.221,0.553 0.014,0.046 0.111,0.271 0.216,0.5 0.252,0.55 1.71,4.409 2.28,6.035 0.247,0.707 0.402,1.363 0.343,1.459 -0.059,0.095 -0.036,0.173 0.051,0.173 0.141,0 0.219,0.189 0.481,1.166 0.037,0.138 0.075,0.344 0.085,0.459 0.01,0.114 0.093,0.208 0.185,0.208 0.091,0 0.117,0.049 0.057,0.11 -0.061,0.06 -0.041,0.193 0.044,0.295 0.085,0.102 0.303,0.709 0.486,1.349 0.182,0.639 0.446,1.538 0.586,1.996 0.14,0.458 0.292,1.021 0.339,1.25 0.046,0.229 0.197,0.729 0.335,1.11 0.233,0.642 0.4,1.276 0.498,1.89 0.022,0.138 0.094,0.413 0.16,0.612 0.12,0.361 0.24,0.844 0.366,1.471 0.036,0.184 0.183,0.746 0.325,1.25 0.142,0.504 0.226,1.045 0.187,1.201 -0.039,0.156 -0.007,0.306 0.07,0.333 0.077,0.027 0.185,0.306 0.239,0.619 0.055,0.313 0.127,0.613 0.159,0.667 0.057,0.093 0.237,1.03 0.343,1.789 0.028,0.197 0.103,0.523 0.167,0.725 0.064,0.201 0.14,0.527 0.17,0.725 0.03,0.197 0.098,0.647 0.152,1.001 0.053,0.354 0.132,0.699 0.174,0.768 0.042,0.068 0.118,0.454 0.168,0.857 0.05,0.402 0.123,0.844 0.162,0.982 0.094,0.331 0.263,1.429 0.34,2.209 0.034,0.344 0.102,0.756 0.151,0.916 0.1,0.325 0.251,1.412 0.35,2.522 0.036,0.401 0.106,0.926 0.155,1.166 0.128,0.623 0.283,2.253 0.337,3.542 0.025,0.607 0.091,1.178 0.147,1.268 0.055,0.089 0.141,0.83 0.191,1.645 0.049,0.815 0.142,2.344 0.206,3.399 0.153,2.504 0.152,15.512 0,18.083 -0.066,1.1 -0.156,2.637 -0.202,3.417 -0.046,0.779 -0.121,1.604 -0.167,1.833 -0.047,0.229 -0.121,0.942 -0.167,1.583 -0.152,2.175 -0.247,3.166 -0.346,3.626 -0.054,0.253 -0.124,0.778 -0.156,1.167 -0.093,1.149 -0.252,2.513 -0.339,2.912 -0.044,0.204 -0.117,0.729 -0.162,1.166 -0.044,0.438 -0.121,0.984 -0.171,1.213 -0.111,0.512 -0.268,1.661 -0.273,2 -0.002,0.137 -0.072,0.523 -0.155,0.857 -0.084,0.333 -0.186,0.896 -0.227,1.25 -0.116,0.99 -0.237,1.761 -0.363,2.309 -0.064,0.275 -0.13,0.613 -0.148,0.75 -0.103,0.801 -0.273,1.792 -0.352,2.059 -0.05,0.169 -0.116,0.469 -0.146,0.666 -0.029,0.197 -0.141,0.809 -0.248,1.359 -0.108,0.55 -0.193,1.131 -0.19,1.291 0.002,0.161 -0.05,0.292 -0.116,0.292 -0.066,0 -0.128,0.131 -0.136,0.292 -0.026,0.479 -0.227,1.605 -0.498,2.791 -0.063,0.275 -0.131,0.613 -0.151,0.75 -0.133,0.908 -0.294,1.621 -0.418,1.853 -0.079,0.149 -0.107,0.307 -0.062,0.352 0.045,0.045 0.002,0.293 -0.096,0.55 -0.097,0.257 -0.212,0.699 -0.255,0.982 -0.113,0.741 -0.18,1.078 -0.404,2.013 -0.11,0.459 -0.225,0.946 -0.255,1.084 -0.031,0.137 -0.144,0.625 -0.251,1.083 -0.107,0.458 -0.23,1.016 -0.272,1.238 -0.043,0.223 -0.108,0.454 -0.145,0.514 -0.038,0.06 -0.115,0.366 -0.174,0.679 -0.143,0.769 -0.211,1.069 -0.243,1.069 -0.014,0 -0.051,0.15 -0.081,0.333 -0.072,0.444 -0.213,1.034 -0.344,1.447 -0.059,0.185 -0.131,0.498 -0.16,0.695 -0.03,0.197 -0.091,0.508 -0.137,0.692 -0.209,0.844 -0.479,2.038 -0.546,2.416 -0.04,0.23 -0.116,0.529 -0.167,0.667 -0.051,0.137 -0.131,0.438 -0.178,0.667 -0.146,0.721 -0.193,0.916 -0.22,0.916 -0.015,0 -0.052,0.15 -0.082,0.334 -0.105,0.627 -0.268,1.31 -0.342,1.429 -0.041,0.066 -0.112,0.427 -0.16,0.803 -0.047,0.375 -0.198,1.114 -0.337,1.641 -0.138,0.528 -0.29,1.185 -0.337,1.46 -0.047,0.275 -0.201,0.95 -0.342,1.5 -0.246,0.956 -0.311,1.285 -0.477,2.42 -0.041,0.278 -0.116,0.572 -0.167,0.655 -0.051,0.082 -0.125,0.437 -0.165,0.787 -0.077,0.674 -0.197,1.366 -0.356,2.055 -0.053,0.229 -0.125,0.679 -0.161,1 -0.035,0.32 -0.107,0.771 -0.16,1 -0.104,0.456 -0.173,0.952 -0.323,2.315 -0.054,0.494 -0.132,0.952 -0.173,1.017 -0.366,0.592 -0.365,10.578 0.001,11.17 0.083,0.135 0.262,1.209 0.304,1.831 0.015,0.229 0.086,0.46 0.157,0.512 0.071,0.053 0.158,0.24 0.195,0.417 0.036,0.177 0.173,0.583 0.305,0.904 0.445,1.088 0.509,1.25 0.524,1.334 0.009,0.046 0.184,0.354 0.39,0.686 0.205,0.332 0.374,0.679 0.374,0.771 0,0.093 0.114,0.263 0.254,0.379 0.139,0.116 0.216,0.249 0.169,0.296 -0.047,0.047 0.045,0.18 0.204,0.296 0.42,0.307 0.165,0.447 -0.396,0.217 -0.574,-0.235 -0.676,-0.266 -1.281,-0.391 -0.257,-0.054 -0.782,-0.199 -1.167,-0.324 -0.697,-0.226 -1.458,-0.42 -1.617,-0.411 -0.046,0.002 -0.291,-0.075 -0.546,-0.172 -0.441,-0.167 -0.734,-0.236 -1.87,-0.437 -0.275,-0.049 -0.65,-0.137 -0.834,-0.196 -0.183,-0.058 -0.446,-0.122 -0.583,-0.14 -0.473,-0.063 -1.417,-0.253 -1.725,-0.347 -0.169,-0.051 -0.469,-0.116 -0.667,-0.144 -0.802,-0.112 -1.709,-0.274 -1.988,-0.356 -0.163,-0.047 -0.527,-0.115 -0.809,-0.151 -0.282,-0.036 -0.636,-0.104 -0.787,-0.151 -0.151,-0.047 -0.612,-0.131 -1.024,-0.186 -1.279,-0.169 -1.396,-0.187 -2.145,-0.316 -0.786,-0.136 -0.967,-0.157 -2.854,-0.336 -0.687,-0.065 -1.314,-0.158 -1.393,-0.207 -0.079,-0.049 -1.467,-0.108 -3.084,-0.131 -4.141,-0.059 -5.566,0.499 -4.953,1.939 0.087,0.204 -0.141,0.44 -0.936,0.962 -0.578,0.38 -1.233,0.82 -1.455,0.979 -0.222,0.158 -0.465,0.269 -0.541,0.246 -0.077,-0.023 -0.139,0.033 -0.139,0.125 0,0.091 -0.074,0.166 -0.163,0.166 -0.09,0 -0.559,0.251 -1.042,0.557 -0.876,0.555 -3.576,1.895 -3.992,1.981 -0.121,0.025 -0.257,0.087 -0.303,0.138 -0.088,0.097 -1.533,0.659 -1.879,0.731 -0.112,0.023 -0.401,0.123 -0.642,0.222 -0.572,0.236 -2.162,0.669 -2.896,0.789 -0.183,0.03 -0.333,0.067 -0.333,0.081 0,0.044 -0.62,0.167 -1.324,0.264 -0.362,0.05 -0.715,0.126 -0.784,0.169 -0.619,0.383 -6.246,0.375 -8.06,-0.011 -3.55,-0.755 -5.88,-1.759 -8.195,-3.532 -1.682,-1.289 -3.926,-3.961 -3.6,-4.287 0.056,-0.056 0.016,-0.102 -0.09,-0.102 -0.105,0 -0.381,-0.375 -0.614,-0.833 -0.232,-0.458 -0.381,-0.833 -0.332,-0.833 0.05,0 -0.033,-0.188 -0.183,-0.417 -0.15,-0.229 -0.218,-0.417 -0.15,-0.417 0.068,0 0.049,-0.093 -0.041,-0.208 -0.091,-0.115 -0.214,-0.415 -0.274,-0.667 -0.168,-0.703 -0.556,-0.509 -0.462,0.232 0.007,0.058 -0.063,0.358 -0.157,0.666 -0.093,0.308 -0.208,0.748 -0.254,0.977 -1.058,5.249 -5.664,10.53 -11.494,13.18 -1.615,0.734 -4.111,1.608 -4.451,1.558 -0.157,-0.023 -0.285,0.019 -0.285,0.092 0,0.112 -0.633,0.291 -1.25,0.353 -0.092,0.009 -0.279,0.077 -0.417,0.15 -0.226,0.121 -0.977,0.283 -1.941,0.418 -0.198,0.027 -0.498,0.092 -0.667,0.145 -0.312,0.096 -1.321,0.248 -2.392,0.36 -0.321,0.034 -0.808,0.101 -1.083,0.149 -2.416,0.421 -11.814,0.425 -15.083,0.005 -0.716,-0.092 -1.798,-0.205 -2.965,-0.311 -0.484,-0.044 -1.009,-0.119 -1.166,-0.167 -0.157,-0.048 -0.661,-0.127 -1.119,-0.175 -1.308,-0.137 -2.142,-0.258 -2.463,-0.357 -0.163,-0.051 -0.501,-0.121 -0.75,-0.156 -1.205,-0.172 -3.781,-0.651 -4.037,-0.751 -0.046,-0.018 -0.133,-0.026 -0.193,-0.018 -0.061,0.009 -0.548,-0.101 -1.084,-0.244 -0.535,-0.142 -1.123,-0.284 -1.307,-0.315 -0.457,-0.077 -1.049,-0.216 -1.416,-0.332 -0.169,-0.054 -0.444,-0.126 -0.612,-0.16 -0.168,-0.034 -0.643,-0.146 -1.055,-0.248 -0.802,-0.198 -1.149,-0.279 -1.875,-0.436 -0.252,-0.055 -0.458,-0.162 -0.458,-0.238 0,-0.076 -0.128,-0.12 -0.285,-0.097 -0.157,0.023 -0.626,-0.064 -1.042,-0.193 -0.416,-0.129 -0.888,-0.262 -1.049,-0.297 -0.161,-0.034 -0.367,-0.108 -0.458,-0.165 -0.091,-0.056 -0.315,-0.135 -0.499,-0.176 -0.184,-0.04 -0.479,-0.106 -0.657,-0.145 -0.177,-0.04 -0.477,-0.155 -0.666,-0.256 -0.189,-0.102 -0.344,-0.152 -0.344,-0.111 0,0.04 -0.507,-0.111 -1.125,-0.335 -0.619,-0.224 -1.2,-0.429 -1.292,-0.455 -0.883,-0.251 -2.151,-0.664 -2.833,-0.923 -1.288,-0.49 -1.494,-0.568 -1.584,-0.599 -0.046,-0.016 -0.214,-0.078 -0.375,-0.139 -0.694,-0.263 -0.885,-0.33 -1.049,-0.366 -0.095,-0.021 -0.511,-0.192 -0.922,-0.379 -0.412,-0.188 -0.952,-0.392 -1.201,-0.455 -0.249,-0.062 -0.453,-0.18 -0.453,-0.262 0,-0.082 -0.056,-0.14 -0.125,-0.129 -0.068,0.011 -0.162,0.005 -0.208,-0.013 -0.046,-0.018 -0.196,-0.055 -0.333,-0.084 -0.138,-0.028 -0.692,-0.254 -1.232,-0.502 -0.539,-0.249 -1.244,-0.484 -1.564,-0.524 -0.321,-0.04 -0.642,-0.108 -0.713,-0.152 -0.07,-0.043 -0.454,-0.116 -0.851,-0.161 -0.729,-0.083 -1.39,-0.203 -1.39,-0.251 0,-0.015 -0.188,-0.047 -0.417,-0.073 -0.229,-0.026 -0.858,-0.096 -1.397,-0.157 -0.539,-0.06 -1.04,-0.147 -1.113,-0.192 -0.073,-0.046 -0.608,-0.126 -1.187,-0.179 -0.579,-0.052 -1.24,-0.121 -1.47,-0.152 -0.853,-0.116 -2.271,-0.273 -2.916,-0.324 -1.55,-0.122 -3.039,-0.266 -3.584,-0.346 -0.321,-0.047 -1.071,-0.116 -1.666,-0.154 -0.596,-0.038 -1.594,-0.115 -2.217,-0.172 -1.565,-0.141 -2.693,-0.215 -5.11,-0.337 -1.141,-0.058 -2.21,-0.177 -2.375,-0.265 -0.202,-0.109 -0.298,-0.101 -0.298,0.022 0,0.101 -0.079,0.134 -0.175,0.075 -0.096,-0.06 -0.828,-0.132 -1.625,-0.161 -5.302,-0.193 -6.408,-0.243 -7.45,-0.337 -0.642,-0.058 -1.992,-0.13 -3,-0.161 -5.367,-0.161 -7.876,-0.263 -8.25,-0.335 -0.229,-0.045 -1.767,-0.126 -3.417,-0.179 -1.65,-0.054 -3.488,-0.126 -4.083,-0.161 -1.168,-0.067 -3.653,-0.189 -6.584,-0.324 -1.008,-0.046 -2.245,-0.121 -2.75,-0.167 -1.097,-0.1 -4.413,-0.298 -5,-0.298 -0.229,-10e-4 -1.054,-0.064 -1.833,-0.142 -0.779,-0.077 -2.017,-0.178 -2.75,-0.223 -2.197,-0.137 -3.633,-0.252 -4.25,-0.34 -0.321,-0.047 -1.071,-0.123 -1.667,-0.171 -0.596,-0.047 -1.421,-0.123 -1.833,-0.169 -0.413,-0.046 -1.088,-0.121 -1.5,-0.167 -0.413,-0.046 -1.117,-0.116 -1.566,-0.155 -0.448,-0.04 -1.011,-0.115 -1.25,-0.166 -0.239,-0.051 -0.809,-0.126 -1.267,-0.167 -1.716,-0.155 -2.67,-0.292 -2.75,-0.397 -0.046,-0.06 -0.384,-0.116 -0.75,-0.124 -0.726,-0.017 -2.184,-0.197 -2.584,-0.319 -0.137,-0.042 -0.512,-0.112 -0.833,-0.157 -0.321,-0.044 -1.033,-0.164 -1.583,-0.266 -0.55,-0.102 -1.163,-0.21 -1.362,-0.239 -0.199,-0.03 -0.612,-0.112 -0.917,-0.183 -0.305,-0.07 -0.667,-0.144 -0.805,-0.164 -0.923,-0.135 -1.595,-0.289 -1.666,-0.382 -0.046,-0.059 -0.271,-0.117 -0.5,-0.127 -0.532,-0.025 -1.711,-0.24 -1.878,-0.342 -0.142,-0.088 -0.925,-0.257 -1.247,-0.27 -0.115,-0.004 -0.209,-0.054 -0.209,-0.111 0,-0.057 -0.131,-0.113 -0.291,-0.126 -0.594,-0.046 -1.163,-0.167 -1.36,-0.289 -0.111,-0.069 -0.427,-0.161 -0.701,-0.204 -1.455,-0.229 -7.849,-2.531 -7.7,-2.772 0.057,-0.093 0.024,-0.119 -0.074,-0.059 -0.428,0.265 -0.675,-0.06 -0.494,-0.65 0.476,-1.553 -1.659,-2.507 -4.172,-1.864 -0.298,0.076 -0.748,0.168 -1,0.204 -0.252,0.036 -1.058,0.226 -1.791,0.424 -0.733,0.197 -1.483,0.394 -1.667,0.437 -0.499,0.116 -0.626,0.157 -1.104,0.353 -0.241,0.1 -0.766,0.275 -1.167,0.389 -0.401,0.115 -0.766,0.221 -0.812,0.235 -0.046,0.014 -0.296,0.113 -0.556,0.221 -0.259,0.107 -0.541,0.153 -0.625,0.101 -0.084,-0.052 -0.152,-0.029 -0.152,0.051 0,0.116 -1.828,0.865 -2.375,0.974 -0.069,0.014 -0.163,0.044 -0.209,0.067 -0.046,0.023 -0.139,0.058 -0.208,0.078 -0.069,0.019 -0.404,0.16 -0.745,0.312 -0.34,0.152 -0.66,0.277 -0.71,0.277 -0.05,0 -0.408,0.143 -0.797,0.319 -1.425,0.645 -2.29,0.994 -2.29,0.924 0,-0.039 -0.267,0.079 -0.594,0.263 -0.326,0.183 -0.664,0.29 -0.75,0.237 -0.086,-0.053 -0.156,-0.03 -0.156,0.052 0,0.116 -1.778,1.035 -2.166,1.12 -0.258,0.056 -2.961,1.493 -3.192,1.697 -0.293,0.259 -2.808,-2.042 -2.808,-2.57 0,-0.126 -0.063,-0.19 -0.139,-0.143 -0.163,0.101 -3.63,-3.705 -3.57,-3.919 0.023,-0.081 -0.052,-0.15 -0.166,-0.153 -0.185,-0.005 -3.163,-3.48 -3.513,-4.1 -0.083,-0.145 -0.057,-0.343 0.062,-0.486 0.26,-0.314 -0.209,-0.343 -0.538,-0.033 -0.902,0.85 -2.012,1.079 -4.97,1.024 -1.237,-0.024 -2.437,-0.091 -2.666,-0.15 -0.229,-0.059 -0.642,-0.135 -0.917,-0.168 -1.213,-0.145 -1.769,-0.24 -1.908,-0.326 -0.082,-0.05 -0.361,-0.122 -0.621,-0.159 -0.833,-0.12 -1.586,-0.409 -1.79,-0.688 -0.181,-0.248 -0.218,-0.248 -0.419,-0.006 -0.173,0.208 -0.176,0.317 -0.018,0.508 0.466,0.56 -1.949,3.923 -2.817,3.923 -0.084,0 -0.262,0.109 -0.395,0.242 -0.304,0.304 -3.364,2.295 -4.155,2.704 -3.734,1.928 -5.987,3.043 -6.238,3.086 -0.168,0.028 -0.405,0.146 -0.527,0.262 -0.122,0.115 -0.291,0.167 -0.375,0.115 -0.085,-0.052 -0.154,-0.016 -0.154,0.081 0,0.098 -0.093,0.177 -0.208,0.178 -0.115,0.001 -0.396,0.098 -0.625,0.216 -0.229,0.119 -0.904,0.388 -1.5,0.6 -0.596,0.211 -1.196,0.426 -1.333,0.477 -0.138,0.052 -0.288,0.106 -0.334,0.12 -0.383,0.119 -1.6,0.483 -1.666,0.498 -0.046,0.01 -0.353,0.111 -0.682,0.224 -0.518,0.178 -1.153,0.305 -2.155,0.431 -0.139,0.018 -0.326,0.078 -0.416,0.133 -0.317,0.196 -2.335,0.024 -2.84,-0.241 -0.422,-0.222 -0.896,-0.253 -2.75,-0.18 -3.337,0.13 -3.979,0.165 -5.345,0.293 -1.241,0.116 -1.789,0.158 -4.479,0.338 -0.779,0.053 -1.529,0.129 -1.667,0.17 -0.137,0.04 -0.85,0.121 -1.583,0.179 -1.282,0.1 -2.195,0.195 -3.083,0.319 -0.229,0.032 -0.9,0.102 -1.491,0.156 -0.59,0.053 -1.19,0.133 -1.333,0.177 -0.276,0.085 -1.238,0.216 -2.579,0.353 -0.451,0.046 -0.871,0.116 -0.934,0.155 -0.064,0.039 -0.407,0.11 -0.764,0.157 -1.541,0.205 -1.738,0.236 -2.02,0.321 -0.163,0.05 -0.483,0.124 -0.713,0.165 -0.353,0.064 -1.37,0.294 -2.333,0.526 -0.138,0.033 -0.512,0.14 -0.833,0.236 -0.519,0.157 -0.613,0.136 -0.87,-0.199 -0.418,-0.544 -2.171,-4.187 -2.547,-5.292 -0.015,-0.046 -0.109,-0.27 -0.207,-0.5 -0.939,-2.184 -2.529,-6.805 -2.781,-8.083 -0.018,-0.092 -0.153,-0.579 -0.3,-1.083 -0.235,-0.807 -0.636,-2.602 -0.66,-2.956 -0.005,-0.07 -0.074,-0.3 -0.154,-0.511 -0.145,-0.379 -0.307,-1.113 -0.4,-1.808 -0.027,-0.198 -0.091,-0.498 -0.142,-0.667 -0.1,-0.329 -0.258,-1.186 -0.355,-1.929 -0.032,-0.249 -0.105,-0.598 -0.161,-0.774 -0.11,-0.347 -0.213,-1.006 -0.343,-2.193 -0.045,-0.414 -0.154,-1.006 -0.243,-1.315 -0.089,-0.309 -0.128,-0.614 -0.089,-0.678 0.04,-0.065 0.006,-0.373 -0.076,-0.685 -0.143,-0.551 -0.331,-1.962 -0.42,-3.151 -0.024,-0.321 -0.093,-0.921 -0.153,-1.333 -0.147,-0.999 -0.248,-2.108 -0.354,-3.899 -0.049,-0.815 -0.119,-1.532 -0.156,-1.592 -0.077,-0.125 -0.28,-3.413 -0.34,-5.509 -0.022,-0.78 -0.099,-2.88 -0.171,-4.667 -0.167,-4.141 -0.164,-10.432 0.005,-14.917 0.073,-1.925 0.15,-4.175 0.171,-5 0.072,-2.874 0.245,-6.486 0.322,-6.742 0.043,-0.142 0.128,-1.195 0.189,-2.341 0.132,-2.496 0.157,-2.862 0.306,-4.583 0.064,-0.734 0.143,-1.709 0.176,-2.167 0.187,-2.584 0.297,-3.745 0.42,-4.414 0.076,-0.411 0.104,-0.801 0.064,-0.866 -0.041,-0.066 0.001,-0.592 0.092,-1.17 0.153,-0.97 0.228,-1.686 0.434,-4.128 0.042,-0.501 0.114,-1.031 0.161,-1.178 0.047,-0.146 0.117,-0.674 0.157,-1.172 0.118,-1.479 0.272,-2.888 0.346,-3.155 0.037,-0.138 0.11,-0.7 0.162,-1.25 0.052,-0.55 0.123,-1.188 0.159,-1.417 0.201,-1.29 0.315,-2.268 0.28,-2.4 -0.021,-0.082 0.012,-0.27 0.074,-0.417 0.062,-0.146 0.133,-0.416 0.156,-0.6 0.103,-0.787 0.27,-2.353 0.277,-2.583 0.004,-0.138 0.076,-0.574 0.159,-0.97 0.083,-0.396 0.19,-1.033 0.236,-1.417 0.115,-0.949 0.193,-1.493 0.326,-2.28 0.062,-0.367 0.133,-0.836 0.159,-1.042 0.176,-1.418 0.298,-2.221 0.349,-2.304 0.033,-0.053 0.105,-0.5 0.162,-0.992 0.056,-0.493 0.135,-0.949 0.175,-1.014 0.04,-0.065 0.108,-0.443 0.151,-0.841 0.043,-0.398 0.109,-0.873 0.147,-1.057 0.091,-0.451 0.321,-1.774 0.362,-2.083 0.108,-0.824 0.274,-1.792 0.353,-2.058 0.05,-0.17 0.113,-0.47 0.139,-0.667 0.171,-1.276 0.297,-2.039 0.353,-2.133 0.036,-0.06 0.105,-0.427 0.154,-0.816 0.049,-0.389 0.124,-0.763 0.166,-0.832 0.042,-0.069 0.113,-0.377 0.156,-0.684 0.043,-0.308 0.119,-0.747 0.167,-0.977 0.086,-0.405 0.358,-1.858 0.522,-2.79 0.045,-0.253 0.129,-0.61 0.187,-0.793 0.059,-0.183 0.123,-0.446 0.143,-0.583 0.021,-0.138 0.121,-0.625 0.224,-1.084 0.103,-0.458 0.211,-0.983 0.241,-1.166 0.097,-0.598 0.308,-1.162 0.53,-1.417 0.234,-0.27 1.126,-1.977 1.175,-2.25 0.017,-0.092 0.162,-0.617 0.323,-1.167 0.161,-0.55 0.287,-1.017 0.28,-1.038 -0.008,-0.021 0.061,-0.284 0.153,-0.584 0.091,-0.299 0.189,-0.694 0.218,-0.878 0.029,-0.183 0.105,-0.671 0.171,-1.083 0.065,-0.413 0.172,-0.825 0.239,-0.917 0.066,-0.091 0.103,-0.354 0.082,-0.583 -0.021,-0.229 0.028,-0.679 0.108,-1 0.081,-0.321 0.189,-0.996 0.24,-1.5 0.213,-2.125 0.249,-2.444 0.336,-3 0.093,-0.586 0.181,-1.582 0.332,-3.75 0.045,-0.642 0.123,-1.429 0.173,-1.75 0.091,-0.578 0.135,-1.306 0.319,-5.333 0.053,-1.146 0.136,-2.496 0.184,-3 0.048,-0.505 0.119,-2.005 0.157,-3.334 0.037,-1.329 0.125,-3.766 0.194,-5.416 C 18.105,70.535 18.104,46.844 17.94,42.833 17.871,41.137 17.784,38.475 17.746,36.917 17.709,35.358 17.639,33.746 17.591,33.333 17.544,32.921 17.462,31.533 17.41,30.25 17.229,25.815 17.182,24.913 17.084,24 17.029,23.496 16.955,22.633 16.919,22.083 16.742,19.412 16.644,18.228 16.581,18 16.478,17.628 16.277,15.526 16.263,14.667 16.256,14.254 16.2,13.878 16.138,13.832 16.076,13.785 15.986,13.406 15.937,12.989 15.888,12.572 15.809,12.123 15.762,11.991 15.715,11.858 15.645,11.563 15.606,11.333 15.367,9.909 14.819,8.684 14.415,8.672 14.323,8.669 13.976,8.16 13.644,7.542 13.313,6.923 12.695,5.806 12.271,5.059 11.251,3.263 11.232,3.292 13.333,3.45 c 0.688,0.052 1.513,0.111 1.834,0.132" />
      <path
         style="fill:#7c7c7c;fill-rule:evenodd;stroke:none"
         inkscape:connector-curvature="0"
         id="path3"
         d="m 268.542,16.957 c 0.71,0.031 1.873,0.031 2.583,0 0.71,-0.031 0.129,-0.057 -1.292,-0.057 -1.421,0 -2.002,0.026 -1.291,0.057 m -22.834,1.329 c 0.252,0.038 0.665,0.038 0.917,0 0.252,-0.038 0.046,-0.069 -0.458,-0.069 -0.505,0 -0.711,0.031 -0.459,0.069" />
    </g>
    <path
       style="fill:none;stroke:#000000;stroke-width:1px;stroke-linecap:butt;stroke-linejoin:miter;stroke-opacity:1"
       d="m 12.5,450 c 778.125,0 778.125,0 778.125,0"
       id="path149"
       inkscape:connector-curvature="0" />
    <path
       style="fill:none;stroke:#000000;stroke-width:1px;stroke-linecap:butt;stroke-linejoin:miter;stroke-opacity:1"
       d="m 400,67.1875 v 676.5625 0"
       id="path151"
       inkscape:connector-curvature="0" />
  </g>
</svg>
