<?xml version="1.0" encoding="UTF-8" standalone="no"?>
<!-- Created with Inkscape (http://www.inkscape.org/) -->

<svg
   xmlns:dc="http://purl.org/dc/elements/1.1/"
   xmlns:cc="http://creativecommons.org/ns#"
   xmlns:rdf="http://www.w3.org/1999/02/22-rdf-syntax-ns#"
   xmlns:svg="http://www.w3.org/2000/svg"
   xmlns="http://www.w3.org/2000/svg"
   xmlns:sodipodi="http://sodipodi.sourceforge.net/DTD/sodipodi-0.dtd"
   xmlns:inkscape="http://www.inkscape.org/namespaces/inkscape"
   width="1400px"
   height="1400px"
   viewBox="0 0 1400 1400"
   version="1.1"
   id="SVGRoot"
   sodipodi:docname="map2.svg"
   inkscape:version="0.92.5 (2060ec1f9f, 2020-04-08)">
  <defs
     id="defs260" />
  <sodipodi:namedview
     id="base"
     pagecolor="#ffffff"
     bordercolor="#666666"
     borderopacity="1.0"
     inkscape:pageopacity="0.0"
     inkscape:pageshadow="2"
     inkscape:zoom="0.38285714"
     inkscape:cx="700"
     inkscape:cy="700"
     inkscape:document-units="px"
     inkscape:current-layer="layer1"
     showgrid="false"
     inkscape:window-width="1366"
     inkscape:window-height="705"
     inkscape:window-x="-8"
     inkscape:window-y="-8"
     inkscape:window-maximized="1"
     showguides="true"
     inkscape:guide-bbox="true"
     inkscape:snap-grids="true"
     inkscape:snap-bbox="true">
    <sodipodi:guide
       position="800,1200"
       orientation="1,0"
       id="guide351"
       inkscape:locked="false"
       inkscape:label=""
       inkscape:color="rgb(0,0,255)" />
    <sodipodi:guide
       position="900,800"
       orientation="1,0"
       id="guide355"
       inkscape:locked="false"
       inkscape:label=""
       inkscape:color="rgb(0,0,255)" />
    <sodipodi:guide
       position="1000,800"
       orientation="1,0"
       id="guide357"
       inkscape:locked="false"
       inkscape:label=""
       inkscape:color="rgb(0,0,255)" />
    <sodipodi:guide
       position="1100,700"
       orientation="1,0"
       id="guide359"
       inkscape:locked="false"
       inkscape:label=""
       inkscape:color="rgb(0,0,255)" />
    <sodipodi:guide
       position="1200,800"
       orientation="1,0"
       id="guide361"
       inkscape:locked="false"
       inkscape:label=""
       inkscape:color="rgb(0,0,255)" />
    <sodipodi:guide
       position="1300,600"
       orientation="1,0"
       id="guide4945"
       inkscape:locked="false"
       inkscape:label=""
       inkscape:color="rgb(0,0,255)" />
  </sodipodi:namedview>
  <metadata
     id="metadata263">
    <rdf:RDF>
      <cc:Work
         rdf:about="">
        <dc:format>image/svg+xml</dc:format>
        <dc:type
           rdf:resource="http://purl.org/dc/dcmitype/StillImage" />
        <dc:title></dc:title>
      </cc:Work>
    </rdf:RDF>
  </metadata>
  <g
     inkscape:label="Layer 1"
     inkscape:groupmode="layer"
     id="layer1">
    <g
       id="svgg"
       transform="matrix(3.515625,0,0,5.2888133,2.343775,0.734325)">
      <path
         inkscape:connector-curvature="0"
         id="path0"
         d="M 0,133.25 V 266.5 H 200 400 V 133.25 0 H 200 0 V 133.25 M 14.833,2.917 c 2.186,0.241 4.549,0.591 6.25,0.926 0.459,0.091 1.959,0.386 3.334,0.656 3.582,0.705 5.836,1.196 10,2.178 2.016,0.476 3.929,0.923 4.25,0.993 0.588,0.128 4.332,1.094 7.416,1.912 2.889,0.767 10.61,2.911 12,3.333 8.373,2.537 12.395,3.851 17.5,5.717 7.611,2.781 13.435,5.617 15.804,7.698 0.612,0.537 0.647,0.546 1.329,0.345 1.529,-0.452 4.5,-2.13 5.784,-3.268 0.775,-0.687 0.961,-0.652 3.335,0.646 l 2.234,1.222 0.517,-1.281 c 2.904,-7.203 7.332,-6.935 18.997,1.148 1.07,0.741 4.464,1.88 5.261,1.765 12.791,-1.843 37.452,-12.083 46.147,-19.159 l 1.272,-1.036 1.053,0.636 c 1.743,1.054 2.933,1.076 5.531,0.1 2.198,-0.825 3.539,-1.021 5.291,-0.773 1.564,0.221 1.725,0.377 1.302,1.262 -0.994,2.086 0.985,9.052 3.524,12.401 1.821,2.403 3.342,2.915 6.21,2.09 0.775,-0.223 2.084,-0.561 2.909,-0.752 0.825,-0.191 1.8,-0.419 2.167,-0.507 7.762,-1.857 22.608,-3.242 36.75,-3.428 3.529,-0.047 7.617,-0.156 9.083,-0.244 32.207,-1.928 55.195,0.595 72.5,7.958 4.783,2.035 11.25,5.422 11.25,5.892 0,0.896 1.55,0.666 3.588,-0.533 4.989,-2.934 6.998,-3.485 9.599,-2.632 0.972,0.319 1.257,0.337 3.313,0.21 5.225,-0.324 6.521,-0.126 8.237,1.256 l 0.653,0.527 0.994,-1.796 c 2.907,-5.248 2.788,-5.059 3.084,-4.894 0.154,0.086 0.28,0.285 0.281,0.442 0.006,1.267 4.109,1.551 10.418,0.722 5.992,-0.788 13.227,-2.263 14.77,-3.011 0.811,-0.393 2.957,0.344 3.592,1.234 0.945,1.325 0.406,3.27 -2.722,9.838 -4.455,9.352 -6.4,14.356 -7.955,20.47 -0.6,2.362 -0.772,3.174 -1.437,6.82 -0.651,3.572 -0.822,6.031 -0.827,11.917 -0.006,7.744 0.107,8.645 1.405,11.236 0.846,1.69 1.439,2.956 3.011,6.43 4.847,10.713 9.105,24.644 10.979,35.917 1.671,10.05 2.087,15.29 2.086,26.25 -10e-4,9.336 -0.311,14.49 -1.335,22.167 -0.135,1.008 -0.319,2.433 -0.41,3.166 -0.09,0.734 -0.233,1.709 -0.316,2.167 -0.084,0.458 -0.273,1.621 -0.421,2.583 -0.147,0.963 -0.372,2.313 -0.499,3 -0.127,0.688 -0.354,1.925 -0.505,2.75 -0.363,1.981 -1.542,7.822 -1.75,8.667 -0.09,0.367 -0.547,2.392 -1.015,4.5 -1.167,5.261 -1.454,6.504 -2.673,11.583 -5.586,23.269 -5.651,33.21 -0.255,38.958 0.771,0.821 0.274,1.152 -0.892,0.594 -1.513,-0.724 -7.843,-2.357 -12.24,-3.156 -11.771,-2.142 -18.556,-2.31 -17.324,-0.43 0.347,0.53 0.243,0.626 -2.684,2.471 -14.105,8.891 -29.888,7.532 -35.287,-3.04 -0.858,-1.681 -0.838,-1.676 -1.217,-0.272 -4.142,15.352 -27.193,20.417 -57.731,12.684 -6.637,-1.68 -17.067,-5.221 -20.415,-6.93 -1.357,-0.692 -12.689,-2.155 -21.016,-2.712 -1.375,-0.092 -2.838,-0.202 -3.25,-0.245 -0.413,-0.043 -1.838,-0.121 -3.167,-0.175 -1.329,-0.053 -2.604,-0.126 -2.833,-0.163 -0.229,-0.036 -1.43,-0.108 -2.667,-0.161 -1.238,-0.052 -3.825,-0.167 -5.75,-0.257 -1.925,-0.089 -4.437,-0.201 -5.583,-0.249 -1.146,-0.049 -2.796,-0.126 -3.667,-0.173 -0.871,-0.047 -4.058,-0.196 -7.083,-0.332 -8.767,-0.392 -18.502,-0.994 -22.834,-1.411 -9.962,-0.958 -14.258,-1.522 -20.833,-2.733 -6.026,-1.111 -11.969,-2.784 -16.434,-4.628 l -1.6,-0.661 0.266,-0.74 c 0.487,-1.354 -0.246,-1.729 -2.786,-1.421 -3.531,0.427 -11.792,3.159 -17.439,5.768 -0.692,0.319 -1.3,0.581 -1.351,0.581 -0.152,0 -3.995,1.925 -4.645,2.327 -0.817,0.504 -0.758,0.551 -4.73,-3.781 -3.007,-3.281 -4.274,-4.732 -5.785,-6.628 l -0.504,-0.632 -0.546,0.282 c -1.659,0.858 -6.705,0.633 -11.456,-0.512 -0.275,-0.066 -0.406,0.055 -0.656,0.609 -2.207,4.895 -23.671,14.724 -27.161,12.438 -0.431,-0.283 -0.689,-0.303 -2.576,-0.202 -12.598,0.676 -23.992,2.075 -28.89,3.547 -1.556,0.468 -1.595,0.465 -1.706,-0.11 -0.04,-0.206 -0.443,-1.098 -0.895,-1.981 -4.94,-9.641 -7.728,-22.324 -9.056,-41.19 -0.292,-4.153 -0.292,-23.296 0,-28.084 0.81,-13.284 1.709,-23.138 2.962,-32.475 0.137,-1.022 0.324,-2.458 0.415,-3.191 0.55,-4.416 2.163,-14.702 3.242,-20.667 0.149,-0.825 0.336,-1.875 0.415,-2.333 0.079,-0.459 0.498,-2.521 0.93,-4.584 0.432,-2.062 0.819,-4.106 0.86,-4.542 0.054,-0.568 0.182,-0.877 0.455,-1.091 3.555,-2.797 5.657,-33.89 4.667,-69.033 C 16.732,23.421 15.425,9.711 14.168,9.382 13.863,9.302 10.833,3.954 10.833,3.494 c 0,-0.373 0.221,-0.522 0.995,-0.674 0.324,-0.063 0.626,-0.123 0.672,-0.133 0.046,-0.009 1.096,0.094 2.333,0.23 m 253.882,14.707 c 0.623,0.032 1.598,0.032 2.167,-10e-4 0.569,-0.032 0.06,-0.059 -1.132,-0.058 -1.192,0 -1.657,0.027 -1.035,0.059 M 95.667,244.417 c 0.311,0.32 0.603,0.583 0.648,0.583 0.046,0 -0.171,-0.263 -0.482,-0.583 -0.311,-0.321 -0.603,-0.584 -0.648,-0.584 -0.046,0 0.171,0.263 0.482,0.584"
         style="fill:#ffffff;fill-rule:evenodd;stroke:none" />
      <path
         style="fill:#0b0b0b;fill-rule:evenodd;stroke:none"
         d="m 11.208,3.024 c 6.925891,11.553958 5.20003,27.056242 6.172091,40.556811 -0.221991,21.773178 1.227864,43.989671 -3.624372,65.357379 -5.5861772,16.57462 -6.7573085,34.60163 -8.958469,51.98244 -2.6663735,30.0844 -4.37072132,62.24962 8.726,90.3205 13.882251,-4.61682 28.974243,-1.97429 42.740482,-5.45642 11.805691,-5.17103 26.906904,-20.2129 36.349784,-3.76219 7.189074,11.7775 24.632634,-13.32032 31.920484,-2.23552 36.73156,12.76878 76.56595,6.37182 114.37925,13.04075 21.57571,8.24953 47.01066,16.25579 69.27322,6.27244 9.09336,-3.31145 8.52667,-19.69405 15.76203,-6.18257 10.92644,8.10406 26.92666,1.59385 34.99892,-5.78193 8.96592,-1.13577 22.37965,3.88089 28.51058,4.00131 -8.84218,-15.14409 0.30517,-33.09964 2.77791,-48.91448 10.49587,-39.72299 9.40973,-83.58217 -10.15764,-120.423747 -4.12245,-19.58047 4.63702,-38.728345 12.41561,-56.223273 -3.98329,-9.541332 -21.71561,4.719317 -29.55563,-1.68175 -3.42143,13.335492 -19.55183,-2.40167 -27.946,8.05625 C 305.65645,13.40184 269.08056,17.032442 235.833,17.91 221.57666,16.157995 205.7451,24.61723 193.01867,20.548578 190.47419,7.8359625 188.31608,6.0668735 176.45916,6.9336128 162.30712,16.648954 145.35754,24.116113 128.15525,26.819125 119.65208,22.011273 108.25315,15.259081 102.67298,24.633109 96.753845,20.930585 90.589772,31.210933 84.465984,22.328516 61.726326,13.084468 37.757375,6.4839876 13.480047,2.9243594 Z m 3.959,0.558 c 24.469036,4.3044475 48.940065,10.376423 71.651,20.55675 5.733075,8.134199 12.76047,-4.110365 17.925,1.23625 5.84433,-14.984563 17.83543,5.689838 27.674,1.557 15.43975,-4.138483 31.00504,-9.743256 43.846,-19.465 8.2869,1.0002796 14.34152,-2.2387225 14.04162,9.278375 3.05218,11.564366 14.46134,3.707307 22.11238,3.671625 25.60467,-2.60195 51.53102,-3.566498 77.25,-2.027 15.82719,1.433794 31.68854,5.576841 45.18312,14.148625 8.08456,-8.403485 22.8015,1.849474 27.24888,-6.112625 6.51415,-2.156179 18.5525,-0.434843 26.816,-4.091 8.07564,4.159969 -5.93896,17.086222 -5.936,24.36 -4.51824,14.094391 -7.58658,30.812641 0.688,44.08 15.6226,34.445 15.38417,74.1301 6.25,110.392 -2.82812,15.38367 -9.99494,31.43801 -5.014,47 4.34085,6.31783 -9.55806,-1.68666 -12.879,-0.575 -11.20204,-4.79213 -16.67527,2.7067 -25.903,6.648 -10.20123,4.35853 -24.27657,1.14052 -27.84725,-10.2075 -2.56064,16.5889 -22.31792,20.12091 -36.21067,18.94611 -15.59031,-0.54508 -30.30323,-6.00467 -44.75608,-11.06161 -36.15266,-5.78885 -73.89169,-0.71924 -109.2775,-11.4095 -5.28905,-5.36455 -12.25442,-3.75822 -19.4465,-0.5075 -9.078766,6.06417 -17.084122,4.41729 -21.742,-6.092 -9.333945,0.69268 -14.829991,-1.57978 -21.214,6.871 -8.227042,5.05779 -17.513985,7.43966 -27.148,6.293 -9.691078,-2.22088 -26.036545,10.04703 -28.231234,-4.74363 C -0.41570636,209.34542 3.7440304,173.8005 7.855,140.03 9.6757258,127.84892 11.410049,115.54078 15.577,104 19.40058,74.167732 18.615889,43.760762 16.138,13.832 17.303117,10.018445 6.7099471,1.5296977 15.167,3.582 Z"
         id="path1"
         inkscape:connector-curvature="0" />
      <path
         style="fill:#9e9e9e;fill-rule:evenodd;stroke:none"
         inkscape:connector-curvature="0"
         id="path2"
         d="m 265.042,16.956 c 0.435,0.034 1.148,0.034 1.583,0 0.435,-0.034 0.079,-0.063 -0.792,-0.063 -0.871,0 -1.227,0.029 -0.791,0.063 m 8.005,0 c 0.438,0.034 1.113,0.034 1.5,-0.001 0.387,-0.035 0.028,-0.063 -0.797,-0.063 -0.825,0.001 -1.141,0.03 -0.703,0.064 m -21.505,0.492 c 0.16,0.042 0.423,0.042 0.583,0 0.16,-0.042 0.029,-0.076 -0.292,-0.076 -0.321,0 -0.452,0.034 -0.291,0.076 m 14.583,0.173 c 0.298,0.037 0.785,0.037 1.083,0 0.298,-0.037 0.054,-0.068 -0.541,-0.068 -0.596,0 -0.84,0.031 -0.542,0.068 m 6.163,-10e-4 c 0.296,0.037 0.821,0.038 1.167,0.002 0.345,-0.036 0.103,-0.067 -0.538,-0.067 -0.642,-0.001 -0.925,0.028 -0.629,0.065 m -33.661,0.165 c 0.207,0.039 0.507,0.038 0.667,-0.004 0.159,-0.042 -0.011,-0.074 -0.377,-0.072 -0.367,0.002 -0.497,0.036 -0.29,0.076 m 22.581,-0.003 c 0.161,0.041 0.423,0.041 0.584,0 0.16,-0.042 0.029,-0.077 -0.292,-0.077 -0.321,0 -0.452,0.035 -0.292,0.077 m -27.497,0.171 c 0.253,0.038 0.628,0.037 0.833,-0.002 0.205,-0.04 -0.002,-0.071 -0.461,-0.07 -0.458,0.001 -0.626,0.034 -0.372,0.072 m 5.997,0.495 c 0.161,0.042 0.423,0.042 0.584,0 0.16,-0.042 0.029,-0.076 -0.292,-0.076 -0.321,0 -0.452,0.034 -0.292,0.076 m 152.997,5.885 c 0,0.321 0.035,0.452 0.077,0.292 0.041,-0.16 0.041,-0.423 0,-0.583 -0.042,-0.161 -0.077,-0.03 -0.077,0.291 m -25.584,1.621 c 0.296,0.036 0.821,0.037 1.167,10e-4 0.346,-0.036 0.104,-0.066 -0.538,-0.067 -0.642,-0.001 -0.925,0.029 -0.629,0.066 M 16.875,32.417 c 0.002,0.366 0.036,0.497 0.076,0.289 0.04,-0.207 0.039,-0.507 -0.003,-0.666 -0.042,-0.16 -0.074,0.01 -0.073,0.377 m 0.164,3.416 c 0,0.321 0.034,0.452 0.076,0.292 0.042,-0.16 0.042,-0.423 0,-0.583 -0.042,-0.161 -0.076,-0.03 -0.076,0.291 m 0.173,5.5 c 0,0.413 0.033,0.582 0.072,0.375 0.04,-0.206 0.04,-0.543 0,-0.75 -0.039,-0.206 -0.072,-0.037 -0.072,0.375 m 0.827,2.834 c 0,0.32 0.034,0.452 0.076,0.291 0.042,-0.16 0.042,-0.423 0,-0.583 -0.042,-0.16 -0.076,-0.029 -0.076,0.292 m -0.641,5.416 c 0,1.192 0.027,1.658 0.059,1.035 0.032,-0.622 0.032,-1.597 0,-2.167 -0.033,-0.569 -0.059,-0.059 -0.059,1.132 m 0.654,-0.166 c 0.001,0.55 0.032,0.755 0.069,0.455 0.037,-0.3 0.036,-0.75 -0.002,-1 -0.038,-0.25 -0.068,-0.005 -0.067,0.545 M 17.398,68 c 0,1.146 0.026,1.615 0.059,1.042 0.032,-0.573 0.032,-1.511 0,-2.084 C 17.424,66.385 17.398,66.854 17.398,68 m 0.654,0.083 c 0.001,0.55 0.032,0.755 0.069,0.456 0.037,-0.3 0.036,-0.75 -0.002,-1 -0.038,-0.251 -0.068,-0.006 -0.067,0.544 m 361.176,3.834 c 0,0.916 0.028,1.27 0.062,0.786 0.034,-0.485 0.033,-1.235 -0.001,-1.667 -0.034,-0.432 -0.062,-0.036 -0.061,0.881 m -361.189,1.25 c 0,0.32 0.034,0.452 0.076,0.291 0.042,-0.16 0.042,-0.423 0,-0.583 -0.042,-0.16 -0.076,-0.029 -0.076,0.292 m -0.83,2.583 c 0.002,0.367 0.036,0.497 0.076,0.29 0.039,-0.208 0.038,-0.508 -0.004,-0.667 -0.042,-0.159 -0.074,0.01 -0.072,0.377 m 379.496,66.75 c 0,0.321 0.035,0.452 0.077,0.292 0.041,-0.161 0.041,-0.423 0,-0.584 -0.042,-0.16 -0.077,-0.029 -0.077,0.292 m 0.167,3.667 c 0,0.32 0.034,0.452 0.076,0.291 0.042,-0.16 0.042,-0.423 0,-0.583 -0.042,-0.16 -0.076,-0.029 -0.076,0.292 m 0,11 c 0,0.32 0.034,0.452 0.076,0.291 0.042,-0.16 0.042,-0.423 0,-0.583 -0.042,-0.16 -0.076,-0.029 -0.076,0.292 m -0.163,3.75 c 0.002,0.366 0.036,0.497 0.076,0.289 0.039,-0.207 0.038,-0.507 -0.004,-0.666 -0.042,-0.16 -0.074,0.01 -0.072,0.377 M 3.212,181.667 c 0,0.412 0.033,0.581 0.072,0.375 0.04,-0.207 0.04,-0.544 0,-0.75 -0.039,-0.207 -0.072,-0.038 -0.072,0.375 M 3.045,186.5 c 0,0.412 0.033,0.581 0.073,0.375 0.039,-0.206 0.039,-0.544 0,-0.75 -0.04,-0.206 -0.073,-0.037 -0.073,0.375 m 0.66,1 c 0,0.321 0.035,0.452 0.077,0.292 0.041,-0.161 0.041,-0.423 0,-0.584 -0.042,-0.16 -0.077,-0.029 -0.077,0.292 m -0.663,14.083 c 0.002,0.367 0.036,0.497 0.076,0.29 0.04,-0.207 0.038,-0.507 -0.003,-0.667 -0.042,-0.159 -0.075,0.011 -0.073,0.377 M 3.205,206 c 0,0.321 0.035,0.452 0.077,0.292 0.041,-0.161 0.041,-0.423 0,-0.584 C 3.24,205.548 3.205,205.679 3.205,206 m 78.503,29.619 c 0.252,0.039 0.665,0.039 0.917,0 0.252,-0.038 0.046,-0.069 -0.458,-0.069 -0.505,0 -0.711,0.031 -0.459,0.069 m 13.459,9.298 c 0.59,0.595 1.111,1.083 1.157,1.083 0.046,0 -0.4,-0.488 -0.991,-1.083 -0.59,-0.596 -1.111,-1.084 -1.157,-1.084 -0.046,0 0.4,0.488 0.991,1.084 m -47.373,3.034 c 0.207,0.04 0.507,0.039 0.666,-0.003 0.16,-0.042 -0.01,-0.074 -0.377,-0.073 -0.366,0.002 -0.497,0.036 -0.289,0.076 m 124.414,0.164 c 0.161,0.042 0.423,0.042 0.584,0 0.16,-0.042 0.029,-0.076 -0.292,-0.076 -0.321,0 -0.452,0.034 -0.292,0.076 m 8.834,0.5 c 0.16,0.042 0.423,0.042 0.583,0 0.16,-0.042 0.029,-0.076 -0.292,-0.076 -0.321,0 -0.452,0.034 -0.291,0.076 m 11,0.5 c 0.16,0.042 0.423,0.042 0.583,0 0.16,-0.042 0.029,-0.076 -0.292,-0.076 -0.321,0 -0.452,0.034 -0.291,0.076 m 7.5,0.333 c 0.16,0.042 0.423,0.042 0.583,0 0.16,-0.042 0.029,-0.076 -0.292,-0.076 -0.321,0 -0.452,0.034 -0.291,0.076 m 3.666,0.167 c 0.161,0.042 0.423,0.042 0.584,0 0.16,-0.042 0.029,-0.076 -0.292,-0.076 -0.321,0 -0.452,0.034 -0.292,0.076 m 6.667,0.333 c 0.16,0.042 0.423,0.042 0.583,0 0.161,-0.042 0.029,-0.076 -0.291,-0.076 -0.321,0 -0.452,0.034 -0.292,0.076 m 76.25,13.173 c 0.298,0.037 0.785,0.037 1.083,0 0.298,-0.037 0.054,-0.068 -0.541,-0.068 -0.596,0 -0.84,0.031 -0.542,0.068 m -0.667,0.669 c 0.573,0.033 1.511,0.033 2.084,0 0.573,-0.032 0.104,-0.059 -1.042,-0.059 -1.146,0 -1.615,0.027 -1.042,0.059" />
      <path
         style="fill:#7c7c7c;fill-rule:evenodd;stroke:none"
         inkscape:connector-curvature="0"
         id="path3"
         d="m 268.542,16.957 c 0.71,0.031 1.873,0.031 2.583,0 0.71,-0.031 0.129,-0.057 -1.292,-0.057 -1.421,0 -2.002,0.026 -1.291,0.057 m -22.834,1.329 c 0.252,0.038 0.665,0.038 0.917,0 0.252,-0.038 0.046,-0.069 -0.458,-0.069 -0.505,0 -0.711,0.031 -0.459,0.069" />
      <path
         style="fill:#747474;fill-rule:evenodd;stroke:none;stroke-width:0.04638201;stroke-miterlimit:4;stroke-dasharray:none"
         inkscape:connector-curvature="0"
         id="path4"
         d="m 12.292,3.451 c 0.206,0.04 0.543,0.04 0.75,0 0.206,-0.04 0.037,-0.072 -0.375,-0.072 -0.413,0 -0.582,0.032 -0.375,0.072 m 174.25,3.831 c 0.16,0.041 0.423,0.041 0.583,0 0.16,-0.042 0.029,-0.077 -0.292,-0.077 -0.321,0 -0.452,0.035 -0.291,0.077 m 74,9.833 c 0.16,0.042 0.423,0.042 0.583,0 0.16,-0.042 0.029,-0.076 -0.292,-0.076 -0.321,0 -0.452,0.034 -0.291,0.076 m 3.583,0.503 c 0.206,0.039 0.544,0.039 0.75,0 0.206,-0.04 0.037,-0.073 -0.375,-0.073 -0.413,0 -0.581,0.033 -0.375,0.073 m 10.75,-0.003 c 0.16,0.042 0.423,0.042 0.583,0 0.161,-0.042 0.029,-0.076 -0.291,-0.076 -0.321,0 -0.452,0.034 -0.292,0.076 m -34.581,0.17 c 0.207,0.039 0.507,0.038 0.666,-0.004 0.16,-0.042 -0.01,-0.074 -0.377,-0.072 -0.366,0.002 -0.497,0.036 -0.289,0.076 m -4.919,0.163 c 0.16,0.042 0.423,0.042 0.583,0 0.161,-0.042 0.029,-0.076 -0.291,-0.076 -0.321,0 -0.452,0.034 -0.292,0.076 m 8.417,0.339 c 0.298,0.037 0.785,0.037 1.083,0 0.298,-0.037 0.054,-0.067 -0.542,-0.067 -0.596,0 -0.839,0.03 -0.541,0.067 m -133.417,1.328 c 0.16,0.042 0.423,0.042 0.583,0 0.161,-0.042 0.029,-0.076 -0.291,-0.076 -0.321,0 -0.452,0.034 -0.292,0.076 m 234.252,8.836 c 0.207,0.04 0.507,0.039 0.667,-0.003 0.159,-0.042 -0.011,-0.074 -0.377,-0.073 -0.367,0.002 -0.497,0.036 -0.29,0.076 m 13.54,1.768 c 0,0.029 0.243,0.272 0.541,0.541 l 0.542,0.49 -0.49,-0.542 c -0.456,-0.505 -0.593,-0.618 -0.593,-0.489 M 17.705,37.833 c 0,0.321 0.035,0.452 0.077,0.292 0.041,-0.16 0.041,-0.423 0,-0.583 -0.042,-0.161 -0.077,-0.03 -0.077,0.291 m -0.5,2 c 0,0.321 0.035,0.452 0.077,0.292 0.041,-0.16 0.041,-0.423 0,-0.583 -0.042,-0.161 -0.077,-0.03 -0.077,0.291 m 0.182,6 c 0,0.596 0.03,0.84 0.067,0.542 0.037,-0.298 0.037,-0.785 0,-1.083 -0.037,-0.298 -0.067,-0.055 -0.067,0.541 M 18.039,45.5 c 0,0.321 0.034,0.452 0.076,0.292 0.042,-0.161 0.042,-0.423 0,-0.584 -0.042,-0.16 -0.076,-0.029 -0.076,0.292 m 0.016,6.75 c 0,0.642 0.031,0.884 0.067,0.538 0.036,-0.346 0.035,-0.871 -0.002,-1.167 -0.037,-0.296 -0.066,-0.013 -0.065,0.629 M 18.053,65.5 c 0,0.596 0.031,0.84 0.068,0.542 0.037,-0.298 0.037,-0.786 0,-1.084 -0.037,-0.298 -0.068,-0.054 -0.068,0.542 m 361.152,4 c 0,0.321 0.035,0.452 0.077,0.292 0.041,-0.161 0.041,-0.423 0,-0.584 -0.042,-0.16 -0.077,-0.029 -0.077,0.292 m -361.82,2.083 c 10e-4,0.55 0.032,0.755 0.069,0.456 0.037,-0.3 0.036,-0.75 -0.002,-1 -0.038,-0.251 -0.068,-0.006 -0.067,0.544 m 0.654,0.25 c 0,0.321 0.034,0.452 0.076,0.292 0.042,-0.16 0.042,-0.423 0,-0.583 -0.042,-0.161 -0.076,-0.03 -0.076,0.291 m 360.503,1.917 c 0.002,0.367 0.036,0.497 0.076,0.29 0.04,-0.208 0.038,-0.508 -0.003,-0.667 -0.042,-0.159 -0.075,0.01 -0.073,0.377 M 17.205,77.167 c 0,0.32 0.035,0.452 0.077,0.291 0.041,-0.16 0.041,-0.423 0,-0.583 -0.042,-0.16 -0.077,-0.029 -0.077,0.292 m -0.333,8 c 0,0.32 0.034,0.452 0.076,0.291 0.042,-0.16 0.042,-0.423 0,-0.583 -0.042,-0.16 -0.076,-0.029 -0.076,0.292 m 380,62.333 c 0,0.321 0.034,0.452 0.076,0.292 0.042,-0.161 0.042,-0.423 0,-0.584 -0.042,-0.16 -0.076,-0.029 -0.076,0.292 m 0,8.333 c 0,0.321 0.034,0.452 0.076,0.292 0.042,-0.16 0.042,-0.423 0,-0.583 -0.042,-0.161 -0.076,-0.03 -0.076,0.291 m -393.667,27.5 c 0,0.321 0.035,0.452 0.077,0.292 0.041,-0.16 0.041,-0.423 0,-0.583 -0.042,-0.161 -0.077,-0.03 -0.077,0.291 m -0.157,5.084 c 10e-4,0.458 0.033,0.626 0.072,0.372 0.038,-0.253 0.037,-0.628 -0.003,-0.833 -0.039,-0.205 -0.071,0.002 -0.069,0.461 m 0.514,5.833 c 0.001,1.008 0.028,1.399 0.061,0.869 0.034,-0.531 0.033,-1.356 0,-1.833 -0.034,-0.478 -0.061,-0.044 -0.061,0.964 m -0.514,5.667 c 10e-4,0.458 0.033,0.626 0.072,0.372 0.038,-0.253 0.037,-0.628 -0.003,-0.833 -0.039,-0.205 -0.071,0.002 -0.069,0.461 m 0.157,4.583 c 0,0.321 0.035,0.452 0.077,0.292 0.041,-0.161 0.041,-0.423 0,-0.584 -0.042,-0.16 -0.077,-0.029 -0.077,0.292 m 379.845,32.667 c 0,0.504 0.031,0.71 0.069,0.458 0.039,-0.252 0.039,-0.665 0,-0.917 -0.038,-0.252 -0.069,-0.046 -0.069,0.459 m -0.002,1.916 c 10e-4,0.459 0.033,0.626 0.072,0.373 0.038,-0.253 0.037,-0.628 -0.003,-0.833 -0.039,-0.205 -0.071,0.002 -0.069,0.46 M 92.5,242.052 c 0,0.029 0.244,0.273 0.542,0.542 l 0.541,0.489 -0.489,-0.541 c -0.456,-0.505 -0.594,-0.619 -0.594,-0.49 m -48.458,4.73 c 0.16,0.041 0.423,0.041 0.583,0 0.16,-0.042 0.029,-0.077 -0.292,-0.077 -0.321,0 -0.452,0.035 -0.291,0.077 m 1.166,0.5 c 0.161,0.041 0.423,0.041 0.584,0 0.16,-0.042 0.029,-0.077 -0.292,-0.077 -0.321,0 -0.452,0.035 -0.292,0.077 m 149.5,1.333 c 0.161,0.042 0.423,0.042 0.584,0 0.16,-0.042 0.029,-0.076 -0.292,-0.076 -0.321,0 -0.452,0.034 -0.292,0.076 m 11,0.5 c 0.161,0.042 0.423,0.042 0.584,0 0.16,-0.042 0.029,-0.076 -0.292,-0.076 -0.321,0 -0.452,0.034 -0.292,0.076 M 322,251.417 c 0.311,0.32 0.603,0.583 0.649,0.583 0.046,0 -0.171,-0.263 -0.482,-0.583 -0.311,-0.321 -0.603,-0.584 -0.649,-0.584 -0.046,0 0.171,0.263 0.482,0.584 m 13.628,4.704 c 0.3,0.037 0.75,0.036 1,-0.002 0.25,-0.038 0.005,-0.068 -0.545,-0.067 -0.55,10e-4 -0.755,0.032 -0.455,0.069 m -51.253,6.994 c 0.16,0.042 0.423,0.042 0.583,0 0.161,-0.042 0.029,-0.076 -0.291,-0.076 -0.321,0 -0.452,0.034 -0.292,0.076 m 3.833,0 c 0.161,0.042 0.423,0.042 0.584,0 0.16,-0.042 0.029,-0.076 -0.292,-0.076 -0.321,0 -0.452,0.034 -0.292,0.076" />
    </g>
    <path
       style="fill:#000000;stroke:#000000;stroke-width:1px;stroke-linecap:butt;stroke-linejoin:miter;stroke-opacity:0.98492461;opacity:0;fill-opacity:1"
       d="M 60.811183,500 C 1357.645,500 1357.645,500 1357.645,500"
       id="path369"
       inkscape:connector-curvature="0" />
    <path
       style="fill:#000000;stroke:#000000;stroke-width:3;stroke-linecap:butt;stroke-linejoin:miter;stroke-opacity:1;stroke-miterlimit:4;stroke-dasharray:none"
       d="M 60.811183,500 C 1357.645,500 1357.645,500 1357.645,500"
       id="path4883"
       inkscape:connector-curvature="0" />
    <path
       style="fill:#000000;stroke:#000000;stroke-width:3;stroke-linecap:butt;stroke-linejoin:miter;stroke-miterlimit:4;stroke-dasharray:none;stroke-opacity:1"
       d="M 45.254834,600 H 1379.444"
       id="path4902"
       inkscape:connector-curvature="0"
       sodipodi:nodetypes="cc" />
    <path
       style="opacity:1;fill:#000000;stroke:#000000;stroke-width:3;stroke-linecap:butt;stroke-linejoin:miter;stroke-miterlimit:4;stroke-dasharray:none;stroke-opacity:1"
       d="m 33.941595,699.99982 c 1356.230905,1.37931 1357.402505,0 1357.402505,0"
       id="path4904"
       inkscape:connector-curvature="0"
       sodipodi:nodetypes="cc" />
    <path
       style="fill:none;stroke:#000000;stroke-width:3;stroke-linecap:butt;stroke-linejoin:miter;stroke-miterlimit:4;stroke-dasharray:none;stroke-opacity:1"
       d="M 24.041631,800 1395.2013,801.41421 C 1201.7918,801.41421 1300,800 1300,800"
       id="path4909"
       inkscape:connector-curvature="0"
       sodipodi:nodetypes="ccc" />
    <path
       style="fill:none;stroke:#000000;stroke-width:3;stroke-linecap:butt;stroke-linejoin:miter;stroke-opacity:1;stroke-miterlimit:4;stroke-dasharray:none"
       d="M 62.844166,401.36193 1334,400"
       id="path4913"
       inkscape:connector-curvature="0"
       sodipodi:nodetypes="cc" />
    <path
       style="fill:none;stroke:#000000;stroke-width:3;stroke-linecap:butt;stroke-linejoin:miter;stroke-opacity:1;stroke-miterlimit:4;stroke-dasharray:none"
       d="M 65.330952,300 H 1340"
       id="path4917"
       inkscape:connector-curvature="0"
       sodipodi:nodetypes="cc" />
    <path
       style="fill:none;stroke:#000000;stroke-width:3;stroke-linecap:butt;stroke-linejoin:miter;stroke-opacity:1;stroke-miterlimit:4;stroke-dasharray:none"
       d="M 62.587916,200.826 145.66401,200.77315 1360.9171,200"
       id="path4919"
       inkscape:connector-curvature="0"
       sodipodi:nodetypes="ccc" />
    <path
       style="fill:none;stroke:#000000;stroke-width:3;stroke-linecap:butt;stroke-linejoin:miter;stroke-opacity:1;stroke-miterlimit:4;stroke-dasharray:none"
       d="M 60,100 H 262"
       id="path4923"
       inkscape:connector-curvature="0"
       sodipodi:nodetypes="cc" />
    <path
       style="fill:none;stroke:#000000;stroke-width:3;stroke-linecap:butt;stroke-linejoin:miter;stroke-opacity:1;stroke-miterlimit:4;stroke-dasharray:none"
       d="M 551,100 H 675"
       id="path4925"
       inkscape:connector-curvature="0"
       sodipodi:nodetypes="cc" />
    <path
       style="fill:none;stroke:#000000;stroke-width:3;stroke-linecap:butt;stroke-linejoin:miter;stroke-opacity:1;stroke-miterlimit:4;stroke-dasharray:none"
       d="m 800,100 238,-0.5"
       id="path4929"
       inkscape:connector-curvature="0"
       sodipodi:nodetypes="cc" />
    <path
       style="fill:none;stroke:#000000;stroke-width:3;stroke-linecap:butt;stroke-linejoin:miter;stroke-opacity:1;stroke-miterlimit:4;stroke-dasharray:none"
       d="M 18,900 H 1392"
       id="path4931"
       inkscape:connector-curvature="0"
       sodipodi:nodetypes="cc" />
    <path
       style="fill:none;stroke:#000000;stroke-width:3;stroke-linecap:butt;stroke-linejoin:miter;stroke-opacity:1;stroke-miterlimit:4;stroke-dasharray:none"
       d="M 13.84062,1000 H 1381.8877"
       id="path4933"
       inkscape:connector-curvature="0"
       sodipodi:nodetypes="cc" />
    <path
       style="fill:none;stroke:#000000;stroke-width:3;stroke-linecap:butt;stroke-linejoin:miter;stroke-opacity:1;stroke-miterlimit:4;stroke-dasharray:none"
       d="M 15.154329,1100 H 1368.2897"
       id="path4937"
       inkscape:connector-curvature="0"
       sodipodi:nodetypes="cc" />
    <path
       style="fill:none;stroke:#000000;stroke-width:3;stroke-linecap:butt;stroke-linejoin:miter;stroke-opacity:1;stroke-miterlimit:4;stroke-dasharray:none"
       d="M 24.526912,1200 H 1351.3607"
       id="path4939"
       inkscape:connector-curvature="0"
       sodipodi:nodetypes="cc" />
    <path
       style="fill:none;stroke:#000000;stroke-width:3;stroke-linecap:butt;stroke-linejoin:miter;stroke-opacity:1;stroke-miterlimit:4;stroke-dasharray:none"
       d="m 534,1300 h 666 154"
       id="path4941"
       inkscape:connector-curvature="0"
       sodipodi:nodetypes="ccc" />
    <path
       style="fill:none;stroke:#000000;stroke-width:3;stroke-linecap:butt;stroke-linejoin:miter;stroke-opacity:1;stroke-miterlimit:4;stroke-dasharray:none"
       d="M 41.21875,1300 H 198"
       id="path4943"
       inkscape:connector-curvature="0"
       sodipodi:nodetypes="cc" />
    <path
       style="fill:none;stroke:#000000;stroke-width:3;stroke-linecap:butt;stroke-linejoin:miter;stroke-miterlimit:4;stroke-dasharray:none;stroke-opacity:1"
       d="M 200,1299.7258 V 67.6342"
       id="path4947"
       inkscape:connector-curvature="0"
       sodipodi:nodetypes="cc" />
    <path
       style="fill:none;stroke:#000000;stroke-width:3;stroke-linecap:butt;stroke-linejoin:miter;stroke-miterlimit:4;stroke-dasharray:none;stroke-opacity:1"
       d="M 300,1241 V 122"
       id="path4949"
       inkscape:connector-curvature="0"
       sodipodi:nodetypes="cc" />
    <path
       style="fill:none;stroke:#000000;stroke-width:3;stroke-linecap:butt;stroke-linejoin:miter;stroke-miterlimit:4;stroke-dasharray:none;stroke-opacity:1"
       d="M 400,1262 V 108"
       id="path4949-9"
       inkscape:connector-curvature="0"
       sodipodi:nodetypes="cc" />
    <path
       style="fill:none;stroke:#000000;stroke-width:3;stroke-linecap:butt;stroke-linejoin:miter;stroke-miterlimit:4;stroke-dasharray:none;stroke-opacity:1"
       d="M 101.5,1313.046 V 30.9544"
       id="path4947-5"
       inkscape:connector-curvature="0"
       sodipodi:nodetypes="cc" />
    <path
       style="fill:none;stroke:#000000;stroke-width:3;stroke-linecap:butt;stroke-linejoin:miter;stroke-miterlimit:4;stroke-dasharray:none;stroke-opacity:1"
       d="M 500,1291 V 127"
       id="path4949-9-9"
       inkscape:connector-curvature="0"
       sodipodi:nodetypes="cc" />
    <path
       style="fill:none;stroke:#000000;stroke-width:3;stroke-linecap:butt;stroke-linejoin:miter;stroke-miterlimit:4;stroke-dasharray:none;stroke-opacity:1"
       d="M 601.5,1309 V 61"
       id="path4949-9-9-0"
       inkscape:connector-curvature="0"
       sodipodi:nodetypes="cc" />
    <path
       style="fill:none;stroke:#000000;stroke-width:3;stroke-linecap:butt;stroke-linejoin:miter;stroke-miterlimit:4;stroke-dasharray:none;stroke-opacity:1"
       d="M 701.5,1316.6842 V 118.68421"
       id="path4949-9-9-0-0"
       inkscape:connector-curvature="0"
       sodipodi:nodetypes="cc" />
    <path
       style="fill:none;stroke:#000000;stroke-width:3;stroke-linecap:butt;stroke-linejoin:miter;stroke-miterlimit:4;stroke-dasharray:none;stroke-opacity:1"
       d="M 801.5,1326 V 102"
       id="path4949-9-9-0-0-5"
       inkscape:connector-curvature="0"
       sodipodi:nodetypes="cc" />
    <path
       style="fill:none;stroke:#000000;stroke-width:3;stroke-linecap:butt;stroke-linejoin:miter;stroke-miterlimit:4;stroke-dasharray:none;stroke-opacity:1"
       d="M 901.5,1366 V 92"
       id="path4949-9-9-0-0-5-5"
       inkscape:connector-curvature="0"
       sodipodi:nodetypes="cc" />
    <path
       style="fill:none;stroke:#000000;stroke-width:3;stroke-linecap:butt;stroke-linejoin:miter;stroke-miterlimit:4;stroke-dasharray:none;stroke-opacity:1"
       d="M 1001.5,1392 V 94"
       id="path4949-9-9-0-0-5-5-5"
       inkscape:connector-curvature="0"
       sodipodi:nodetypes="cc" />
    <path
       style="fill:none;stroke:#000000;stroke-width:3;stroke-linecap:butt;stroke-linejoin:miter;stroke-miterlimit:4;stroke-dasharray:none;stroke-opacity:1"
       d="M 1101.5,1350 V 120"
       id="path4949-9-9-0-0-5-5-5-0"
       inkscape:connector-curvature="0"
       sodipodi:nodetypes="cc" />
    <path
       style="fill:none;stroke:#000000;stroke-width:3;stroke-linecap:butt;stroke-linejoin:miter;stroke-miterlimit:4;stroke-dasharray:none;stroke-opacity:1"
       d="M 1201.5,1352 V 152"
       id="path4949-9-9-0-0-5-5-5-0-1"
       inkscape:connector-curvature="0"
       sodipodi:nodetypes="cc" />
    <path
       style="fill:none;stroke:#000000;stroke-width:3;stroke-linecap:butt;stroke-linejoin:miter;stroke-miterlimit:4;stroke-dasharray:none;stroke-opacity:1"
       d="M 1301.5,1308 V 136"
       id="path4949-9-9-0-0-5-5-5-0-1-4"
       inkscape:connector-curvature="0"
       sodipodi:nodetypes="cc" />
  </g>
</svg>
