<?xml version="1.0" encoding="UTF-8" standalone="no"?>
<!-- Created with Inkscape (http://www.inkscape.org/) -->

<svg
   xmlns:dc="http://purl.org/dc/elements/1.1/"
   xmlns:cc="http://creativecommons.org/ns#"
   xmlns:rdf="http://www.w3.org/1999/02/22-rdf-syntax-ns#"
   xmlns:svg="http://www.w3.org/2000/svg"
   xmlns="http://www.w3.org/2000/svg"
   xmlns:sodipodi="http://sodipodi.sourceforge.net/DTD/sodipodi-0.dtd"
   xmlns:inkscape="http://www.inkscape.org/namespaces/inkscape"
   width="1200mm"
   height="1200mm"
   viewBox="0 0 1200 1200"
   version="1.1"
   id="svg8"
   inkscape:version="0.92.5 (2060ec1f9f, 2020-04-08)"
   sodipodi:docname="monsterPP.svg">
  <defs
     id="defs2" />
  <sodipodi:namedview
     id="base"
     pagecolor="#ffffff"
     bordercolor="#666666"
     borderopacity="1.0"
     inkscape:pageopacity="0.0"
     inkscape:pageshadow="2"
     inkscape:zoom="0.0875"
     inkscape:cx="762.69569"
     inkscape:cy="1265.1027"
     inkscape:document-units="mm"
     inkscape:current-layer="layer1"
     showgrid="false"
     inkscape:window-width="1366"
     inkscape:window-height="705"
     inkscape:window-x="-8"
     inkscape:window-y="-8"
     inkscape:window-maximized="1" />
  <metadata
     id="metadata5">
    <rdf:RDF>
      <cc:Work
         rdf:about="">
        <dc:format>image/svg+xml</dc:format>
        <dc:type
           rdf:resource="http://purl.org/dc/dcmitype/StillImage" />
        <dc:title></dc:title>
      </cc:Work>
    </rdf:RDF>
  </metadata>
  <g
     inkscape:label="Layer 1"
     inkscape:groupmode="layer"
     id="layer1"
     transform="translate(0,903)">
    <path
       style="fill:none;stroke:#000000;stroke-width:8;stroke-linecap:butt;stroke-linejoin:miter;stroke-miterlimit:4;stroke-dasharray:none;stroke-opacity:1"
       d="m 469.12027,-307.58388 c 0,0 -32.15788,30.01403 -55.98635,71.8641 -6.64951,11.67857 -12.65038,24.27884 -17.12279,37.4058 -7.22311,21.20056 -10.45945,43.77489 -6.00264,66.05891 8.55262,42.76313 31.00326,87.12987 60.40291,121.34037 29.39965,34.21049 65.74831,58.26475 102.09696,60.4029 72.69731,4.2763 168.91434,-4.27631 194.57222,-81.24994 11.35223,-106.21657 -44.09897,-320.57423 -115.46045,-295.06555 0,0 -85.52624,115.46043 -162.49986,19.24341 z"
       id="path1440"
       inkscape:connector-curvature="0"
       sodipodi:nodetypes="csssssccc" />
    <path
       style="fill:none;stroke:#000000;stroke-width:8;stroke-linecap:butt;stroke-linejoin:miter;stroke-miterlimit:4;stroke-dasharray:none;stroke-opacity:1"
       d="m 468.05119,167.08676 c 28.8753,-9.33191 -84.6434,-18.1597 -99.42426,-2.13812 -7.74751,8.39784 -13.5639,34.19817 -2.13816,34.21048 39.23994,0.0423 71.76479,30.99299 87.6644,9.6217 12.89443,-17.33191 13.89802,-41.69406 13.89802,-41.69406 z"
       id="path1444"
       inkscape:connector-curvature="0"
       sodipodi:nodetypes="csssc" />
    <path
       style="fill:none;stroke:#000000;stroke-width:8;stroke-linecap:butt;stroke-linejoin:miter;stroke-miterlimit:4;stroke-dasharray:none;stroke-opacity:1"
       d="m 687.21219,31.31387 c 0,0 26.61961,26.17143 23.51972,49.1776 -7.52537,55.85028 8.55263,71.62823 8.55263,71.62823 l 32.07234,-6.41447 c 0,0 -6.79361,-45.42251 -16.03618,-73.76639 C 724.62992,39.15378 732.11347,2.4487796 732.11347,2.4487796 v 0"
       id="path1446"
       inkscape:connector-curvature="0"
       sodipodi:nodetypes="csccscc" />
    <path
       style="fill:none;stroke:#000000;stroke-width:8;stroke-linecap:butt;stroke-linejoin:miter;stroke-miterlimit:4;stroke-dasharray:none;stroke-opacity:1"
       d="m 458.42949,-6.1038504 c 0,0 5.73718,88.4769804 -18.40586,103.2210504 -30.50701,18.63052 -31.84082,59.27881 -31.84082,59.27881 h -2.13815 v 0"
       id="path1448"
       inkscape:connector-curvature="0"
       sodipodi:nodetypes="csccc" />
    <path
       style="fill:none;stroke:#000000;stroke-width:8;stroke-linecap:butt;stroke-linejoin:miter;stroke-miterlimit:4;stroke-dasharray:none;stroke-opacity:1"
       d="m 505.46892,35.5902 c 0,0 2.31844,48.50291 -14.96709,59.86835 -25.47506,16.75016 -41.69405,58.79931 -41.69405,58.79931 h -1.06908"
       id="path1452"
       inkscape:connector-curvature="0"
       sodipodi:nodetypes="cscc" />
    <path
       style="fill:none;stroke:#000000;stroke-width:8;stroke-linecap:butt;stroke-linejoin:miter;stroke-miterlimit:4;stroke-dasharray:none;stroke-opacity:1"
       d="m 719.28454,152.1197 90.87165,-18.17433 -6.41448,48.10853 -100.49335,7.48352 z"
       id="path1454"
       inkscape:connector-curvature="0"
       sodipodi:nodetypes="ccccc" />
    <path
       style="fill:none;stroke:#000000;stroke-width:8;stroke-linecap:butt;stroke-linejoin:miter;stroke-miterlimit:4;stroke-dasharray:none;stroke-opacity:1"
       d="m 469.12027,-307.58388 c 0,0 -39.55589,-42.76313 -39.55589,-78.0427 0,-35.27958 39.18932,-75.05335 55.59206,-81.24994 48.10851,-18.17433 75.6856,-9.87492 106.90781,7.48355 44.65413,24.82616 39.55588,52.62332 39.55588,83.38809 0,49.17759 0,49.17759 0,49.17759 v 0"
       id="path1456"
       inkscape:connector-curvature="0"
       sodipodi:nodetypes="csssscc" />
    <path
       style="fill:none;stroke:#000000;stroke-width:0.26458332px;stroke-linecap:butt;stroke-linejoin:miter;stroke-opacity:1"
       d="M 388.93941,-132.25507 Z"
       id="path1458"
       inkscape:connector-curvature="0" />
    <path
       style="fill:none;stroke:#000000;stroke-width:0.26458332px;stroke-linecap:butt;stroke-linejoin:miter;stroke-opacity:1"
       d="M 388.93941,-132.25507 Z"
       id="path1460"
       inkscape:connector-curvature="0" />
    <path
       style="fill:none;stroke:#000000;stroke-width:8;stroke-linecap:butt;stroke-linejoin:miter;stroke-miterlimit:4;stroke-dasharray:none;stroke-opacity:1"
       d="m 393.75026,-195.33069 c 0,0 -30.24173,-60.95088 -49.71213,-85.52624 -24.56949,-31.01138 -2.57412,-46.69425 -16.03617,-64.14468 -7.69575,-9.97575 -25.1522,-8.43204 -33.14143,-18.17433 -8.29034,-10.10948 12.23552,-6.76061 -11.75985,-37.41774 0,0 33.36709,23.12766 29.93418,12.82894 0,0 -13.50661,-29.22043 -6.41447,-24.5888 10.63499,6.94537 29.93419,21.38157 29.93419,21.38157 5.04171,2.42094 -29.83412,-48.78638 2.13816,-21.38157 l 22.45064,19.24341 24.58879,-31.00326 c 8.88247,-11.19964 1.46691,29.25451 -3.20723,42.76312 -5.48141,15.8417 -34.72621,24.58224 -33.14142,35.27958 l 4.27631,28.86511 c 7.96502,18.06442 25.97633,32.93705 29.93419,43.8322 4.88495,13.44727 33.14142,33.14142 33.14142,33.14142 v 0"
       id="path1464"
       inkscape:connector-curvature="0"
       sodipodi:nodetypes="csssssssscssscscc" />
    <path
       style="fill:none;stroke:#000000;stroke-width:0.26458332px;stroke-linecap:butt;stroke-linejoin:miter;stroke-opacity:1"
       d="m 388.93941,-132.25507 v 0"
       id="path1466"
       inkscape:connector-curvature="0" />
    <path
       style="fill:none;stroke:#000000;stroke-width:0.26458332px;stroke-linecap:butt;stroke-linejoin:miter;stroke-opacity:1"
       d="M 361.14338,-164.32741 Z"
       id="path1468"
       inkscape:connector-curvature="0" />
    <path
       style="fill:none;stroke:#000000;stroke-width:8;stroke-linecap:butt;stroke-linejoin:miter;stroke-miterlimit:4;stroke-dasharray:none;stroke-opacity:1"
       d="m 388.93941,-132.25507 c 0,0 -15.05874,-11.22588 -20.84702,-20.31249 -7.17654,-11.26592 -4.9166,-26.55827 -12.2944,-37.41774 -8.60249,-12.66211 -22.33795,-23.08111 -28.86511,-37.41772 -3.01168,-6.61502 -1.91748,-14.50664 -4.27632,-21.38156 -2.84465,-8.29085 -3.00037,-23.20079 -11.75985,-23.51972 -7.66493,-0.27908 -4.43207,17.51243 -11.75986,19.77794 -5.25511,1.62471 -14.91108,-24.69272 -24.05426,-19.77795 -7.57402,4.07129 9.26101,20.132 2.6727,25.65788 -8.6667,7.26911 -40.83321,-26.25465 -39.5559,-16.03617 l 25.65788,31.53779 c 0,0 -19.55337,-11.18745 -23.51972,-4.2763 -5.72379,9.97339 12.26494,20.85557 22.45064,26.1924 9.20287,4.82187 20.68172,2.02034 31.00327,3.20725 25.29308,2.90854 45.81985,30.2598 56.66114,53.98844 4.67015,10.2217 -4.44525,24.2047 1.60361,33.67596 9.52313,14.91125 47.03944,24.58879 47.03944,24.58879"
       id="path1470"
       inkscape:connector-curvature="0"
       sodipodi:nodetypes="cssssssssccsssssc" />
    <path
       style="fill:none;stroke:#000000;stroke-width:8;stroke-linecap:butt;stroke-linejoin:miter;stroke-miterlimit:4;stroke-dasharray:none;stroke-opacity:1"
       d="m 430.09892,-391.50651 c 0,0 6.07267,-55.61226 -71.62824,-53.45391 -19.2434,0.53454 0,0.53454 0,0.53454"
       id="path1472"
       inkscape:connector-curvature="0"
       sodipodi:nodetypes="csc" />
    <path
       style="fill:none;stroke:#000000;stroke-width:8;stroke-linecap:butt;stroke-linejoin:miter;stroke-miterlimit:4;stroke-dasharray:none;stroke-opacity:1"
       d="m 444.53147,-432.13148 v 0 c -20.21086,-46.76598 -50.19254,-73.10206 -86.06079,-87.12986 0,0 -1.81679,-58.67014 -24.05425,-65.74831 -17.94361,-5.71144 -38.91948,14.83707 -46.50491,32.07234 -12.53597,28.48372 -3.47052,65.96488 12.82894,92.47526 9.99251,16.2524 19.49496,32.97444 36.8832,25.12334 27.95858,-12.6238 20.84702,-83.92263 20.84702,-83.92263"
       id="path1474"
       inkscape:connector-curvature="0"
       sodipodi:nodetypes="cccssssc" />
    <path
       style="fill:none;stroke:#000000;stroke-width:8;stroke-linecap:butt;stroke-linejoin:miter;stroke-miterlimit:4;stroke-dasharray:none;stroke-opacity:1"
       d="m 312.50032,-535.29752 c -14.0781,2.66267 -11.34064,28.29147 -8.01808,42.22859 2.71076,11.3708 9.99398,30.43543 21.38156,27.79603 12.22095,-2.83256 9.73756,-24.54244 7.48355,-36.88319 -2.34494,-12.83859 -8.0234,-35.56682 -20.84703,-33.14143 z"
       id="path1476"
       inkscape:connector-curvature="0"
       sodipodi:nodetypes="sssss" />
    <path
       style="fill:none;stroke:#000000;stroke-width:8;stroke-linecap:butt;stroke-linejoin:miter;stroke-miterlimit:4;stroke-dasharray:none;stroke-opacity:1"
       d="m 484.6219,-467.41106 -31.00327,-98.88972 c 0,0 -37.26907,-25.2261 -38.48681,-44.90128 -1.01657,-16.42489 12.6113,-33.66402 27.26149,-41.15951 19.84385,-10.15273 49.3871,-11.22123 66.81739,2.6727 8.51743,6.78937 9.94175,20.73444 8.55262,31.5378 -1.96453,15.27826 -0.0372,19.00079 -26.19241,40.09043 -11.16906,9.0059 -37.95228,11.75986 -37.95228,11.75986"
       id="path1478"
       inkscape:connector-curvature="0"
       sodipodi:nodetypes="ccsssssc" />
    <path
       style="fill:none;stroke:#000000;stroke-width:8;stroke-linecap:butt;stroke-linejoin:miter;stroke-miterlimit:4;stroke-dasharray:none;stroke-opacity:1"
       d="m 488.89821,-575.92248 13.82872,62.70487 13.43277,37.78847 v 0 c -1.60361,1.06908 0,0 0,0"
       id="path1480"
       inkscape:connector-curvature="0"
       sodipodi:nodetypes="ccccc" />
    <path
       style="fill:none;stroke:#000000;stroke-width:8;stroke-linecap:butt;stroke-linejoin:miter;stroke-miterlimit:4;stroke-dasharray:none;stroke-opacity:1"
       d="m 460.0331,-624.031 c -6.44685,4.35314 -10.50765,14.54631 -8.01808,21.9161 2.43609,7.21149 11.65463,12.88648 19.2434,12.2944 6.16644,-0.48111 10.37067,-7.21364 13.89802,-12.2944 4.24597,-6.11586 5.18462,-13.57356 1.06908,-19.77794 -6.10974,-9.21073 -17.03224,-8.32343 -26.19242,-2.13816 z"
       id="path1482"
       inkscape:connector-curvature="0"
       sodipodi:nodetypes="ssssss" />
    <path
       style="fill:none;stroke:#000000;stroke-width:8;stroke-linecap:butt;stroke-linejoin:miter;stroke-miterlimit:4;stroke-dasharray:none;stroke-opacity:1"
       d="m 539.14488,-478.10184 c 0,0 7.35474,-33.1385 14.96709,-48.10851 11.37158,-22.36272 44.90128,-60.40291 44.90128,-60.40291"
       id="path1484"
       inkscape:connector-curvature="0"
       sodipodi:nodetypes="csc" />
    <path
       style="fill:none;stroke:#000000;stroke-width:8;stroke-linecap:butt;stroke-linejoin:miter;stroke-miterlimit:4;stroke-dasharray:none;stroke-opacity:1"
       d="m 609.16949,-573.24979 c 0,0 -27.38145,34.86109 -33.67596,55.59206 -4.6119,15.18928 -2.13815,47.57398 -2.13815,47.57398"
       id="path1486"
       inkscape:connector-curvature="0"
       sodipodi:nodetypes="csc" />
    <path
       style="fill:none;stroke:#000000;stroke-width:8;stroke-linecap:butt;stroke-linejoin:miter;stroke-miterlimit:4;stroke-dasharray:none;stroke-opacity:1"
       d="m 599.01325,-649.15433 c 0,0 -16.82884,12.12482 -18.17433,21.38156 -2.15729,14.84186 18.17433,41.15951 18.17433,41.15951 l 10.15624,13.36347 c 0,0 12.47998,10.43118 19.24341,8.55263 12.57376,-3.49239 18.71076,-19.56996 22.45064,-32.07235 3.47384,-11.61301 4.09352,-25.38155 -1.06908,-36.34865 -4.94728,-10.50968 -14.86267,-20.42278 -26.19241,-22.98518 -8.30747,-1.87886 -24.5888,6.94901 -24.5888,6.94901 z"
       id="path1488"
       inkscape:connector-curvature="0"
       sodipodi:nodetypes="csccssssc" />
    <path
       style="fill:none;stroke:#000000;stroke-width:8;stroke-linecap:butt;stroke-linejoin:miter;stroke-miterlimit:4;stroke-dasharray:none;stroke-opacity:1"
       d="m 607.56588,-627.23823 c -5.10093,3.2536 -5.55807,11.72688 -4.27632,17.63979 1.77454,8.18621 7.39172,17.68215 15.50164,19.77794 4.87023,1.25858 11.61147,-1.39943 13.89801,-5.87993 4.32235,-8.46969 0.40743,-21.17183 -6.41447,-27.79603 -4.56268,-4.43045 -13.34695,-7.16183 -18.70886,-3.74177 z"
       id="path1490"
       inkscape:connector-curvature="0"
       sodipodi:nodetypes="ssssss" />
    <path
       style="fill:none;stroke:#000000;stroke-width:8;stroke-linecap:butt;stroke-linejoin:miter;stroke-miterlimit:4;stroke-dasharray:none;stroke-opacity:1"
       d="m 486.76006,-347.67431 c -4.05147,-18.04744 37.77409,5.87993 55.32479,-4.27631 15.63501,-9.04767 48.91032,-21.9161 48.91032,-21.9161 l 9.08716,17.10525 c 0,0 -22.90095,15.94237 -35.81412,20.84702 -22.7689,8.64804 -71.62823,14.43255 -71.62823,14.43255 z"
       id="path1492"
       inkscape:connector-curvature="0"
       sodipodi:nodetypes="ssccscs" />
    <path
       style="fill:none;stroke:#000000;stroke-width:4;stroke-linecap:butt;stroke-linejoin:miter;stroke-miterlimit:4;stroke-dasharray:none;stroke-opacity:1"
       d="m 492.63998,-321.4819 7.48355,-29.93418 13.89802,23.51971 5.87993,-18.17432 9.6217,14.43255 5.87993,-14.96709 18.17432,12.82894 v -21.91611 l 11.22532,14.43256 3.74178,-21.9161 10.69078,16.57071 2.13816,-21.9161 18.70886,11.75986 v 0"
       id="path1494"
       inkscape:connector-curvature="0" />
    <path
       style="fill:none;stroke:#000000;stroke-width:8;stroke-linecap:butt;stroke-linejoin:miter;stroke-miterlimit:4;stroke-dasharray:none;stroke-opacity:1"
       d="m 713.93915,-250.92274 c 0,0 -1.17605,-45.80379 7.48354,-66.28284 5.02907,-11.89323 13.39009,-10.88094 16.03617,-23.51972 2.95907,-14.13382 -3.20724,-48.10852 -3.20724,-48.10852 l 28.86512,-17.10525 c 0,0 13.12507,42.80965 9.6217,64.14469 -2.40174,14.62627 -16.09551,25.34627 -20.31248,39.55589 -6.93068,23.35379 -2.46946,48.85843 -7.48356,72.69732 -2.3892,11.35915 -10.69078,33.14142 -10.69078,33.14142 v 0"
       id="path1496"
       inkscape:connector-curvature="0"
       sodipodi:nodetypes="cssccssscc" />
    <path
       style="fill:none;stroke:#000000;stroke-width:8;stroke-linecap:butt;stroke-linejoin:miter;stroke-miterlimit:4;stroke-dasharray:none;stroke-opacity:1"
       d="m 747.08058,-119.42614 c 0,0 26.69973,-15.52326 32.07234,-28.86511 9.20897,-22.86872 -11.63163,-49.92804 -5.3454,-73.76639 5.89723,-22.36321 38.48682,-57.73021 38.48682,-57.73021 0,0 7.47422,-15.32131 35.27957,0 0,0 -40.3229,54.35783 -29.9342,98.35518 6.64589,28.14608 9.53342,55.99843 -3.20722,79.11179 -12.12045,21.98825 -62.00653,42.76313 -62.00653,42.76313 h -4.2763"
       id="path1498"
       inkscape:connector-curvature="0"
       sodipodi:nodetypes="cssccsscc" />
    <path
       style="fill:none;stroke:#000000;stroke-width:8;stroke-linecap:butt;stroke-linejoin:miter;stroke-miterlimit:4;stroke-dasharray:none;stroke-opacity:1"
       d="m 734.25162,-388.83382 c 0,0 -92.22222,-61.71509 -64.14467,-56.66113 0,0 45.75905,26.00936 53.45389,9.6217 3.76226,-8.01246 -35.99741,-13.99827 -29.93418,-25.65788 7.29738,-14.03291 45.97037,11.75986 45.97037,11.75986 l -26.72697,-33.14142 c -11.18752,-13.87251 38.50518,-0.48788 52.38483,10.69078 13.04721,10.50822 8.83186,29.58448 5.3454,45.97036 -2.10028,9.87099 -7.48355,20.31248 -7.48355,20.31248 v 0"
       id="path1500"
       inkscape:connector-curvature="0"
       sodipodi:nodetypes="cssscssscc" />
    <path
       style="fill:none;stroke:#000000;stroke-width:8;stroke-linecap:butt;stroke-linejoin:miter;stroke-miterlimit:4;stroke-dasharray:none;stroke-opacity:1"
       d="m 812.29434,-279.78785 c -11.40516,-18.81015 -27.55841,-21.47677 -25.65789,-85.52625 l 24.58881,25.65788 c 9.23228,9.63368 9.28537,-35.31362 22.45064,-33.14142 14.58633,2.40667 11.75986,42.76312 11.75986,42.76312 2.87383,10.45029 14.96708,-28.86511 14.96708,-28.86511 6.64942,11.84502 3.20725,40.62497 3.20725,40.62497 0,0 26.03675,-32.76973 26.72694,-21.38156 l -8.55261,44.90128 -34.21051,14.96709"
       id="path1502"
       inkscape:connector-curvature="0"
       sodipodi:nodetypes="ccsssscscc" />
  </g>
</svg>
