<?xml version="1.0" encoding="UTF-8" standalone="no"?>
<svg
   xmlns:dc="http://purl.org/dc/elements/1.1/"
   xmlns:cc="http://creativecommons.org/ns#"
   xmlns:rdf="http://www.w3.org/1999/02/22-rdf-syntax-ns#"
   xmlns:svg="http://www.w3.org/2000/svg"
   xmlns="http://www.w3.org/2000/svg"
   xmlns:sodipodi="http://sodipodi.sourceforge.net/DTD/sodipodi-0.dtd"
   xmlns:inkscape="http://www.inkscape.org/namespaces/inkscape"
   id="svg"
   version="1.1"
   width="400"
   height="253.33333333333334"
   viewBox="0, 0, 400,253.33333333333334"
   sodipodi:docname="stones.svg"
   inkscape:version="0.92.5 (2060ec1f9f, 2020-04-08)">
  <metadata
     id="metadata3756">
    <rdf:RDF>
      <cc:Work
         rdf:about="">
        <dc:format>image/svg+xml</dc:format>
        <dc:type
           rdf:resource="http://purl.org/dc/dcmitype/StillImage" />
      </cc:Work>
    </rdf:RDF>
  </metadata>
  <defs
     id="defs3754" />
  <sodipodi:namedview
     pagecolor="#ffffff"
     bordercolor="#666666"
     borderopacity="1"
     objecttolerance="10"
     gridtolerance="10"
     guidetolerance="10"
     inkscape:pageopacity="0"
     inkscape:pageshadow="2"
     inkscape:window-width="1366"
     inkscape:window-height="705"
     id="namedview3752"
     showgrid="false"
     inkscape:zoom="0.71"
     inkscape:cx="200"
     inkscape:cy="126.66666"
     inkscape:window-x="-8"
     inkscape:window-y="-8"
     inkscape:window-maximized="1"
     inkscape:current-layer="svg" />
  <g
     id="svgg">
    <path
       id="path0"
       d="M 74.593507,53.943662 C 62.969927,65.684496 60.307475,83.011758 31.040102,85.683831 -61.743598,94.15486 46.762423,238.85912 208.869,248.834 359.303,258.09 388.73239,237.10875 388.73239,176.32575 388.73239,46.867746 217.28693,-4.6517746 106.98787,32.816901 m 179.04058,22.176395 c 35.41179,4.043535 125.97611,71.959934 89.15406,155.984504 -51.73896,66.20821 -299.080918,6.1665 -340.847918,-45.3885 -49.98,-61.691 -21.897254,-84.155906 50.849746,-35.19991 51.186252,28.29755 78.448652,37.96775 113.323002,42.1931 57.37144,6.95109 67.80551,0.64447 -35.35947,-21.38469 C 3.1770282,94.663282 66.097254,73.317507 96.062254,54.878507 129.03925,34.587507 196.08428,13.60369 248.00028,43.72569"
       inkscape:connector-curvature="0"
       style="fill:#000000;fill-rule:evenodd;stroke:none"
       sodipodi:nodetypes="cscscccccsccc" />
  </g>
</svg>
