<?xml version="1.0" standalone="yes"?>
<svg xmlns="http://www.w3.org/2000/svg" width="30" height="19">
<path style="fill:#ffffff; stroke:none;" d="M0 0L0 6C1.9682 4.13194 3.48833 2.25569 5 0L0 0z"/>
<path style="fill:#000000; stroke:none;" d="M30 19C29.7889 15.7213 30.4973 12.0373 28.9722 9.00077C25.1096 1.30982 10.3345 -4.19314 3.22839 2.3179C-0.851338 6.056 -1.80251 15.7154 4.1088 18.2577C11.3355 21.3657 22.2485 18.4666 30 19z"/>
<path style="fill:#ffffff; stroke:none;" d="M18 0L30 9L30 0L18 0M24 13C17.0913 15.7177 8.34496 10.4328 3 6C0.0344992 16.1529 8.94628 16.904 17 16.9961C19.8096 17.0283 24.2265 17.6639 26.3812 15.3966C28.4589 13.2102 27.1469 10.0863 25.5656 8.05478C22.4662 4.07307 16.0346 1.66341 11.0193 1.69213C4.59182 1.72893 7.48485 6.91024 11.0193 8.92207C12.6062 9.82536 14.2635 10.7249 16 11.3056C18.5606 12.1618 21.3721 12.3668 24 13M0 15L0 19L4 19L0 15M29 17L30 18L29 17M28 18L29 19L28 18z"/>
</svg>
